SplineFontDB: 3.2
FontName: SansForgetica-Regular
FullName: Sans Forgetica Regular
FamilyName: Sans Forgetica
Weight: Normal
Copyright: Copyright \\(c\\) 2018 Letterbox. All rights reserved.
Version: 001.001
ItalicAngle: 0
UnderlinePosition: -135
UnderlineWidth: 34
Ascent: 784
Descent: 216
InvalidEm: 0
sfntRevision: 0x00010000
LayerCount: 2
Layer: 0 0 "Back" 1
Layer: 1 0 "Fore" 0
XUID: [1021 507 -934135405 2529190]
StyleMap: 0x0040
FSType: 8
OS2Version: 3
OS2_WeightWidthSlopeOnly: 0
OS2_UseTypoMetrics: 0
CreationTime: 1537134376
ModificationTime: 1581585788
PfmFamily: 81
TTFWeight: 400
TTFWidth: 5
LineGap: 280
VLineGap: 0
Panose: 0 0 5 0 0 0 0 0 0 0
OS2TypoAscent: 784
OS2TypoAOffset: 0
OS2TypoDescent: -216
OS2TypoDOffset: 0
OS2TypoLinegap: 280
OS2WinAscent: 1024
OS2WinAOffset: 0
OS2WinDescent: 256
OS2WinDOffset: 0
HheadAscent: 784
HheadAOffset: 0
HheadDescent: -216
HheadDOffset: 0
OS2SubXSize: 650
OS2SubYSize: 600
OS2SubXOff: 0
OS2SubYOff: 75
OS2SupXSize: 650
OS2SupYSize: 600
OS2SupXOff: 0
OS2SupYOff: 350
OS2StrikeYSize: 34
OS2StrikeYPos: 324
OS2CapHeight: 757
OS2XHeight: 541
OS2Vendor: 'UKWN'
OS2CodePages: 20000093.00000000
OS2UnicodeRanges: 00000007.00000000.00000000.00000000
Lookup: 4 0 1 "'liga' Standard Ligatures lookup 0" { "'liga' Standard Ligatures lookup 0 subtable"  } ['liga' ('DFLT' <'dflt' > 'grek' <'dflt' > 'latn' <'dflt' > ) ]
Lookup: 258 8 0 "'kern' Horizontal Kerning lookup 0" { "'kern' Horizontal Kerning lookup 0 per glyph data 0"  "'kern' Horizontal Kerning lookup 0 kerning class 1"  } ['kern' ('DFLT' <'dflt' > 'grek' <'dflt' > 'latn' <'dflt' > ) ]
Lookup: 258 8 0 "'kern' Horizontal Kerning lookup 1" { "'kern' Horizontal Kerning lookup 1 per glyph data 0"  "'kern' Horizontal Kerning lookup 1 kerning class 1"  "'kern' Horizontal Kerning lookup 1 kerning class 2"  "'kern' Horizontal Kerning lookup 1 kerning class 3"  } ['kern' ('DFLT' <'dflt' > 'grek' <'dflt' > 'latn' <'dflt' > ) ]
DEI: 91125

StartChar: .notdef
Encoding: 65536 -1 0
Width: 705
Flags: MW
HStem: -1 118<191 582> 639 118
VStem: 78 651
LayerCount: 2
Fore
SplineSet
191 -1 m 2
 194 0 191 2 190 10 c 2
 87 739 l 2
 86 746 82 752 78 755 c 2
 621 760 l 2
 619 757 620 754 621 747 c 2
 724 18 l 2
 725 10 728 4 729 3 c 2
 191 -1 l 2
303 117 m 1
 582 117 l 1
 509 639 l 1
 230 639 l 1
 303 117 l 1
EndSplineSet
EndChar

StartChar: A
Encoding: 65 65 1
Width: 646
Flags: MW
HStem: 0 21G<594 594>
VStem: 122 613<2 325>
LayerCount: 2
Fore
SplineSet
594 0 m 1
 302 606 l 1
 247 324 l 1
 122 325 l 1
 212 740 l 2
 214 747 209 753 206 755 c 2
 356 760 l 2
 355 758 359 754 364 746 c 2
 724 17 l 2
 728 9 733 3 735 2 c 2
 594 0 l 1
EndSplineSet
EndChar

StartChar: Aacute
Encoding: 193 193 2
Width: 646
Flags: MW
HStem: 0 21G<594 594>
VStem: 122 613<2 325>
LayerCount: 2
Fore
SplineSet
224 826 m 1
 324 1005 l 1
 420 939 l 1
 325 826 l 1
 224 826 l 1
594 0 m 1
 302 606 l 1
 247 324 l 1
 122 325 l 1
 212 740 l 2
 214 747 209 753 206 755 c 2
 356 760 l 2
 355 758 359 754 364 746 c 2
 724 17 l 2
 728 9 733 3 735 2 c 2
 594 0 l 1
EndSplineSet
EndChar

StartChar: Abreve
Encoding: 258 258 3
Width: 646
Flags: MW
HStem: 0 21G<594 594> 815 81<247.5 289 247.5 311.5>
VStem: 101 634
LayerCount: 2
Fore
SplineSet
268 815 m 0
 188 815 126 859 101 923 c 1
 167 953 l 1
 185 923 225 896 270 896 c 0
 308 896 337 919 346 947 c 1
 414 929 l 1
 408 865 355 815 268 815 c 0
594 0 m 1
 302 606 l 1
 247 324 l 1
 122 325 l 1
 212 740 l 2
 214 747 209 753 206 755 c 2
 356 760 l 2
 355 758 359 754 364 746 c 2
 724 17 l 2
 728 9 733 3 735 2 c 2
 594 0 l 1
EndSplineSet
EndChar

StartChar: Acircumflex
Encoding: 194 194 4
Width: 646
Flags: MW
HStem: 0 21G<594 594>
VStem: 107 628
LayerCount: 2
Fore
SplineSet
171 810 m 1
 107 850 l 1
 204 994 l 1
 293 994 l 1
 428 850 l 1
 372 810 l 1
 256 914 l 1
 171 810 l 1
594 0 m 1
 302 606 l 1
 247 324 l 1
 122 325 l 1
 212 740 l 2
 214 747 209 753 206 755 c 2
 356 760 l 2
 355 758 359 754 364 746 c 2
 724 17 l 2
 728 9 733 3 735 2 c 2
 594 0 l 1
EndSplineSet
EndChar

StartChar: Adieresis
Encoding: 196 196 5
Width: 646
Flags: MW
HStem: 0 21G<594 594> 840 119<146.5 173 139.5 180 346.5 373>
VStem: 100 635 101 118 302 116
LayerCount: 2
Fore
SplineSet
162 840 m 0xd8
 131 840 105 862 101 892 c 0
 96 929 121 959 158 959 c 0
 188 959 215 937 219 906 c 0
 224 870 198 840 162 840 c 0xd8
362 840 m 0
 331 840 306 862 302 892 c 0
 297 929 321 959 358 959 c 0
 388 959 414 937 418 906 c 0
 423 870 398 840 362 840 c 0
594 0 m 1
 302 606 l 1
 247 324 l 1
 122 325 l 1
 212 740 l 2
 214 747 209 753 206 755 c 2
 356 760 l 2
 355 758 359 754 364 746 c 2
 724 17 l 2
 728 9 733 3 735 2 c 2
 594 0 l 1
EndSplineSet
EndChar

StartChar: Agrave
Encoding: 192 192 6
Width: 646
Flags: MW
HStem: 0 21G<594 594>
VStem: 110 625
LayerCount: 2
Fore
SplineSet
235 826 m 1
 110 939 l 1
 192 1005 l 1
 342 826 l 1
 235 826 l 1
594 0 m 1
 302 606 l 1
 247 324 l 1
 122 325 l 1
 212 740 l 2
 214 747 209 753 206 755 c 2
 356 760 l 2
 355 758 359 754 364 746 c 2
 724 17 l 2
 728 9 733 3 735 2 c 2
 594 0 l 1
EndSplineSet
EndChar

StartChar: Amacron
Encoding: 256 256 7
Width: 646
Flags: MW
HStem: 0 21G<594 594> 842 68
VStem: 91 644
LayerCount: 2
Fore
SplineSet
101 838 m 1
 101 861 97 883 91 906 c 1
 431 914 l 1
 431 891 435 869 441 846 c 1
 101 838 l 1
594 0 m 1
 302 606 l 1
 247 324 l 1
 122 325 l 1
 212 740 l 2
 214 747 209 753 206 755 c 2
 356 760 l 2
 355 758 359 754 364 746 c 2
 724 17 l 2
 728 9 733 3 735 2 c 2
 594 0 l 1
EndSplineSet
EndChar

StartChar: Aogonek
Encoding: 260 260 8
Width: 677
Flags: MW
HStem: -191 77<731 741> 0 21G<594 594>
VStem: 122 663<-168 325> 628 64
LayerCount: 2
Fore
SplineSet
763 -109 m 2xd0
 785 -168 l 1
 778 -178 754 -191 728 -191 c 0
 680 -191 635 -161 628 -108 c 0
 620 -55 651 -18 675 -2 c 1
 728 2 l 1
 594 0 l 1
 302 606 l 1
 247 324 l 1
 122 325 l 1
 212 740 l 2
 214 747 209 753 206 755 c 2
 356 760 l 2
 355 758 359 754 364 746 c 2
 724 17 l 2
 728 9 733 3 735 2 c 2
 729 2 l 1
 704 -13 688 -40 692 -70 c 0
 696 -97 719 -114 743 -114 c 0
 751 -114 760 -112 763 -109 c 2xd0
EndSplineSet
EndChar

StartChar: Aring
Encoding: 197 197 9
Width: 646
Flags: MW
HStem: 0 21G<594 594> 809 52<259.5 281.5 259.5 292> 938 52<238.5 260.5>
VStem: 170 50 300 49
LayerCount: 2
Fore
SplineSet
266 809 m 0
 219 809 176 846 170 892 c 0
 163 945 201 990 254 990 c 0
 300 990 343 953 349 906 c 0
 356 854 318 809 266 809 c 0
272 861 m 0
 291 861 302 874 300 892 c 0
 296 917 273 938 248 938 c 0
 229 938 217 925 220 906 c 0
 223 882 247 861 272 861 c 0
594 0 m 1
 302 606 l 1
 247 324 l 1
 122 325 l 1
 212 740 l 2
 214 747 209 753 206 755 c 2
 356 760 l 2
 355 758 359 754 364 746 c 2
 724 17 l 2
 728 9 733 3 735 2 c 2
 594 0 l 1
EndSplineSet
EndChar

StartChar: Aringacute
Encoding: 506 506 10
Width: 646
Flags: MW
HStem: 0 21G<594 594> 790 52<266 288 266 299> 919 52<245.5 267.5>
VStem: 177 50 307 49
LayerCount: 2
Fore
SplineSet
185 1002 m 1
 286 1181 l 1
 381 1115 l 1
 286 1002 l 1
 185 1002 l 1
273 790 m 0
 226 790 183 827 177 873 c 0
 169 926 207 971 261 971 c 0
 306 971 349 934 356 887 c 0
 363 835 325 790 273 790 c 0
279 842 m 0
 297 842 309 855 307 873 c 0
 303 898 280 919 255 919 c 0
 236 919 224 906 227 887 c 0
 230 863 253 842 279 842 c 0
594 0 m 1
 302 606 l 1
 247 324 l 1
 122 325 l 1
 212 740 l 2
 214 747 209 753 206 755 c 2
 356 760 l 2
 355 758 359 754 364 746 c 2
 724 17 l 2
 728 9 733 3 735 2 c 2
 594 0 l 1
EndSplineSet
EndChar

StartChar: Atilde
Encoding: 195 195 11
Width: 646
Flags: MW
HStem: 0 21G<594 594> 837 86<317 357.5 317 363> 877 87<175.5 220>
VStem: 81 654
LayerCount: 2
Fore
SplineSet
341 837 m 0xd0
 290 837 247 877 193 877 c 0
 158 877 129 864 115 842 c 1
 81 901 l 1
 108 935 145 964 193 964 c 0xb0
 252 964 292 923 342 923 c 0
 373 923 395 931 405 948 c 1
 434 885 l 1
 417 856 385 837 341 837 c 0xd0
594 0 m 1xb0
 302 606 l 1
 247 324 l 1
 122 325 l 1
 212 740 l 2
 214 747 209 753 206 755 c 2
 356 760 l 2
 355 758 359 754 364 746 c 2
 724 17 l 2
 728 9 733 3 735 2 c 2
 594 0 l 1xb0
EndSplineSet
EndChar

StartChar: AE
Encoding: 198 198 12
Width: 969
Flags: MW
HStem: -6 21G<1000 1000> 0 118<571 571 571 974 974 977 555 984> 319 118<527 904 904 914 527 527> 639 118<882 883 872 885>
VStem: 79 921<-6 -1>
LayerCount: 2
Fore
SplineSet
223 0 m 1x78
 79 -1 l 2
 82 0 83 4 87 11 c 2
 389 740 l 2
 391 747 386 753 383 755 c 2
 872 757 l 2
 878 757 883 754 883 757 c 2
 899 631 l 2
 897 635 888 639 882 639 c 2
 481 638 l 1
 223 0 l 1x78
931 311 m 2
 928 314 922 319 914 319 c 2
 527 319 l 1
 510 437 l 1
 904 437 l 2
 911 437 915 434 917 437 c 2
 931 311 l 2
1000 -6 m 2xb8
 999 -3 990 0 984 0 c 2
 571 0 l 1
 555 118 l 1
 974 118 l 2
 980 118 984 116 985 119 c 2x78
 1000 -6 l 2xb8
EndSplineSet
EndChar

StartChar: AEacute
Encoding: 508 508 13
Width: 969
Flags: MW
HStem: -6 21G<1000 1000> 0 118<571 571 571 974 974 977 555 984> 319 118<527 904 904 914 527 527> 639 118<882 883 872 885>
VStem: 79 921<-6 -1>
LayerCount: 2
Fore
SplineSet
469 826 m 1x78
 569 1005 l 1
 665 939 l 1
 570 826 l 1
 469 826 l 1x78
223 0 m 1
 79 -1 l 2
 82 0 83 4 87 11 c 2
 389 740 l 2
 391 747 386 753 383 755 c 2
 872 757 l 2
 878 757 883 754 883 757 c 2
 899 631 l 2
 897 635 888 639 882 639 c 2
 481 638 l 1
 223 0 l 1
931 311 m 2
 928 314 922 319 914 319 c 2
 527 319 l 1
 510 437 l 1
 904 437 l 2
 911 437 915 434 917 437 c 2
 931 311 l 2
1000 -6 m 2xb8
 999 -3 990 0 984 0 c 2
 571 0 l 1
 555 118 l 1
 974 118 l 2
 980 118 984 116 985 119 c 2x78
 1000 -6 l 2xb8
EndSplineSet
EndChar

StartChar: B
Encoding: 66 66 14
Width: 574
Flags: MW
HStem: -14 115<260 331 260 381.5> -7 21G<179 179> 366 91<211 255 211 279.5> 663 107<155 215>
VStem: 78 510
LayerCount: 2
Fore
SplineSet
279 -14 m 0xb8
 220 -14 195 -10 179 -7 c 1x78
 170 108 l 1
 198 104 244 101 276 101 c 0
 386 101 467 142 455 233 c 0
 442 320 338 366 221 366 c 0
 192 366 158 365 127 362 c 1
 120 460 l 1
 150 458 200 457 222 457 c 0
 288 457 353 486 343 555 c 0
 333 627 258 663 172 663 c 0
 138 663 103 660 86 657 c 1
 78 760 l 1
 100 766 123 770 177 770 c 0
 344 770 452 691 469 574 c 0
 481 484 435 441 422 434 c 1
 449 426 566 386 586 248 c 0
 608 91 484 -14 279 -14 c 0xb8
EndSplineSet
EndChar

StartChar: C
Encoding: 67 67 15
Width: 620
Flags: MW
HStem: -14 117<484 566 484 572.5> 652 118<391.5 470.5 347.5 476.5>
VStem: 110 133
LayerCount: 2
Fore
SplineSet
552 -14 m 0
 353 -14 149 123 114 370 c 0
 80 615 242 770 453 770 c 0
 488 770 523 766 553 758 c 1
 564 635 l 1
 533 645 497 652 456 652 c 0
 327 652 222 560 246 384 c 0
 271 210 419 103 549 103 c 0
 583 103 615 108 643 117 c 1
 653 -1 l 1
 626 -9 593 -14 552 -14 c 0
EndSplineSet
EndChar

StartChar: Cacute
Encoding: 262 262 16
Width: 620
Flags: MW
HStem: -14 117<484 566 484 572.5> 652 118<391.5 470.5 347.5 476.5>
VStem: 110 133
LayerCount: 2
Fore
SplineSet
305 826 m 1
 405 1005 l 1
 501 939 l 1
 406 826 l 1
 305 826 l 1
552 -14 m 0
 353 -14 149 123 114 370 c 0
 80 615 242 770 453 770 c 0
 488 770 523 766 553 758 c 1
 564 635 l 1
 533 645 497 652 456 652 c 0
 327 652 222 560 246 384 c 0
 271 210 419 103 549 103 c 0
 583 103 615 108 643 117 c 1
 653 -1 l 1
 626 -9 593 -14 552 -14 c 0
EndSplineSet
EndChar

StartChar: Ccaron
Encoding: 268 268 17
Width: 620
Flags: MW
HStem: -14 117<484 566 484 572.5> 652 118<391.5 470.5 347.5 476.5>
VStem: 110 133
LayerCount: 2
Fore
SplineSet
321 821 m 1
 185 965 l 1
 242 1005 l 1
 357 901 l 1
 443 1005 l 1
 506 965 l 1
 410 821 l 1
 321 821 l 1
552 -14 m 0
 353 -14 149 123 114 370 c 0
 80 615 242 770 453 770 c 0
 488 770 523 766 553 758 c 1
 564 635 l 1
 533 645 497 652 456 652 c 0
 327 652 222 560 246 384 c 0
 271 210 419 103 549 103 c 0
 583 103 615 108 643 117 c 1
 653 -1 l 1
 626 -9 593 -14 552 -14 c 0
EndSplineSet
EndChar

StartChar: Ccedilla
Encoding: 199 199 18
Width: 620
Flags: MW
HStem: -219 59<533 556.5 533 580> -92 53<525 591.5> -14 117<557 566 484 576.5> -9 21G<488 488> -1 21G<653 653> 652 118<391.5 470.5 347.5 476.5>
VStem: 110 133 582 67
LayerCount: 2
Fore
SplineSet
574 -39 m 0xcf
 609 -39 644 -65 649 -105 c 0
 659 -173 616 -219 544 -219 c 0
 508 -219 483 -207 471 -195 c 1
 490 -141 l 1
 500 -148 520 -160 546 -160 c 0
 567 -160 585 -154 582 -131 c 0
 579 -110 558 -92 533 -92 c 0
 517 -92 508 -99 501 -106 c 1
 461 -80 l 1xcf
 488 -9 l 1xd7
 311 17 145 150 114 370 c 0
 80 615 242 770 453 770 c 0
 488 770 523 766 553 758 c 1
 564 635 l 1
 533 645 497 652 456 652 c 0
 327 652 222 560 246 384 c 0
 271 210 419 103 549 103 c 0
 583 103 615 108 643 117 c 1xe7
 653 -1 l 1xcf
 627 -9 596 -14 557 -14 c 1xe7
 550 -45 l 2
 553 -43 562 -39 574 -39 c 0xcf
EndSplineSet
EndChar

StartChar: Ccircumflex
Encoding: 264 264 19
Width: 626
Flags: MW
HStem: -14 117<484 566 484 572.5> 652 118<391.5 470.5 347.5 476.5>
VStem: 110 133
LayerCount: 2
Fore
SplineSet
286 810 m 1
 222 850 l 1
 319 994 l 1
 408 994 l 1
 543 850 l 1
 487 810 l 1
 371 914 l 1
 286 810 l 1
552 -14 m 0
 353 -14 149 123 114 370 c 0
 80 615 242 770 453 770 c 0
 488 770 523 766 553 758 c 1
 564 635 l 1
 533 645 497 652 456 652 c 0
 327 652 222 560 246 384 c 0
 271 210 419 103 549 103 c 0
 583 103 615 108 643 117 c 1
 653 -1 l 1
 626 -9 593 -14 552 -14 c 0
EndSplineSet
EndChar

StartChar: Cdotaccent
Encoding: 266 266 20
Width: 620
Flags: MW
HStem: -14 117<484 566 484 572.5> 652 118<391.5 470.5 347.5 476.5> 839 143<405.5 435 395.5 445>
VStem: 110 133 350 140
LayerCount: 2
Fore
SplineSet
424 839 m 0
 387 839 354 867 350 903 c 0
 344 945 374 982 417 982 c 0
 453 982 486 953 490 917 c 0
 496 875 466 839 424 839 c 0
552 -14 m 0
 353 -14 149 123 114 370 c 0
 80 615 242 770 453 770 c 0
 488 770 523 766 553 758 c 1
 564 635 l 1
 533 645 497 652 456 652 c 0
 327 652 222 560 246 384 c 0
 271 210 419 103 549 103 c 0
 583 103 615 108 643 117 c 1
 653 -1 l 1
 626 -9 593 -14 552 -14 c 0
EndSplineSet
EndChar

StartChar: D
Encoding: 68 68 21
Width: 633
Flags: MW
HStem: -14 125<251.5 327.5 243 381.5> -11 21G<175 175> 644 126<159 242>
VStem: 495 133
LayerCount: 2
Fore
SplineSet
270 -14 m 0xb0
 233 -14 201 -12 175 -11 c 1x70
 163 116 l 1
 189 113 223 111 263 111 c 0
 392 111 520 181 491 386 c 0
 464 576 310 644 174 644 c 0
 144 644 114 642 83 640 c 1
 72 766 l 1
 100 769 127 770 167 770 c 0
 360 770 588 653 624 393 c 0
 660 138 493 -14 270 -14 c 0xb0
EndSplineSet
EndChar

StartChar: Eth
Encoding: 208 208 22
Width: 759
Flags: MW
HStem: -14 125<383.5 458.5 383.5 507.5> 340 96 344 96 644 126<300 373>
VStem: 621 133
LayerCount: 2
Fore
SplineSet
396 -14 m 0xb8
 291 -14 234 -4 217 -1 c 1
 172 342 l 1
 79 338 l 1
 78 370 73 402 65 434 c 1
 159 438 l 1xd8
 117 756 l 1
 141 760 210 770 293 770 c 0
 486 770 714 653 750 393 c 0
 786 138 619 -14 396 -14 c 0xb8
399 111 m 0
 518 111 646 181 617 386 c 0
 590 576 436 644 310 644 c 0
 290 644 266 641 255 640 c 1
 287 438 l 1
 431 442 l 1
 433 410 438 378 445 346 c 1
 300 342 l 1
 335 117 l 1
 348 114 368 111 399 111 c 0
EndSplineSet
EndChar

StartChar: Dcaron
Encoding: 270 270 23
Width: 685
Flags: MW
HStem: -14 125<303.5 379.5 295 433.5> -11 21G<227 227> 644 126<211 294>
VStem: 547 133
LayerCount: 2
Fore
SplineSet
176 821 m 1xb0
 40 965 l 1
 97 1005 l 1
 212 901 l 1
 298 1005 l 1
 361 965 l 1
 265 821 l 1
 176 821 l 1xb0
322 -14 m 0
 285 -14 253 -12 227 -11 c 1x70
 215 116 l 1
 241 113 275 111 315 111 c 0
 444 111 572 181 543 386 c 0
 516 576 362 644 226 644 c 0
 196 644 166 642 135 640 c 1
 124 766 l 1
 152 769 179 770 219 770 c 0
 412 770 640 653 676 393 c 0
 712 138 545 -14 322 -14 c 0
EndSplineSet
EndChar

StartChar: Dcroat
Encoding: 272 272 24
Width: 759
Flags: MW
HStem: -14 125<383.5 458.5 383.5 507.5> 344 90 348 90 644 126<300 373>
VStem: 621 133
LayerCount: 2
Fore
SplineSet
396 -14 m 0xb8
 291 -14 234 -4 217 -1 c 1
 172 346 l 1
 79 342 l 1
 77 372 73 402 65 432 c 1
 159 436 l 1xd8
 117 756 l 1
 141 760 210 770 293 770 c 0
 486 770 714 653 750 393 c 0
 786 138 619 -14 396 -14 c 0xb8
399 111 m 0
 518 111 646 181 617 386 c 0
 590 576 436 644 310 644 c 0
 290 644 266 641 255 640 c 1
 287 436 l 1
 431 440 l 1
 433 410 437 380 445 350 c 1
 300 346 l 1
 335 117 l 1
 348 114 368 111 399 111 c 0
EndSplineSet
EndChar

StartChar: E
Encoding: 69 69 25
Width: 597
Flags: MW
HStem: -6 21G<628 628> 0 118<181 602 602 605 165 612 181 181> 319 118<137 532 532 542 137 137> 639 118<92 512 512 522 92 92>
VStem: 75 553
LayerCount: 2
Fore
SplineSet
539 631 m 2x78
 537 635 528 639 522 639 c 2
 92 639 l 1
 75 757 l 1
 512 757 l 2
 518 757 523 754 523 757 c 2
 539 631 l 2x78
559 311 m 2
 556 314 550 319 542 319 c 2
 137 319 l 1
 120 437 l 1
 532 437 l 2
 539 437 543 434 545 437 c 2
 559 311 l 2
628 -6 m 2xb8
 627 -3 618 0 612 0 c 2
 181 0 l 1
 165 118 l 1
 602 118 l 2
 608 118 612 116 613 119 c 2x78
 628 -6 l 2xb8
EndSplineSet
EndChar

StartChar: Eacute
Encoding: 201 201 26
Width: 597
Flags: MW
HStem: -6 21G<628 628> 0 118<181 602 602 605 165 612 181 181> 319 118<137 532 532 542 137 137> 639 118<92 512 512 522 92 92>
VStem: 75 553
LayerCount: 2
Fore
SplineSet
180 826 m 1x78
 280 1005 l 1
 376 939 l 1
 281 826 l 1
 180 826 l 1x78
539 631 m 2
 537 635 528 639 522 639 c 2
 92 639 l 1
 75 757 l 1
 512 757 l 2
 518 757 523 754 523 757 c 2
 539 631 l 2
559 311 m 2
 556 314 550 319 542 319 c 2
 137 319 l 1
 120 437 l 1
 532 437 l 2
 539 437 543 434 545 437 c 2
 559 311 l 2
628 -6 m 2xb8
 627 -3 618 0 612 0 c 2
 181 0 l 1
 165 118 l 1
 602 118 l 2
 608 118 612 116 613 119 c 2x78
 628 -6 l 2xb8
EndSplineSet
EndChar

StartChar: Ebreve
Encoding: 276 276 27
Width: 597
Flags: MW
HStem: -6 21G<628 628> 0 118<181 602 602 605 165 612 181 181> 319 118<137 532 532 542 137 137> 639 118<92 512 512 522 92 92> 815 81<249.5 291 249.5 313.5>
VStem: 75 553
LayerCount: 2
Fore
SplineSet
270 815 m 0x7c
 190 815 128 859 103 923 c 1
 169 953 l 1
 187 923 227 896 272 896 c 0
 310 896 339 919 348 947 c 1
 416 929 l 1
 410 865 357 815 270 815 c 0x7c
539 631 m 2
 537 635 528 639 522 639 c 2
 92 639 l 1
 75 757 l 1
 512 757 l 2
 518 757 523 754 523 757 c 2
 539 631 l 2
559 311 m 2
 556 314 550 319 542 319 c 2
 137 319 l 1
 120 437 l 1
 532 437 l 2
 539 437 543 434 545 437 c 2
 559 311 l 2
628 -6 m 2xbc
 627 -3 618 0 612 0 c 2
 181 0 l 1
 165 118 l 1
 602 118 l 2
 608 118 612 116 613 119 c 2x7c
 628 -6 l 2xbc
EndSplineSet
EndChar

StartChar: Ecaron
Encoding: 282 282 28
Width: 597
Flags: MW
HStem: -6 21G<628 628> 0 118<181 602 602 605 165 612 181 181> 319 118<137 532 532 542 137 137> 639 118<92 512 512 522 92 92>
VStem: 75 553
LayerCount: 2
Fore
SplineSet
231 821 m 1x78
 95 965 l 1
 152 1005 l 1
 267 901 l 1
 353 1005 l 1
 416 965 l 1
 320 821 l 1
 231 821 l 1x78
539 631 m 2
 537 635 528 639 522 639 c 2
 92 639 l 1
 75 757 l 1
 512 757 l 2
 518 757 523 754 523 757 c 2
 539 631 l 2
559 311 m 2
 556 314 550 319 542 319 c 2
 137 319 l 1
 120 437 l 1
 532 437 l 2
 539 437 543 434 545 437 c 2
 559 311 l 2
628 -6 m 2xb8
 627 -3 618 0 612 0 c 2
 181 0 l 1
 165 118 l 1
 602 118 l 2
 608 118 612 116 613 119 c 2x78
 628 -6 l 2xb8
EndSplineSet
EndChar

StartChar: Ecircumflex
Encoding: 202 202 29
Width: 597
Flags: MW
HStem: -6 21G<628 628> 0 118<181 602 602 605 165 612 181 181> 319 118<137 532 532 542 137 137> 639 118<92 512 512 522 92 92>
VStem: 75 553
LayerCount: 2
Fore
SplineSet
176 810 m 1x78
 112 850 l 1
 209 994 l 1
 298 994 l 1
 433 850 l 1
 377 810 l 1
 261 914 l 1
 176 810 l 1x78
539 631 m 2
 537 635 528 639 522 639 c 2
 92 639 l 1
 75 757 l 1
 512 757 l 2
 518 757 523 754 523 757 c 2
 539 631 l 2
559 311 m 2
 556 314 550 319 542 319 c 2
 137 319 l 1
 120 437 l 1
 532 437 l 2
 539 437 543 434 545 437 c 2
 559 311 l 2
628 -6 m 2xb8
 627 -3 618 0 612 0 c 2
 181 0 l 1
 165 118 l 1
 602 118 l 2
 608 118 612 116 613 119 c 2x78
 628 -6 l 2xb8
EndSplineSet
EndChar

StartChar: Edieresis
Encoding: 203 203 30
Width: 597
Flags: MW
HStem: -6 21G<628 628> 0 118<181 602 602 605 165 612 181 181> 319 118<137 532 532 542 137 137> 639 118<92 512 512 522 92 92> 840 119<158.5 185 151.5 192 358.5 385>
VStem: 75 553 113 118 314 116
LayerCount: 2
Fore
SplineSet
174 840 m 0xbb
 143 840 117 862 113 892 c 0
 108 929 133 959 170 959 c 0
 200 959 227 937 231 906 c 0
 236 870 210 840 174 840 c 0xbb
374 840 m 0
 343 840 318 862 314 892 c 0
 309 929 333 959 370 959 c 0
 400 959 426 937 430 906 c 0
 435 870 410 840 374 840 c 0
539 631 m 2
 537 635 528 639 522 639 c 2
 92 639 l 1
 75 757 l 1
 512 757 l 2
 518 757 523 754 523 757 c 2
 539 631 l 2
559 311 m 2
 556 314 550 319 542 319 c 2
 137 319 l 1
 120 437 l 1
 532 437 l 2
 539 437 543 434 545 437 c 2
 559 311 l 2
628 -6 m 2
 627 -3 618 0 612 0 c 2
 181 0 l 1
 165 118 l 1
 602 118 l 2
 608 118 612 116 613 119 c 2x74
 628 -6 l 2
EndSplineSet
EndChar

StartChar: Edotaccent
Encoding: 278 278 31
Width: 597
Flags: MW
HStem: -6 21G<628 628> 0 118<181 602 602 605 165 612 181 181> 319 118<137 532 532 542 137 137> 639 118<92 512 512 522 92 92> 839 143<255.5 285 245.5 295>
VStem: 75 553 200 140
LayerCount: 2
Fore
SplineSet
274 839 m 0xba
 237 839 204 867 200 903 c 0
 194 945 224 982 267 982 c 0
 303 982 336 953 340 917 c 0
 346 875 316 839 274 839 c 0xba
539 631 m 2
 537 635 528 639 522 639 c 2
 92 639 l 1
 75 757 l 1
 512 757 l 2
 518 757 523 754 523 757 c 2
 539 631 l 2
559 311 m 2
 556 314 550 319 542 319 c 2
 137 319 l 1
 120 437 l 1
 532 437 l 2
 539 437 543 434 545 437 c 2
 559 311 l 2
628 -6 m 2
 627 -3 618 0 612 0 c 2
 181 0 l 1
 165 118 l 1
 602 118 l 2
 608 118 612 116 613 119 c 2x74
 628 -6 l 2
EndSplineSet
EndChar

StartChar: Egrave
Encoding: 200 200 32
Width: 597
Flags: MW
HStem: -6 21G<628 628> 0 118<181 602 602 605 165 612 181 181> 319 118<137 532 532 542 137 137> 639 118<92 512 512 522 92 92>
VStem: 75 553
LayerCount: 2
Fore
SplineSet
252 826 m 1x78
 127 939 l 1
 209 1005 l 1
 359 826 l 1
 252 826 l 1x78
539 631 m 2
 537 635 528 639 522 639 c 2
 92 639 l 1
 75 757 l 1
 512 757 l 2
 518 757 523 754 523 757 c 2
 539 631 l 2
559 311 m 2
 556 314 550 319 542 319 c 2
 137 319 l 1
 120 437 l 1
 532 437 l 2
 539 437 543 434 545 437 c 2
 559 311 l 2
628 -6 m 2xb8
 627 -3 618 0 612 0 c 2
 181 0 l 1
 165 118 l 1
 602 118 l 2
 608 118 612 116 613 119 c 2x78
 628 -6 l 2xb8
EndSplineSet
EndChar

StartChar: Emacron
Encoding: 274 274 33
Width: 597
Flags: MW
HStem: -6 21G<628 628> 0 118<181 602 602 605 165 612 181 181> 319 118<137 532 532 542 137 137> 639 118<92 512 512 522 92 92> 842 68
VStem: 75 553
LayerCount: 2
Fore
SplineSet
98 838 m 1x7c
 98 861 94 883 88 906 c 1
 428 914 l 1
 428 891 432 869 438 846 c 1
 98 838 l 1x7c
539 631 m 2
 537 635 528 639 522 639 c 2
 92 639 l 1
 75 757 l 1
 512 757 l 2
 518 757 523 754 523 757 c 2
 539 631 l 2
559 311 m 2
 556 314 550 319 542 319 c 2
 137 319 l 1
 120 437 l 1
 532 437 l 2
 539 437 543 434 545 437 c 2
 559 311 l 2
628 -6 m 2xbc
 627 -3 618 0 612 0 c 2
 181 0 l 1
 165 118 l 1
 602 118 l 2
 608 118 612 116 613 119 c 2x7c
 628 -6 l 2xbc
EndSplineSet
EndChar

StartChar: Eogonek
Encoding: 280 280 34
Width: 597
Flags: MW
HStem: -165 44<593.5 604> 0 118<181 576 181 181 589 589 589 602 602 605 165 612> 319 118<137 532 532 542 137 137> 639 118<92 512 512 522 92 92>
VStem: 515 39
LayerCount: 2
Fore
SplineSet
539 631 m 2
 537 635 528 639 522 639 c 2
 92 639 l 1
 75 757 l 1
 512 757 l 2
 518 757 523 754 523 757 c 2
 539 631 l 2
559 311 m 2
 556 314 550 319 542 319 c 2
 137 319 l 1
 120 437 l 1
 532 437 l 2
 539 437 543 434 545 437 c 2
 559 311 l 2
626 -114 m 1
 637 -147 l 1
 631 -155 615 -165 593 -165 c 0
 554 -165 521 -141 515 -100 c 0
 508 -50 540 -14 560 -2 c 1
 576 0 l 1
 181 0 l 1
 165 118 l 1
 602 118 l 2
 608 118 612 116 613 119 c 2
 628 -6 l 2
 627 -3 618 0 612 0 c 2
 589 0 l 1
 568 -13 550 -41 554 -72 c 0
 559 -101 581 -121 606 -121 c 0
 614 -121 622 -117 626 -114 c 1
EndSplineSet
EndChar

StartChar: F
Encoding: 70 70 35
Width: 607
Flags: MW
HStem: -1 21G<185 185> 320 117<269 547 547 550.5 125 557 269 269> 639 118<97 527 527 537 97 97>
VStem: 80 493<312 757>
LayerCount: 2
Fore
SplineSet
553 631 m 2
 551 635 543 639 537 639 c 2
 97 639 l 1
 80 757 l 1
 527 757 l 2
 533 757 537 754 539 757 c 2
 553 631 l 2
185 -1 m 2
 189 0 186 1 185 10 c 2
 125 437 l 1
 547 437 l 2
 554 437 558 435 560 438 c 2
 573 312 l 2
 571 314 565 320 557 320 c 2
 269 320 l 1
 312 18 l 2
 313 9 318 2 321 1 c 2
 185 -1 l 2
EndSplineSet
EndChar

StartChar: G
Encoding: 71 71 36
Width: 752
Flags: MW
HStem: -14 117<514 555.5 504 604.5> 330 112<468 480 468 630> 652 118<377.5 447.5 322 454> 743 20G<513 513>
VStem: 110 132 642 121
LayerCount: 2
Fore
SplineSet
289 59 m 1xec
 197 126 134 231 115 366 c 0
 81 606 210 770 434 770 c 0xec
 461 770 490 768 513 763 c 1xdc
 524 640 l 1
 499 647 471 652 437 652 c 0
 318 652 220 562 246 377 c 2
 289 59 l 1xec
514 -14 m 1
 504 103 l 1
 607 103 652 170 642 247 c 2
 630 330 l 1
 480 330 l 2
 472 330 470 332 468 329 c 2
 456 449 l 2
 458 447 465 442 471 442 c 2
 733 443 l 2
 730 442 734 440 734 434 c 2
 760 250 l 2
 780 109 695 -14 514 -14 c 1
EndSplineSet
EndChar

StartChar: Gbreve
Encoding: 286 286 37
Width: 752
Flags: MW
HStem: -14 117<514 555.5 504 604.5> 330 112<468 480 468 630> 652 118<377.5 447.5 322 454> 743 20G<513 513> 815 81<378.5 420 378.5 442.5>
VStem: 110 132 642 121
LayerCount: 2
Fore
SplineSet
399 815 m 0xee
 319 815 257 859 232 923 c 1
 298 953 l 1
 316 923 356 896 401 896 c 0
 439 896 468 919 477 947 c 1
 545 929 l 1
 539 865 486 815 399 815 c 0xee
289 59 m 1
 197 126 134 231 115 366 c 0
 81 606 210 770 434 770 c 0xee
 461 770 490 768 513 763 c 1xde
 524 640 l 1
 499 647 471 652 437 652 c 0
 318 652 220 562 246 377 c 2
 289 59 l 1
514 -14 m 1
 504 103 l 1
 607 103 652 170 642 247 c 2
 630 330 l 1
 480 330 l 2
 472 330 470 332 468 329 c 2
 456 449 l 2
 458 447 465 442 471 442 c 2
 733 443 l 2
 730 442 734 440 734 434 c 2
 760 250 l 2
 780 109 695 -14 514 -14 c 1
EndSplineSet
EndChar

StartChar: Gcircumflex
Encoding: 284 284 38
Width: 752
Flags: MW
HStem: -14 117<514 555.5 504 604.5> 330 112<468 480 468 630> 652 118<377.5 447.5 322 454> 743 20G<513 513>
VStem: 110 132 642 121
LayerCount: 2
Fore
SplineSet
305 810 m 1xec
 241 850 l 1
 338 994 l 1
 427 994 l 1
 562 850 l 1
 506 810 l 1
 390 914 l 1
 305 810 l 1xec
289 59 m 1
 197 126 134 231 115 366 c 0
 81 606 210 770 434 770 c 0xec
 461 770 490 768 513 763 c 1xdc
 524 640 l 1
 499 647 471 652 437 652 c 0
 318 652 220 562 246 377 c 2
 289 59 l 1
514 -14 m 1
 504 103 l 1
 607 103 652 170 642 247 c 2
 630 330 l 1
 480 330 l 2
 472 330 470 332 468 329 c 2
 456 449 l 2
 458 447 465 442 471 442 c 2
 733 443 l 2
 730 442 734 440 734 434 c 2
 760 250 l 2
 780 109 695 -14 514 -14 c 1
EndSplineSet
EndChar

StartChar: uni0122
Encoding: 290 290 39
Width: 752
Flags: MW
HStem: -14 117<514 555.5 504 604.5> 330 112<468 480 468 630> 652 118<377.5 447.5 322 454> 743 20G<513 513>
VStem: 110 132 477 99 642 121
LayerCount: 2
Fore
SplineSet
289 59 m 1xea
 197 126 134 231 115 366 c 0
 81 606 210 770 434 770 c 0xea
 461 770 490 768 513 763 c 1xda
 524 640 l 1
 499 647 471 652 437 652 c 0
 318 652 220 562 246 377 c 2
 289 59 l 1xea
514 -14 m 1
 504 103 l 1
 607 103 652 170 642 247 c 2
 630 330 l 1
 480 330 l 2
 472 330 470 332 468 329 c 2
 456 449 l 2
 458 447 465 442 471 442 c 2
 733 443 l 2
 730 442 734 440 734 434 c 2
 760 250 l 2
 780 109 695 -14 514 -14 c 1
429 -317 m 1xee
 459 -277 485 -208 477 -156 c 0
 473 -127 453 -105 428 -89 c 1
 515 -55 l 1
 529 -58 569 -77 576 -125 c 0
 587 -201 503 -296 483 -312 c 1
 429 -317 l 1xee
EndSplineSet
EndChar

StartChar: Gdotaccent
Encoding: 288 288 40
Width: 752
Flags: MW
HStem: -14 117<514 555.5 504 604.5> 330 112<468 480 468 630> 652 118<377.5 447.5 322 454> 743 20G<513 513> 839 143<383.5 413 373.5 423>
VStem: 110 132 328 140 642 121
LayerCount: 2
Fore
SplineSet
402 839 m 0xef
 365 839 332 867 328 903 c 0
 322 945 352 982 395 982 c 0
 431 982 464 953 468 917 c 0
 474 875 444 839 402 839 c 0xef
289 59 m 1
 197 126 134 231 115 366 c 0
 81 606 210 770 434 770 c 0xef
 461 770 490 768 513 763 c 1xdf
 524 640 l 1
 499 647 471 652 437 652 c 0
 318 652 220 562 246 377 c 2
 289 59 l 1
514 -14 m 1
 504 103 l 1
 607 103 652 170 642 247 c 2
 630 330 l 1
 480 330 l 2
 472 330 470 332 468 329 c 2
 456 449 l 2
 458 447 465 442 471 442 c 2
 733 443 l 2
 730 442 734 440 734 434 c 2
 760 250 l 2
 780 109 695 -14 514 -14 c 1
EndSplineSet
EndChar

StartChar: H
Encoding: 72 72 41
Width: 692
Flags: MW
HStem: -1 119<186 186> 0 118 319 118<142 531 253 531 253 676>
VStem: 73 653
LayerCount: 2
Fore
SplineSet
142 319 m 1x70
 82 739 l 2
 81 746 77 752 73 755 c 2
 209 760 l 2
 207 757 208 754 209 747 c 2
 253 437 l 1
 531 437 l 1
 488 739 l 2
 487 746 482 751 479 754 c 2
 615 760 l 2
 613 757 614 754 615 747 c 2
 676 319 l 1
 142 319 l 1x70
186 -1 m 2xb0
 189 0 186 2 185 10 c 2xb0
 170 118 l 1
 298 118 l 1
 312 18 l 2x70
 313 10 318 3 320 2 c 2
 186 -1 l 2xb0
592 -2 m 2x70
 593 -1 592 2 591 10 c 2
 576 118 l 1
 704 118 l 1
 718 18 l 2
 719 9 724 0 726 0 c 2
 592 -2 l 2x70
EndSplineSet
EndChar

StartChar: Hbar
Encoding: 294 294 42
Width: 725
Flags: MW
HStem: -1 119<200 200> 0 118 319 118<267 546 267 691 156 546> 548 90<111 123 251 251 251 518>
VStem: 52 689<0 634>
LayerCount: 2
Fore
SplineSet
65 544 m 1x78
 64 574 59 604 52 634 c 1
 111 638 l 1
 96 739 l 2
 95 746 91 752 87 755 c 2
 223 760 l 2
 221 757 222 754 223 747 c 2
 239 638 l 1
 518 638 l 1
 503 739 l 2
 502 746 497 751 494 754 c 2
 630 760 l 2
 628 757 629 754 630 747 c 2
 646 638 l 1
 702 642 l 1
 703 612 708 582 715 552 c 1
 658 548 l 1
 691 319 l 1
 156 319 l 1
 123 548 l 1
 65 544 l 1x78
267 437 m 1
 546 437 l 1
 530 548 l 1
 251 548 l 1
 267 437 l 1
200 -1 m 2xb8
 203 0 200 2 199 10 c 2xb8
 184 118 l 1
 312 118 l 1
 326 18 l 2x78
 327 10 332 3 334 2 c 2
 200 -1 l 2xb8
607 -2 m 2x78
 608 -1 607 2 606 10 c 2
 591 118 l 1
 719 118 l 1
 733 18 l 2
 734 9 739 0 741 0 c 2
 607 -2 l 2x78
EndSplineSet
EndChar

StartChar: Hcircumflex
Encoding: 292 292 43
Width: 692
Flags: MW
HStem: -1 119<186 186> 0 118 319 118<142 531 253 531 253 676>
VStem: 73 653
LayerCount: 2
Fore
SplineSet
241 810 m 1xb0
 177 850 l 1
 274 994 l 1xb0
 363 994 l 1
 498 850 l 1
 442 810 l 1x70
 326 914 l 1
 241 810 l 1xb0
142 319 m 1x70
 82 739 l 2
 81 746 77 752 73 755 c 2
 209 760 l 2
 207 757 208 754 209 747 c 2
 253 437 l 1
 531 437 l 1
 488 739 l 2
 487 746 482 751 479 754 c 2
 615 760 l 2
 613 757 614 754 615 747 c 2
 676 319 l 1
 142 319 l 1x70
186 -1 m 2
 189 0 186 2 185 10 c 2
 170 118 l 1
 298 118 l 1
 312 18 l 2
 313 10 318 3 320 2 c 2
 186 -1 l 2
592 -2 m 2
 593 -1 592 2 591 10 c 2
 576 118 l 1
 704 118 l 1
 718 18 l 2
 719 9 724 0 726 0 c 2
 592 -2 l 2
EndSplineSet
EndChar

StartChar: I
Encoding: 73 73 44
Width: 487
Flags: MW
HStem: 0 118<172.5 177 177 270 398 507 507 517> 639 118<82.5 87 87 197 325 325 325 417 417 427>
VStem: 61 472
LayerCount: 2
Fore
SplineSet
210 541 m 1
 197 639 l 1
 87 639 l 2
 78 639 76 641 76 637 c 2
 61 762 l 2
 62 760 68 757 77 757 c 2
 417 757 l 2
 423 757 428 754 428 757 c 2
 443 632 l 2
 440 635 434 639 427 639 c 2
 325 639 l 1
 338 541 l 1
 210 541 l 1
166 -2 m 2
 151 123 l 2
 152 121 158 118 167 118 c 2
 270 118 l 1
 242 319 l 1
 370 319 l 1
 398 118 l 1
 507 118 l 2
 513 118 517 115 518 118 c 2
 533 -7 l 2
 530 -4 524 0 517 0 c 2
 177 0 l 2
 168 0 166 2 166 -2 c 2
EndSplineSet
EndChar

StartChar: IJ
Encoding: 306 306 45
Width: 981
Flags: MW
HStem: -14 117<726 766> 0 118<172.5 177 177 270 398 507 507 517> 639 118<82.5 87 87 197 325 325 325 417 417 427>
VStem: 61 922
LayerCount: 2
Fore
SplineSet
210 541 m 1x70
 197 639 l 1
 87 639 l 2
 78 639 76 641 76 637 c 2
 61 762 l 2
 62 760 68 757 77 757 c 2
 417 757 l 2
 423 757 428 754 428 757 c 2
 443 632 l 2
 440 635 434 639 427 639 c 2
 325 639 l 1
 338 541 l 1
 210 541 l 1x70
881 6 m 1
 781 739 l 2
 780 746 776 751 773 754 c 2
 909 760 l 2
 907 757 908 754 909 747 c 2
 978 260 l 2
 999 111 952 37 881 6 c 1
166 -2 m 2
 151 123 l 2
 152 121 158 118 167 118 c 2
 270 118 l 1
 242 319 l 1
 370 319 l 1
 398 118 l 1
 507 118 l 2
 513 118 517 115 518 118 c 2
 533 -7 l 2
 530 -4 524 0 517 0 c 2
 177 0 l 2
 168 0 166 2 166 -2 c 2
766 -14 m 1
 682 -13 626 19 606 39 c 1
 590 180 l 1
 636 129 696 103 756 103 c 1xb0
 766 -14 l 1
EndSplineSet
EndChar

StartChar: Iacute
Encoding: 205 205 46
Width: 487
Flags: MW
HStem: 0 118<172.5 177 177 270 398 507 507 517> 639 118<82.5 87 87 197 325 325 325 417 417 427>
VStem: 61 472
LayerCount: 2
Fore
SplineSet
187 826 m 1
 287 1005 l 1
 383 939 l 1
 288 826 l 1
 187 826 l 1
210 541 m 1
 197 639 l 1
 87 639 l 2
 78 639 76 641 76 637 c 2
 61 762 l 2
 62 760 68 757 77 757 c 2
 417 757 l 2
 423 757 428 754 428 757 c 2
 443 632 l 2
 440 635 434 639 427 639 c 2
 325 639 l 1
 338 541 l 1
 210 541 l 1
166 -2 m 2
 151 123 l 2
 152 121 158 118 167 118 c 2
 270 118 l 1
 242 319 l 1
 370 319 l 1
 398 118 l 1
 507 118 l 2
 513 118 517 115 518 118 c 2
 533 -7 l 2
 530 -4 524 0 517 0 c 2
 177 0 l 2
 168 0 166 2 166 -2 c 2
EndSplineSet
EndChar

StartChar: Ibreve
Encoding: 300 300 47
Width: 499
Flags: MW
HStem: 0 118<172.5 177 177 270 398 507 507 517> 639 118<82.5 87 87 197 325 325 325 417 417 427> 815 81<247.5 289 247.5 311.5>
VStem: 61 472
LayerCount: 2
Fore
SplineSet
268 815 m 0
 188 815 126 859 101 923 c 1
 167 953 l 1
 185 923 225 896 270 896 c 0
 308 896 337 919 346 947 c 1
 414 929 l 1
 408 865 355 815 268 815 c 0
210 541 m 1
 197 639 l 1
 87 639 l 2
 78 639 76 641 76 637 c 2
 61 762 l 2
 62 760 68 757 77 757 c 2
 417 757 l 2
 423 757 428 754 428 757 c 2
 443 632 l 2
 440 635 434 639 427 639 c 2
 325 639 l 1
 338 541 l 1
 210 541 l 1
166 -2 m 2
 151 123 l 2
 152 121 158 118 167 118 c 2
 270 118 l 1
 242 319 l 1
 370 319 l 1
 398 118 l 1
 507 118 l 2
 513 118 517 115 518 118 c 2
 533 -7 l 2
 530 -4 524 0 517 0 c 2
 177 0 l 2
 168 0 166 2 166 -2 c 2
EndSplineSet
EndChar

StartChar: Icircumflex
Encoding: 206 206 48
Width: 504
Flags: MW
HStem: 0 118<172.5 177 177 270 398 507 507 517> 639 118<82.5 87 87 197 325 325 325 417 417 427>
VStem: 61 472
LayerCount: 2
Fore
SplineSet
174 810 m 1
 110 850 l 1
 207 994 l 1
 296 994 l 1
 431 850 l 1
 375 810 l 1
 259 914 l 1
 174 810 l 1
210 541 m 1
 197 639 l 1
 87 639 l 2
 78 639 76 641 76 637 c 2
 61 762 l 2
 62 760 68 757 77 757 c 2
 417 757 l 2
 423 757 428 754 428 757 c 2
 443 632 l 2
 440 635 434 639 427 639 c 2
 325 639 l 1
 338 541 l 1
 210 541 l 1
166 -2 m 2
 151 123 l 2
 152 121 158 118 167 118 c 2
 270 118 l 1
 242 319 l 1
 370 319 l 1
 398 118 l 1
 507 118 l 2
 513 118 517 115 518 118 c 2
 533 -7 l 2
 530 -4 524 0 517 0 c 2
 177 0 l 2
 168 0 166 2 166 -2 c 2
EndSplineSet
EndChar

StartChar: Idieresis
Encoding: 207 207 49
Width: 509
Flags: MW
HStem: 0 118<172.5 177 177 270 398 507 507 517> 639 118<82.5 87 87 197 325 325 325 417 417 427> 840 119<156.5 183 149.5 190 356.5 383>
VStem: 61 472 111 118 312 116
LayerCount: 2
Fore
SplineSet
172 840 m 0xec
 141 840 115 862 111 892 c 0
 106 929 131 959 168 959 c 0
 198 959 225 937 229 906 c 0
 234 870 208 840 172 840 c 0xec
372 840 m 0
 341 840 316 862 312 892 c 0
 307 929 331 959 368 959 c 0
 398 959 424 937 428 906 c 0
 433 870 408 840 372 840 c 0
210 541 m 1
 197 639 l 1
 87 639 l 2
 78 639 76 641 76 637 c 2
 61 762 l 2
 62 760 68 757 77 757 c 2
 417 757 l 2
 423 757 428 754 428 757 c 2
 443 632 l 2
 440 635 434 639 427 639 c 2
 325 639 l 1
 338 541 l 1
 210 541 l 1
166 -2 m 2
 151 123 l 2
 152 121 158 118 167 118 c 2
 270 118 l 1
 242 319 l 1
 370 319 l 1
 398 118 l 1
 507 118 l 2
 513 118 517 115 518 118 c 2
 533 -7 l 2
 530 -4 524 0 517 0 c 2
 177 0 l 2
 168 0 166 2 166 -2 c 2
EndSplineSet
EndChar

StartChar: Idotaccent
Encoding: 304 304 50
Width: 487
Flags: MW
HStem: 0 118<172.5 177 177 270 398 507 507 517> 639 118<82.5 87 87 197 325 325 325 417 417 427> 839 143<254.5 284 244.5 294>
VStem: 61 472 199 140
LayerCount: 2
Fore
SplineSet
273 839 m 0xe8
 236 839 203 867 199 903 c 0
 193 945 223 982 266 982 c 0
 302 982 335 953 339 917 c 0
 345 875 315 839 273 839 c 0xe8
210 541 m 1
 197 639 l 1
 87 639 l 2
 78 639 76 641 76 637 c 2
 61 762 l 2
 62 760 68 757 77 757 c 2
 417 757 l 2
 423 757 428 754 428 757 c 2
 443 632 l 2
 440 635 434 639 427 639 c 2
 325 639 l 1
 338 541 l 1
 210 541 l 1
166 -2 m 2
 151 123 l 2
 152 121 158 118 167 118 c 2
 270 118 l 1
 242 319 l 1
 370 319 l 1
 398 118 l 1
 507 118 l 2
 513 118 517 115 518 118 c 2
 533 -7 l 2
 530 -4 524 0 517 0 c 2
 177 0 l 2
 168 0 166 2 166 -2 c 2
EndSplineSet
EndChar

StartChar: Igrave
Encoding: 204 204 51
Width: 487
Flags: MW
HStem: 0 118<172.5 177 177 270 398 507 507 517> 639 118<82.5 87 87 197 325 325 325 417 417 427>
VStem: 61 472
LayerCount: 2
Fore
SplineSet
242 826 m 1
 117 939 l 1
 199 1005 l 1
 349 826 l 1
 242 826 l 1
210 541 m 1
 197 639 l 1
 87 639 l 2
 78 639 76 641 76 637 c 2
 61 762 l 2
 62 760 68 757 77 757 c 2
 417 757 l 2
 423 757 428 754 428 757 c 2
 443 632 l 2
 440 635 434 639 427 639 c 2
 325 639 l 1
 338 541 l 1
 210 541 l 1
166 -2 m 2
 151 123 l 2
 152 121 158 118 167 118 c 2
 270 118 l 1
 242 319 l 1
 370 319 l 1
 398 118 l 1
 507 118 l 2
 513 118 517 115 518 118 c 2
 533 -7 l 2
 530 -4 524 0 517 0 c 2
 177 0 l 2
 168 0 166 2 166 -2 c 2
EndSplineSet
EndChar

StartChar: Imacron
Encoding: 298 298 52
Width: 509
Flags: MW
HStem: 0 118<172.5 177 177 270 398 507 507 517> 639 118<82.5 87 87 197 325 325 325 417 417 427> 842 68
VStem: 61 472
LayerCount: 2
Fore
SplineSet
97 838 m 1
 97 861 93 883 87 906 c 1
 427 914 l 1
 427 891 431 869 437 846 c 1
 97 838 l 1
210 541 m 1
 197 639 l 1
 87 639 l 2
 78 639 76 641 76 637 c 2
 61 762 l 2
 62 760 68 757 77 757 c 2
 417 757 l 2
 423 757 428 754 428 757 c 2
 443 632 l 2
 440 635 434 639 427 639 c 2
 325 639 l 1
 338 541 l 1
 210 541 l 1
166 -2 m 2
 151 123 l 2
 152 121 158 118 167 118 c 2
 270 118 l 1
 242 319 l 1
 370 319 l 1
 398 118 l 1
 507 118 l 2
 513 118 517 115 518 118 c 2
 533 -7 l 2
 530 -4 524 0 517 0 c 2
 177 0 l 2
 168 0 166 2 166 -2 c 2
EndSplineSet
EndChar

StartChar: Iogonek
Encoding: 302 302 53
Width: 487
Flags: MW
HStem: -191 77<440 450> 0 118<172.5 177 177 270 398 411 435 507 507 517 435 435> 639 118<82.5 87 87 197 325 325 325 417 417 427>
VStem: 61 472 337 64
LayerCount: 2
Fore
SplineSet
210 541 m 1x70
 197 639 l 1
 87 639 l 2
 78 639 76 641 76 637 c 2
 61 762 l 2
 62 760 68 757 77 757 c 2
 417 757 l 2
 423 757 428 754 428 757 c 2
 443 632 l 2
 440 635 434 639 427 639 c 2
 325 639 l 1
 338 541 l 1
 210 541 l 1x70
435 0 m 1xe8
 413 -15 397 -41 401 -70 c 0
 405 -97 428 -114 452 -114 c 0
 460 -114 469 -112 472 -109 c 2
 494 -168 l 1
 487 -178 463 -191 437 -191 c 0
 389 -191 344 -161 337 -108 c 0
 329 -55 358 -18 383 -2 c 1
 411 0 l 1
 177 0 l 2
 168 0 166 2 166 -2 c 2
 151 123 l 2
 152 121 158 118 167 118 c 2
 270 118 l 1
 242 319 l 1
 370 319 l 1
 398 118 l 1
 507 118 l 2
 513 118 517 115 518 118 c 2
 533 -7 l 2
 530 -4 524 0 517 0 c 2
 435 0 l 1xe8
EndSplineSet
EndChar

StartChar: Itilde
Encoding: 296 296 54
Width: 523
Flags: MW
HStem: 0 118<172.5 177 177 270 398 507 507 517> 639 118<82.5 87 87 197 325 325 325 417 417 427> 837 86<326 366.5 326 372> 877 87<184.5 229>
VStem: 61 472
LayerCount: 2
Fore
SplineSet
350 837 m 0xe8
 299 837 256 877 202 877 c 0
 167 877 138 864 124 842 c 1
 90 901 l 1
 117 935 154 964 202 964 c 0xd8
 261 964 301 923 351 923 c 0
 382 923 404 931 414 948 c 1
 443 885 l 1
 426 856 394 837 350 837 c 0xe8
210 541 m 1
 197 639 l 1
 87 639 l 2
 78 639 76 641 76 637 c 2
 61 762 l 2
 62 760 68 757 77 757 c 2
 417 757 l 2
 423 757 428 754 428 757 c 2
 443 632 l 2
 440 635 434 639 427 639 c 2
 325 639 l 1
 338 541 l 1
 210 541 l 1
166 -2 m 2
 151 123 l 2
 152 121 158 118 167 118 c 2
 270 118 l 1
 242 319 l 1
 370 319 l 1
 398 118 l 1
 507 118 l 2
 513 118 517 115 518 118 c 2
 533 -7 l 2
 530 -4 524 0 517 0 c 2
 177 0 l 2
 168 0 166 2 166 -2 c 2
EndSplineSet
EndChar

StartChar: J
Encoding: 74 74 55
Width: 494
Flags: MW
HStem: -14 117<239 279>
VStem: 103 393
LayerCount: 2
Fore
SplineSet
394 6 m 1
 294 739 l 2
 293 746 289 751 286 754 c 2
 422 760 l 2
 420 757 421 754 422 747 c 2
 491 260 l 2
 512 111 465 37 394 6 c 1
279 -14 m 1
 195 -13 139 19 119 39 c 1
 103 180 l 1
 149 129 209 103 269 103 c 1
 279 -14 l 1
EndSplineSet
EndChar

StartChar: Jcircumflex
Encoding: 308 308 56
Width: 500
Flags: MW
HStem: -14 117<239 279>
VStem: 103 394
LayerCount: 2
Fore
SplineSet
240 810 m 1
 176 850 l 1
 273 994 l 1
 362 994 l 1
 497 850 l 1
 441 810 l 1
 325 914 l 1
 240 810 l 1
394 6 m 1
 294 739 l 2
 293 746 289 751 286 754 c 2
 422 760 l 2
 420 757 421 754 422 747 c 2
 491 260 l 2
 512 111 465 37 394 6 c 1
279 -14 m 1
 195 -13 139 19 119 39 c 1
 103 180 l 1
 149 129 209 103 269 103 c 1
 279 -14 l 1
EndSplineSet
EndChar

StartChar: K
Encoding: 75 75 57
Width: 640
Flags: MW
HStem: -1 21G<185 185>
VStem: 97 579<118 639>
LayerCount: 2
Fore
SplineSet
185 -1 m 2
 189 0 186 1 185 10 c 2
 97 639 l 1
 225 639 l 1
 253 445 l 1
 461 757 l 1
 617 759 l 2
 613 757 608 752 603 746 c 2
 425 468 l 1
 676 118 l 1
 519 118 l 1
 343 361 l 1
 277 258 l 1
 312 18 l 2
 313 9 318 3 320 2 c 2
 185 -1 l 2
EndSplineSet
EndChar

StartChar: uni0136
Encoding: 310 310 58
Width: 640
Flags: MW
HStem: -1 21G<185 185>
VStem: 97 579<118 639> 429 99
LayerCount: 2
Fore
SplineSet
185 -1 m 2xc0
 189 0 186 1 185 10 c 2
 97 639 l 1
 225 639 l 1
 253 445 l 1
 461 757 l 1
 617 759 l 2
 613 757 608 752 603 746 c 2
 425 468 l 1
 676 118 l 1
 519 118 l 1
 343 361 l 1
 277 258 l 1
 312 18 l 2
 313 9 318 3 320 2 c 2
 185 -1 l 2xc0
381 -317 m 1xa0
 411 -277 437 -208 429 -156 c 0
 425 -127 405 -105 380 -89 c 1
 467 -55 l 1
 481 -58 521 -77 528 -125 c 0
 539 -201 455 -296 435 -312 c 1
 381 -317 l 1xa0
EndSplineSet
EndChar

StartChar: L
Encoding: 76 76 59
Width: 505
Flags: MW
HStem: -7 21G<592 592> 0 117<191 565 565 568.5 175 575 191 191>
VStem: 78 514
LayerCount: 2
Fore
SplineSet
147 319 m 1x60
 87 739 l 2
 86 746 82 752 78 755 c 2
 214 760 l 2
 212 757 213 754 214 747 c 2
 275 319 l 1
 147 319 l 1x60
592 -7 m 2xa0
 590 -3 583 0 575 0 c 2
 191 0 l 1
 175 117 l 1
 565 117 l 2
 572 117 575 115 576 118 c 2x60
 592 -7 l 2xa0
EndSplineSet
EndChar

StartChar: Lacute
Encoding: 313 313 60
Width: 505
Flags: MW
HStem: -7 21G<592 592> 0 117<191 565 565 568.5 175 575 191 191>
VStem: 76 516
LayerCount: 2
Fore
SplineSet
76 826 m 1x60
 176 1005 l 1
 272 939 l 1
 177 826 l 1
 76 826 l 1x60
147 319 m 1
 87 739 l 2
 86 746 82 752 78 755 c 2
 214 760 l 2
 212 757 213 754 214 747 c 2
 275 319 l 1
 147 319 l 1
592 -7 m 2xa0
 590 -3 583 0 575 0 c 2
 191 0 l 1
 175 117 l 1
 565 117 l 2
 572 117 575 115 576 118 c 2x60
 592 -7 l 2xa0
EndSplineSet
EndChar

StartChar: Lcaron
Encoding: 317 317 61
Width: 508
Flags: MW
HStem: -7 21G<592 592> 0 117<191 565 565 568.5 175 575 191 191> 601 183<302 302 302 381>
VStem: 298 90
LayerCount: 2
Fore
SplineSet
302 601 m 1x70
 294 784 l 1
 395 784 l 1
 381 601 l 1
 302 601 l 1x70
147 319 m 1
 87 739 l 2
 86 746 82 752 78 755 c 2
 214 760 l 2
 212 757 213 754 214 747 c 2
 275 319 l 1
 147 319 l 1
592 -7 m 2xb0
 590 -3 583 0 575 0 c 2
 191 0 l 1
 175 117 l 1
 565 117 l 2
 572 117 575 115 576 118 c 2x70
 592 -7 l 2xb0
EndSplineSet
EndChar

StartChar: uni013B
Encoding: 315 315 62
Width: 505
Flags: MW
HStem: -7 21G<592 592> 0 117<191 565 565 568.5 175 575 191 191>
VStem: 78 514 342 99
LayerCount: 2
Fore
SplineSet
147 319 m 1x60
 87 739 l 2
 86 746 82 752 78 755 c 2
 214 760 l 2
 212 757 213 754 214 747 c 2
 275 319 l 1
 147 319 l 1x60
592 -7 m 2xa0
 590 -3 583 0 575 0 c 2
 191 0 l 1
 175 117 l 1
 565 117 l 2
 572 117 575 115 576 118 c 2x60
 592 -7 l 2xa0
294 -317 m 1xa0
 324 -277 350 -208 342 -156 c 0
 338 -127 318 -105 293 -89 c 1
 380 -55 l 1
 394 -58 434 -77 441 -125 c 0
 452 -201 368 -296 348 -312 c 1x50
 294 -317 l 1xa0
EndSplineSet
EndChar

StartChar: Ldot
Encoding: 319 319 63
Width: 519
Flags: MW
HStem: -7 21G<592 592> 0 117<191 565 565 568.5 175 575 191 191> 307 141<439 474 430 485.5>
VStem: 78 514
LayerCount: 2
Fore
SplineSet
147 319 m 1x70
 87 739 l 2
 86 746 82 752 78 755 c 2
 214 760 l 2
 212 757 213 754 214 747 c 2
 275 319 l 1
 147 319 l 1x70
461 307 m 0
 417 307 390 337 385 371 c 0
 380 409 406 448 454 448 c 0
 494 448 523 417 527 385 c 0
 533 345 510 307 461 307 c 0
592 -7 m 2xb0
 590 -3 583 0 575 0 c 2
 191 0 l 1
 175 117 l 1
 565 117 l 2
 572 117 575 115 576 118 c 2x70
 592 -7 l 2xb0
EndSplineSet
EndChar

StartChar: Lslash
Encoding: 321 321 64
Width: 520
Flags: MW
HStem: -7 21G<607 607> 0 117<318 580 580 583.5 318 590 206 580>
VStem: 80 527<-7 302>
LayerCount: 2
Fore
SplineSet
607 -7 m 2xa0
 605 -3 598 0 590 0 c 2
 206 0 l 1
 172 237 l 1
 94 190 l 1
 80 302 l 1
 158 350 l 1
 102 739 l 2
 101 746 97 752 93 755 c 2
 229 760 l 2
 227 757 228 754 229 747 c 2
 276 422 l 1
 406 503 l 1
 421 389 l 1
 290 309 l 1
 318 117 l 1
 580 117 l 2
 587 117 590 115 591 118 c 2x60
 607 -7 l 2xa0
EndSplineSet
EndChar

StartChar: M
Encoding: 77 77 65
Width: 897
Flags: MW
HStem: -1 21G<190 190 790 790>
VStem: 78 847<2 755>
LayerCount: 2
Fore
SplineSet
790 -1 m 2
 793 0 791 1 790 10 c 2
 717 522 l 1
 650 319 l 1
 510 319 l 1
 680 757 l 1
 814 760 l 2
 812 757 813 754 814 747 c 2
 917 18 l 2
 918 9 923 3 925 2 c 2
 790 -1 l 2
190 -1 m 2
 194 0 191 1 190 10 c 2
 87 739 l 2
 86 746 82 752 78 755 c 2
 220 757 l 1
 510 319 l 1
 367 319 l 1
 245 522 l 1
 317 18 l 2
 318 9 323 3 325 2 c 2
 190 -1 l 2
EndSplineSet
EndChar

StartChar: N
Encoding: 78 78 66
Width: 747
Flags: MW
HStem: -1 21G<190 190> 0 21G<641 641>
VStem: 78 697
LayerCount: 2
Fore
SplineSet
641 0 m 1x60
 537 739 l 2
 536 746 531 751 528 754 c 2
 664 760 l 2
 662 757 663 754 664 747 c 2
 767 18 l 2
 768 9 773 3 775 2 c 2
 641 0 l 1x60
190 -1 m 2xa0
 194 0 191 1 190 10 c 2
 87 739 l 2
 86 746 82 752 78 755 c 2
 206 757 l 1
 537 319 l 1
 385 319 l 1
 246 511 l 1
 317 18 l 2
 318 9 323 3 325 2 c 2
 190 -1 l 2xa0
EndSplineSet
EndChar

StartChar: Nacute
Encoding: 323 323 67
Width: 747
Flags: MW
HStem: -1 21G<190 190> 0 21G<641 641>
VStem: 78 697
LayerCount: 2
Fore
SplineSet
276 826 m 1x60
 376 1005 l 1
 472 939 l 1
 377 826 l 1
 276 826 l 1x60
641 0 m 1
 537 739 l 2
 536 746 531 751 528 754 c 2
 664 760 l 2
 662 757 663 754 664 747 c 2
 767 18 l 2
 768 9 773 3 775 2 c 2
 641 0 l 1
190 -1 m 2xa0
 194 0 191 1 190 10 c 2
 87 739 l 2
 86 746 82 752 78 755 c 2
 206 757 l 1
 537 319 l 1
 385 319 l 1
 246 511 l 1
 317 18 l 2
 318 9 323 3 325 2 c 2
 190 -1 l 2xa0
EndSplineSet
EndChar

StartChar: Ncaron
Encoding: 327 327 68
Width: 747
Flags: MW
HStem: -1 21G<190 190> 0 21G<641 641>
VStem: 78 697
LayerCount: 2
Fore
SplineSet
319 821 m 1x60
 183 965 l 1
 240 1005 l 1
 355 901 l 1
 441 1005 l 1
 504 965 l 1
 408 821 l 1
 319 821 l 1x60
641 0 m 1
 537 739 l 2
 536 746 531 751 528 754 c 2
 664 760 l 2
 662 757 663 754 664 747 c 2
 767 18 l 2
 768 9 773 3 775 2 c 2
 641 0 l 1
190 -1 m 2xa0
 194 0 191 1 190 10 c 2
 87 739 l 2
 86 746 82 752 78 755 c 2
 206 757 l 1
 537 319 l 1
 385 319 l 1
 246 511 l 1
 317 18 l 2
 318 9 323 3 325 2 c 2
 190 -1 l 2xa0
EndSplineSet
EndChar

StartChar: uni0145
Encoding: 325 325 69
Width: 747
Flags: MW
HStem: -1 21G<190 190> 0 21G<641 641>
VStem: 78 697 459 99
LayerCount: 2
Fore
SplineSet
641 0 m 1x60
 537 739 l 2
 536 746 531 751 528 754 c 2
 664 760 l 2
 662 757 663 754 664 747 c 2
 767 18 l 2
 768 9 773 3 775 2 c 2
 641 0 l 1x60
190 -1 m 2x90
 194 0 191 1 190 10 c 2
 87 739 l 2
 86 746 82 752 78 755 c 2
 206 757 l 1
 537 319 l 1
 385 319 l 1
 246 511 l 1
 317 18 l 2
 318 9 323 3 325 2 c 2
 190 -1 l 2x90
411 -317 m 1
 441 -277 467 -208 459 -156 c 0
 455 -127 435 -105 410 -89 c 1
 497 -55 l 1
 511 -58 551 -77 558 -125 c 0
 569 -201 485 -296 465 -312 c 1
 411 -317 l 1
EndSplineSet
EndChar

StartChar: Eng
Encoding: 330 330 70
Width: 747
Flags: MW
HStem: -227 118<568 673> -1 21G<190 190>
VStem: 643 130
LayerCount: 2
Fore
SplineSet
527 -99 m 1
 540 -105 560 -109 576 -109 c 0
 629 -109 650 -65 643 -10 c 2
 537 739 l 2
 536 746 531 751 528 754 c 2
 664 760 l 2
 662 757 663 754 664 747 c 2
 769 4 l 2
 789 -138 724 -227 622 -227 c 0
 606 -227 586 -222 580 -217 c 2
 527 -99 l 1
190 -1 m 2
 194 0 191 1 190 10 c 2
 87 739 l 2
 86 746 82 752 78 755 c 2
 206 757 l 1
 537 319 l 1
 385 319 l 1
 246 511 l 1
 317 18 l 2
 318 9 323 3 325 2 c 2
 190 -1 l 2
EndSplineSet
EndChar

StartChar: Ntilde
Encoding: 209 209 71
Width: 747
Flags: MW
HStem: -1 21G<190 190> 0 21G<641 641> 837 86<415 455.5 415 461> 877 87<273.5 318>
VStem: 78 697
LayerCount: 2
Fore
SplineSet
439 837 m 0x68
 388 837 345 877 291 877 c 0
 256 877 227 864 213 842 c 1
 179 901 l 1
 206 935 243 964 291 964 c 0x58
 350 964 390 923 440 923 c 0
 471 923 493 931 503 948 c 1
 532 885 l 1
 515 856 483 837 439 837 c 0x68
641 0 m 1x58
 537 739 l 2
 536 746 531 751 528 754 c 2
 664 760 l 2
 662 757 663 754 664 747 c 2
 767 18 l 2
 768 9 773 3 775 2 c 2
 641 0 l 1x58
190 -1 m 2x98
 194 0 191 1 190 10 c 2
 87 739 l 2
 86 746 82 752 78 755 c 2
 206 757 l 1
 537 319 l 1
 385 319 l 1
 246 511 l 1
 317 18 l 2
 318 9 323 3 325 2 c 2
 190 -1 l 2x98
EndSplineSet
EndChar

StartChar: O
Encoding: 79 79 72
Width: 901
Flags: MW
HStem: -3 21G<450 450> 0 21G<665 665>
VStem: 110 133 765 133
LayerCount: 2
Fore
SplineSet
665 0 m 1x70
 654 125 l 1
 743 166 777 261 761 371 c 0
 746 476 679 581 577 626 c 1
 565 757 l 1
 749 709 870 551 893 385 c 0
 918 207 841 45 665 0 c 1x70
450 -3 m 1xb0
 258 42 139 198 114 371 c 0
 90 544 176 710 349 756 c 1
 361 631 l 1
 269 586 232 485 246 385 c 0
 263 268 335 166 438 126 c 1
 450 -3 l 1xb0
EndSplineSet
EndChar

StartChar: Oacute
Encoding: 211 211 73
Width: 901
Flags: MW
HStem: -3 21G<450 450> 0 21G<665 665>
VStem: 110 133 765 133
LayerCount: 2
Fore
SplineSet
358 826 m 1x70
 458 1005 l 1
 554 939 l 1
 459 826 l 1
 358 826 l 1x70
665 0 m 1
 654 125 l 1
 743 166 777 261 761 371 c 0
 746 476 679 581 577 626 c 1
 565 757 l 1
 749 709 870 551 893 385 c 0
 918 207 841 45 665 0 c 1
450 -3 m 1xb0
 258 42 139 198 114 371 c 0
 90 544 176 710 349 756 c 1
 361 631 l 1
 269 586 232 485 246 385 c 0
 263 268 335 166 438 126 c 1
 450 -3 l 1xb0
EndSplineSet
EndChar

StartChar: Obreve
Encoding: 334 334 74
Width: 901
Flags: MW
HStem: -3 21G<450 450> 0 21G<665 665> 815 81<414.5 456 414.5 478.5>
VStem: 110 133 765 133
LayerCount: 2
Fore
SplineSet
435 815 m 0x78
 355 815 293 859 268 923 c 1
 334 953 l 1
 352 923 392 896 437 896 c 0
 475 896 504 919 513 947 c 1
 581 929 l 1
 575 865 522 815 435 815 c 0x78
665 0 m 1
 654 125 l 1
 743 166 777 261 761 371 c 0
 746 476 679 581 577 626 c 1
 565 757 l 1
 749 709 870 551 893 385 c 0
 918 207 841 45 665 0 c 1
450 -3 m 1xb8
 258 42 139 198 114 371 c 0
 90 544 176 710 349 756 c 1
 361 631 l 1
 269 586 232 485 246 385 c 0
 263 268 335 166 438 126 c 1
 450 -3 l 1xb8
EndSplineSet
EndChar

StartChar: Ocircumflex
Encoding: 212 212 75
Width: 901
Flags: MW
HStem: -3 21G<450 450> 0 21G<665 665>
VStem: 110 133 765 133
LayerCount: 2
Fore
SplineSet
341 810 m 1x70
 277 850 l 1
 374 994 l 1
 463 994 l 1
 598 850 l 1
 542 810 l 1
 426 914 l 1
 341 810 l 1x70
665 0 m 1
 654 125 l 1
 743 166 777 261 761 371 c 0
 746 476 679 581 577 626 c 1
 565 757 l 1
 749 709 870 551 893 385 c 0
 918 207 841 45 665 0 c 1
450 -3 m 1xb0
 258 42 139 198 114 371 c 0
 90 544 176 710 349 756 c 1
 361 631 l 1
 269 586 232 485 246 385 c 0
 263 268 335 166 438 126 c 1
 450 -3 l 1xb0
EndSplineSet
EndChar

StartChar: Odieresis
Encoding: 214 214 76
Width: 901
Flags: MW
HStem: -3 21G<450 450> 0 21G<665 665> 840 119<321.5 348 314.5 355 521.5 548>
VStem: 110 133 276 118 477 116 765 133
LayerCount: 2
Fore
SplineSet
337 840 m 0x7e
 306 840 280 862 276 892 c 0
 271 929 296 959 333 959 c 0
 363 959 390 937 394 906 c 0
 399 870 373 840 337 840 c 0x7e
537 840 m 0
 506 840 481 862 477 892 c 0
 472 929 496 959 533 959 c 0
 563 959 589 937 593 906 c 0
 598 870 573 840 537 840 c 0
665 0 m 1
 654 125 l 1
 743 166 777 261 761 371 c 0
 746 476 679 581 577 626 c 1
 565 757 l 1
 749 709 870 551 893 385 c 0
 918 207 841 45 665 0 c 1
450 -3 m 1xbe
 258 42 139 198 114 371 c 0
 90 544 176 710 349 756 c 1
 361 631 l 1
 269 586 232 485 246 385 c 0
 263 268 335 166 438 126 c 1
 450 -3 l 1xbe
EndSplineSet
EndChar

StartChar: Ograve
Encoding: 210 210 77
Width: 901
Flags: MW
HStem: -3 21G<450 450> 0 21G<665 665>
VStem: 110 133 765 133
LayerCount: 2
Fore
SplineSet
422 826 m 1x70
 297 939 l 1
 379 1005 l 1
 529 826 l 1
 422 826 l 1x70
665 0 m 1
 654 125 l 1
 743 166 777 261 761 371 c 0
 746 476 679 581 577 626 c 1
 565 757 l 1
 749 709 870 551 893 385 c 0
 918 207 841 45 665 0 c 1
450 -3 m 1xb0
 258 42 139 198 114 371 c 0
 90 544 176 710 349 756 c 1
 361 631 l 1
 269 586 232 485 246 385 c 0
 263 268 335 166 438 126 c 1
 450 -3 l 1xb0
EndSplineSet
EndChar

StartChar: Ohungarumlaut
Encoding: 336 336 78
Width: 901
Flags: MW
HStem: -3 21G<450 450> 0 21G<665 665> 821 168<340 451 340 413 529 564 340 487>
VStem: 110 133 340 73<821 989> 765 133
LayerCount: 2
Fore
SplineSet
340 821 m 1x7c
 340 989 l 1
 451 989 l 1
 413 821 l 1
 340 821 l 1x7c
487 821 m 1
 529 989 l 1
 641 989 l 1
 564 821 l 1
 487 821 l 1
665 0 m 1
 654 125 l 1
 743 166 777 261 761 371 c 0
 746 476 679 581 577 626 c 1
 565 757 l 1
 749 709 870 551 893 385 c 0
 918 207 841 45 665 0 c 1
450 -3 m 1xbc
 258 42 139 198 114 371 c 0
 90 544 176 710 349 756 c 1
 361 631 l 1
 269 586 232 485 246 385 c 0
 263 268 335 166 438 126 c 1
 450 -3 l 1xbc
EndSplineSet
EndChar

StartChar: Omacron
Encoding: 332 332 79
Width: 901
Flags: MW
HStem: -3 21G<450 450> 0 21G<665 665> 842 68
VStem: 110 133 765 133
LayerCount: 2
Fore
SplineSet
261 838 m 1x78
 261 861 257 883 251 906 c 1
 591 914 l 1
 591 891 595 869 601 846 c 1
 261 838 l 1x78
665 0 m 1
 654 125 l 1
 743 166 777 261 761 371 c 0
 746 476 679 581 577 626 c 1
 565 757 l 1
 749 709 870 551 893 385 c 0
 918 207 841 45 665 0 c 1
450 -3 m 1xb8
 258 42 139 198 114 371 c 0
 90 544 176 710 349 756 c 1
 361 631 l 1
 269 586 232 485 246 385 c 0
 263 268 335 166 438 126 c 1
 450 -3 l 1xb8
EndSplineSet
EndChar

StartChar: Oslash
Encoding: 216 216 80
Width: 901
Flags: MW
HStem: -14 118<531 631.5 531 682> 1 21G<246 246> 652 118<380 479>
VStem: 111 132 765 133
LayerCount: 2
Fore
SplineSet
114 371 m 0xb8
 86 575 209 770 458 770 c 0
 511 770 565 760 615 741 c 1
 648 812 l 1
 756 756 l 1
 445 122 l 1
 476 111 511 104 551 104 c 0
 712 104 782 223 761 371 c 0
 758 394 753 413 747 433 c 1
 820 574 l 1
 859 516 884 450 893 385 c 0
 923 175 809 -14 555 -14 c 0
 495 -14 439 -3 387 16 c 1
 353 -55 l 1xb8
 246 1 l 1x78
 556 635 l 1
 528 645 497 652 461 652 c 0
 299 652 228 518 246 385 c 0
 250 361 255 342 259 322 c 1
 188 175 l 1
 148 235 124 302 114 371 c 0xb8
EndSplineSet
EndChar

StartChar: Oslashacute
Encoding: 510 510 81
Width: 901
Flags: MW
HStem: -14 118<531 631.5 531 682> 1 21G<246 246> 652 118<380 479>
VStem: 111 132 765 133
LayerCount: 2
Fore
SplineSet
343 826 m 1xb8
 443 1005 l 1
 539 939 l 1
 444 826 l 1
 343 826 l 1xb8
114 371 m 0
 86 575 209 770 458 770 c 0
 511 770 565 760 615 741 c 1
 648 812 l 1
 756 756 l 1
 445 122 l 1
 476 111 511 104 551 104 c 0
 712 104 782 223 761 371 c 0
 758 394 753 413 747 433 c 1
 820 574 l 1
 859 516 884 450 893 385 c 0
 923 175 809 -14 555 -14 c 0
 495 -14 439 -3 387 16 c 1
 353 -55 l 1xb8
 246 1 l 1x78
 556 635 l 1
 528 645 497 652 461 652 c 0
 299 652 228 518 246 385 c 0
 250 361 255 342 259 322 c 1
 188 175 l 1
 148 235 124 302 114 371 c 0
EndSplineSet
EndChar

StartChar: Otilde
Encoding: 213 213 82
Width: 901
Flags: MW
HStem: -3 21G<450 450> 0 21G<665 665> 837 86<493 533.5 493 539> 877 87<351.5 396>
VStem: 110 133 765 133
LayerCount: 2
Fore
SplineSet
517 837 m 0x6c
 466 837 423 877 369 877 c 0
 334 877 305 864 291 842 c 1
 257 901 l 1
 284 935 321 964 369 964 c 0x5c
 428 964 468 923 518 923 c 0
 549 923 571 931 581 948 c 1
 610 885 l 1
 593 856 561 837 517 837 c 0x6c
665 0 m 1x5c
 654 125 l 1
 743 166 777 261 761 371 c 0
 746 476 679 581 577 626 c 1
 565 757 l 1
 749 709 870 551 893 385 c 0
 918 207 841 45 665 0 c 1x5c
450 -3 m 1x9c
 258 42 139 198 114 371 c 0
 90 544 176 710 349 756 c 1
 361 631 l 1
 269 586 232 485 246 385 c 0
 263 268 335 166 438 126 c 1
 450 -3 l 1x9c
EndSplineSet
EndChar

StartChar: OE
Encoding: 338 338 83
Width: 1163
Flags: MW
HStem: -3 21G<450 450> 0 118<652 665.5 839 1168 1168 1171 652 668> 319 118<898 1098 1098 1108 898 898> 639 118<768 1078 1078 1088 768 768>
VStem: 110 133 765 133
LayerCount: 2
Fore
SplineSet
1179 119 m 2x7c
 1194 -6 l 2
 1193 -3 1184 0 1178 0 c 2
 668 0 l 1
 668 1 l 2
 667 0 666 0 665 0 c 2
 659 63 l 1
 652 118 l 1
 655 118 l 1
 654 125 l 1
 743 166 777 261 761 371 c 0
 746 476 679 581 577 626 c 1
 570 700 l 1
 562 757 l 1
 1078 757 l 2
 1084 757 1089 754 1089 757 c 2
 1105 631 l 2
 1103 635 1094 639 1088 639 c 2
 768 639 l 1
 823 582 863 511 883 437 c 1
 1098 437 l 2
 1105 437 1109 434 1111 437 c 2
 1125 311 l 2
 1122 314 1116 319 1108 319 c 2
 898 319 l 1
 897 244 878 174 839 118 c 1
 1168 118 l 2
 1174 118 1178 116 1179 119 c 2x7c
246 385 m 0
 263 268 335 166 438 126 c 1xbc
 450 -3 l 1
 258 42 139 198 114 371 c 0
 90 544 176 710 349 756 c 1
 361 631 l 1
 269 586 232 485 246 385 c 0
EndSplineSet
EndChar

StartChar: P
Encoding: 80 80 84
Width: 627
Flags: MW
HStem: -1 21G<185 185> 201 117<335.5 339 238.5 418> 649 121<232.5 310>
VStem: 83 524
LayerCount: 2
Fore
SplineSet
185 -1 m 2
 189 0 186 2 185 10 c 2
 144 324 l 1
 169 321 210 318 267 318 c 0
 411 318 500 353 482 480 c 0
 466 596 357 649 263 649 c 0
 202 649 131 644 93 639 c 1
 83 756 l 1
 97 759 185 770 250 770 c 0
 412 770 578 681 604 492 c 0
 631 304 493 201 343 201 c 0
 328 201 303 201 283 202 c 1
 312 18 l 2
 313 9 318 3 320 2 c 2
 185 -1 l 2
EndSplineSet
EndChar

StartChar: Thorn
Encoding: 222 222 85
Width: 639
Flags: MW
HStem: -1 21G<190 190> 102 122<361 410.5 354 448.5> 520 20G<240 240> 542 123<301.5 360>
VStem: 78 560
LayerCount: 2
Fore
SplineSet
190 -1 m 2
 194 0 191 1 190 10 c 2
 87 739 l 2
 86 746 82 752 78 755 c 2
 214 760 l 2
 212 757 213 754 215 747 c 2
 230 663 l 1
 253 664 281 665 315 665 c 0xd8
 463 665 610 569 635 393 c 0
 662 205 524 102 373 102 c 0
 349 102 321 103 302 104 c 1
 317 18 l 2
 318 9 323 3 325 2 c 2
 190 -1 l 2
369 224 m 0
 452 224 528 271 513 380 c 0
 497 492 405 542 315 542 c 0xd8
 288 542 262 541 240 540 c 1
 291 226 l 1
 310 226 339 224 369 224 c 0
EndSplineSet
EndChar

StartChar: Q
Encoding: 81 81 86
Width: 902
Flags: MW
HStem: -103 106<880 904> -14 118<495 559> -11 20 -11 115<597 617 495 659>
VStem: 110 133 876 12
LayerCount: 2
Fore
SplineSet
876 218 m 1x4c
 754 261 l 1
 761 296 762 333 756 371 c 0
 741 477 671 583 570 627 c 1
 558 757 l 1
 743 710 861 551 884 385 c 0
 893 324 889 268 876 218 c 1x4c
894 -103 m 0x8c
 799 -103 715 -11 603 -11 c 0
 591 -11 569 -14 549 -14 c 0
 301 -14 143 167 114 371 c 0
 90 543 171 708 342 755 c 1
 354 629 l 1
 268 583 233 483 246 385 c 0
 268 231 413 104 577 104 c 0
 657 104 711 86 761 65 c 1x4c
 812 38 849 3 911 3 c 0
 917 3 926 4 937 9 c 1x2c
 945 -94 l 1
 930 -99 914 -103 894 -103 c 0x8c
EndSplineSet
EndChar

StartChar: R
Encoding: 82 82 87
Width: 663
Flags: MW
HStem: -1 21G<185 185> 0 21G<580 580> 314 111<313 359.5 263.5 401.5> 654 116<230 313>
VStem: 82 640
LayerCount: 2
Fore
SplineSet
185 -1 m 2xb8
 188 0 185 1 184 10 c 2
 127 438 l 1
 140 435 222 425 305 425 c 0
 414 425 470 452 459 530 c 0
 446 621 366 654 260 654 c 0
 200 654 113 643 92 640 c 1
 82 757 l 1
 98 759 182 770 254 770 c 0
 433 770 558 708 581 544 c 0
 602 392 480 314 323 314 c 0
 303 314 283 316 265 318 c 1
 311 18 l 2
 312 9 317 3 319 2 c 2
 185 -1 l 2xb8
580 0 m 1x78
 475 154 l 1
 589 187 l 1
 709 17 l 2
 714 10 719 2 722 1 c 2
 580 0 l 1x78
EndSplineSet
EndChar

StartChar: Racute
Encoding: 340 340 88
Width: 663
Flags: MW
HStem: -1 21G<185 185> 0 21G<580 580> 314 111<313 359.5 263.5 401.5> 654 116<230 313>
VStem: 82 640
LayerCount: 2
Fore
SplineSet
158 826 m 1x78
 258 1005 l 1
 354 939 l 1
 259 826 l 1
 158 826 l 1x78
185 -1 m 2xb8
 188 0 185 1 184 10 c 2
 127 438 l 1
 140 435 222 425 305 425 c 0
 414 425 470 452 459 530 c 0
 446 621 366 654 260 654 c 0
 200 654 113 643 92 640 c 1
 82 757 l 1
 98 759 182 770 254 770 c 0
 433 770 558 708 581 544 c 0
 602 392 480 314 323 314 c 0
 303 314 283 316 265 318 c 1
 311 18 l 2
 312 9 317 3 319 2 c 2
 185 -1 l 2xb8
580 0 m 1x78
 475 154 l 1
 589 187 l 1
 709 17 l 2
 714 10 719 2 722 1 c 2
 580 0 l 1x78
EndSplineSet
EndChar

StartChar: Rcaron
Encoding: 344 344 89
Width: 663
Flags: MW
HStem: -1 21G<185 185> 0 21G<580 580> 314 111<313 359.5 263.5 401.5> 654 116<230 313>
VStem: 82 640
LayerCount: 2
Fore
SplineSet
222 821 m 1x78
 86 965 l 1
 143 1005 l 1
 258 901 l 1
 344 1005 l 1
 407 965 l 1
 311 821 l 1
 222 821 l 1x78
185 -1 m 2xb8
 188 0 185 1 184 10 c 2
 127 438 l 1
 140 435 222 425 305 425 c 0
 414 425 470 452 459 530 c 0
 446 621 366 654 260 654 c 0
 200 654 113 643 92 640 c 1
 82 757 l 1
 98 759 182 770 254 770 c 0
 433 770 558 708 581 544 c 0
 602 392 480 314 323 314 c 0
 303 314 283 316 265 318 c 1
 311 18 l 2
 312 9 317 3 319 2 c 2
 185 -1 l 2xb8
580 0 m 1x78
 475 154 l 1
 589 187 l 1
 709 17 l 2
 714 10 719 2 722 1 c 2
 580 0 l 1x78
EndSplineSet
EndChar

StartChar: uni0156
Encoding: 342 342 90
Width: 663
Flags: MW
HStem: -1 21G<185 185> 0 21G<580 580> 314 111<313 359.5 263.5 401.5> 654 116<230 313>
VStem: 82 640 424 99
LayerCount: 2
Fore
SplineSet
185 -1 m 2xb8
 188 0 185 1 184 10 c 2
 127 438 l 1
 140 435 222 425 305 425 c 0
 414 425 470 452 459 530 c 0
 446 621 366 654 260 654 c 0
 200 654 113 643 92 640 c 1
 82 757 l 1
 98 759 182 770 254 770 c 0
 433 770 558 708 581 544 c 0
 602 392 480 314 323 314 c 0
 303 314 283 316 265 318 c 1
 311 18 l 2
 312 9 317 3 319 2 c 2
 185 -1 l 2xb8
580 0 m 1x74
 475 154 l 1
 589 187 l 1
 709 17 l 2
 714 10 719 2 722 1 c 2
 580 0 l 1x74
376 -317 m 1
 406 -277 432 -208 424 -156 c 0
 420 -127 400 -105 375 -89 c 1
 462 -55 l 1
 476 -58 516 -77 523 -125 c 0
 534 -201 450 -296 430 -312 c 1
 376 -317 l 1
EndSplineSet
EndChar

StartChar: S
Encoding: 83 83 91
Width: 671
Flags: MW
HStem: -12 21G<363 363> 652 118<331 411>
VStem: 100 583
LayerCount: 2
Fore
SplineSet
257 362 m 1
 179 393 114 443 102 532 c 0
 81 681 184 770 367 770 c 0
 461 770 533 734 557 713 c 1
 572 575 l 1
 534 616 452 652 370 652 c 0
 292 652 222 630 232 558 c 2
 257 362 l 1
575 16 m 1
 551 212 l 2
 545 250 521 277 482 296 c 1
 469 432 l 1
 582 400 663 355 680 233 c 0
 695 124 653 51 575 16 c 1
363 -12 m 1
 248 -1 183 40 161 57 c 1
 142 217 l 1
 168 178 253 123 353 108 c 1
 363 -12 l 1
EndSplineSet
EndChar

StartChar: Sacute
Encoding: 346 346 92
Width: 671
Flags: MW
HStem: -12 21G<363 363> 652 118<331 411>
VStem: 100 583
LayerCount: 2
Fore
SplineSet
248 826 m 1
 348 1005 l 1
 444 939 l 1
 349 826 l 1
 248 826 l 1
257 362 m 1
 179 393 114 443 102 532 c 0
 81 681 184 770 367 770 c 0
 461 770 533 734 557 713 c 1
 572 575 l 1
 534 616 452 652 370 652 c 0
 292 652 222 630 232 558 c 2
 257 362 l 1
575 16 m 1
 551 212 l 2
 545 250 521 277 482 296 c 1
 469 432 l 1
 582 400 663 355 680 233 c 0
 695 124 653 51 575 16 c 1
363 -12 m 1
 248 -1 183 40 161 57 c 1
 142 217 l 1
 168 178 253 123 353 108 c 1
 363 -12 l 1
EndSplineSet
EndChar

StartChar: Scaron
Encoding: 352 352 93
Width: 671
Flags: MW
HStem: -12 21G<363 363> 652 118<331 411>
VStem: 100 583
LayerCount: 2
Fore
SplineSet
277 821 m 1
 141 965 l 1
 198 1005 l 1
 313 901 l 1
 399 1005 l 1
 462 965 l 1
 366 821 l 1
 277 821 l 1
257 362 m 1
 179 393 114 443 102 532 c 0
 81 681 184 770 367 770 c 0
 461 770 533 734 557 713 c 1
 572 575 l 1
 534 616 452 652 370 652 c 0
 292 652 222 630 232 558 c 2
 257 362 l 1
575 16 m 1
 551 212 l 2
 545 250 521 277 482 296 c 1
 469 432 l 1
 582 400 663 355 680 233 c 0
 695 124 653 51 575 16 c 1
363 -12 m 1
 248 -1 183 40 161 57 c 1
 142 217 l 1
 168 178 253 123 353 108 c 1
 363 -12 l 1
EndSplineSet
EndChar

StartChar: Scedilla
Encoding: 350 350 94
Width: 671
Flags: MW
HStem: -219 59<435 458.5 435 482> -92 53<427 493.5> -13 116<383 383>
VStem: 484 67 551 132
LayerCount: 2
Fore
SplineSet
417 648 m 1xa8
 407 767 l 1
 483 758 536 731 557 713 c 1
 572 575 l 1
 541 608 480 639 417 648 c 1xa8
102 532 m 0
 88 631 130 704 209 740 c 1
 232 558 l 2
 238 516 276 489 321 472 c 1
 334 337 l 1
 230 362 118 413 102 532 c 0
161 57 m 1
 142 217 l 1
 172 171 285 103 409 103 c 0
 516 103 561 141 551 211 c 2
 525 413 l 1
 610 381 666 333 680 233 c 0
 701 79 610 -1 456 -12 c 1xa8
 452 -45 l 2
 455 -43 464 -39 476 -39 c 0
 511 -39 546 -65 551 -105 c 0
 561 -173 518 -219 446 -219 c 0
 410 -219 385 -207 373 -195 c 1
 392 -141 l 1
 402 -148 422 -160 448 -160 c 0
 469 -160 487 -154 484 -131 c 0
 481 -110 460 -92 435 -92 c 0
 419 -92 410 -99 403 -106 c 1
 363 -80 l 1xf0
 383 -13 l 1
 256 -6 184 39 161 57 c 1
EndSplineSet
EndChar

StartChar: Scircumflex
Encoding: 348 348 95
Width: 671
Flags: MW
HStem: -12 21G<363 363> 652 118<331 411>
VStem: 100 583
LayerCount: 2
Fore
SplineSet
222 810 m 1
 158 850 l 1
 255 994 l 1
 344 994 l 1
 479 850 l 1
 423 810 l 1
 307 914 l 1
 222 810 l 1
257 362 m 1
 179 393 114 443 102 532 c 0
 81 681 184 770 367 770 c 0
 461 770 533 734 557 713 c 1
 572 575 l 1
 534 616 452 652 370 652 c 0
 292 652 222 630 232 558 c 2
 257 362 l 1
575 16 m 1
 551 212 l 2
 545 250 521 277 482 296 c 1
 469 432 l 1
 582 400 663 355 680 233 c 0
 695 124 653 51 575 16 c 1
363 -12 m 1
 248 -1 183 40 161 57 c 1
 142 217 l 1
 168 178 253 123 353 108 c 1
 363 -12 l 1
EndSplineSet
EndChar

StartChar: uni0218
Encoding: 536 536 96
Width: 671
Flags: MW
HStem: -12 21G<363 363> 652 118<331 411>
VStem: 100 583 410 99
LayerCount: 2
Fore
SplineSet
257 362 m 1xe0
 179 393 114 443 102 532 c 0
 81 681 184 770 367 770 c 0
 461 770 533 734 557 713 c 1
 572 575 l 1
 534 616 452 652 370 652 c 0
 292 652 222 630 232 558 c 2
 257 362 l 1xe0
575 16 m 1
 551 212 l 2
 545 250 521 277 482 296 c 1
 469 432 l 1
 582 400 663 355 680 233 c 0
 695 124 653 51 575 16 c 1
363 -12 m 1
 248 -1 183 40 161 57 c 1
 142 217 l 1
 168 178 253 123 353 108 c 1
 363 -12 l 1
362 -317 m 1xd0
 392 -277 418 -208 410 -156 c 0
 406 -127 386 -105 361 -89 c 1
 448 -55 l 1
 462 -58 502 -77 509 -125 c 0
 520 -201 436 -296 416 -312 c 1
 362 -317 l 1xd0
EndSplineSet
EndChar

StartChar: T
Encoding: 84 84 97
Width: 599
Flags: MW
HStem: -1 21G<339 339> 639 118<52.5 57 57 559 559 569>
VStem: 31 554<632 762>
LayerCount: 2
Fore
SplineSet
46 637 m 2
 31 762 l 2
 32 760 38 757 47 757 c 2
 559 757 l 2
 565 757 570 754 570 757 c 2
 585 632 l 2
 582 635 576 639 569 639 c 2
 57 639 l 2
 48 639 46 641 46 637 c 2
339 -1 m 2
 342 0 339 1 338 10 c 2
 278 437 l 1
 407 437 l 1
 466 18 l 2
 467 9 471 4 472 3 c 2
 339 -1 l 2
EndSplineSet
EndChar

StartChar: Tbar
Encoding: 358 358 98
Width: 599
Flags: MW
HStem: -1 21G<339 339> 423 90 427 90 639 118<52.5 57 57 250 379 379 379 559 559 569>
VStem: 31 554<632 762>
LayerCount: 2
Fore
SplineSet
339 -1 m 2xd8
 342 0 339 1 338 10 c 2
 280 425 l 1
 161 421 l 1
 160 451 155 481 148 511 c 1
 267 515 l 1xd8
 250 639 l 1
 57 639 l 2
 48 639 46 641 46 637 c 2
 31 762 l 2
 32 760 38 757 47 757 c 2
 559 757 l 2
 565 757 570 754 570 757 c 2
 585 632 l 2
 582 635 576 639 569 639 c 2
 379 639 l 1
 396 515 l 1
 509 519 l 1
 510 489 515 459 522 429 c 1
 409 425 l 1xb8
 466 18 l 2
 467 9 471 4 472 3 c 2
 339 -1 l 2xd8
EndSplineSet
EndChar

StartChar: Tcaron
Encoding: 356 356 99
Width: 599
Flags: MW
HStem: -1 21G<339 339> 639 118<52.5 57 57 559 559 569>
VStem: 31 554<632 762>
LayerCount: 2
Fore
SplineSet
244 821 m 1
 108 965 l 1
 165 1005 l 1
 280 901 l 1
 366 1005 l 1
 429 965 l 1
 333 821 l 1
 244 821 l 1
46 637 m 2
 31 762 l 2
 32 760 38 757 47 757 c 2
 559 757 l 2
 565 757 570 754 570 757 c 2
 585 632 l 2
 582 635 576 639 569 639 c 2
 57 639 l 2
 48 639 46 641 46 637 c 2
339 -1 m 2
 342 0 339 1 338 10 c 2
 278 437 l 1
 407 437 l 1
 466 18 l 2
 467 9 471 4 472 3 c 2
 339 -1 l 2
EndSplineSet
EndChar

StartChar: uni0162
Encoding: 354 354 100
Width: 599
Flags: MW
HStem: -219 59<410 433.5 410 457> -92 92<402 422.5> 0 21G<368 368 372 439 439 439> 639 118<52.5 57 57 559 559 569>
VStem: 31 554<632 762> 459 67
LayerCount: 2
Fore
SplineSet
570 757 m 2xb8
 585 632 l 2
 582 635 576 639 569 639 c 2
 57 639 l 2
 48 639 46 641 46 637 c 2
 31 762 l 2
 32 760 38 757 47 757 c 2
 559 757 l 2
 565 757 570 754 570 757 c 2xb8
451 -39 m 0xd4
 486 -39 521 -65 526 -105 c 0
 536 -173 493 -219 421 -219 c 0
 385 -219 360 -207 348 -195 c 1
 367 -141 l 1
 377 -148 397 -160 423 -160 c 0
 444 -160 462 -154 459 -131 c 0
 456 -110 435 -92 410 -92 c 0
 394 -92 385 -99 378 -106 c 1
 338 -80 l 1xd4
 368 0 l 1
 339 -1 l 2
 342 0 339 1 338 10 c 2
 278 437 l 1
 407 437 l 1
 466 18 l 2
 467 9 471 4 472 3 c 2xb8
 372 0 l 1xd8
 439 0 l 1xb8
 427 -45 l 2
 430 -43 439 -39 451 -39 c 0xd4
EndSplineSet
EndChar

StartChar: uni021A
Encoding: 538 538 101
Width: 599
Flags: MW
HStem: -1 21G<339 339> 639 118<52.5 57 57 559 559 569>
VStem: 31 554<632 762> 394 99
LayerCount: 2
Fore
SplineSet
46 637 m 2xe0
 31 762 l 2
 32 760 38 757 47 757 c 2
 559 757 l 2
 565 757 570 754 570 757 c 2
 585 632 l 2
 582 635 576 639 569 639 c 2
 57 639 l 2
 48 639 46 641 46 637 c 2xe0
339 -1 m 2
 342 0 339 1 338 10 c 2
 278 437 l 1
 407 437 l 1
 466 18 l 2
 467 9 471 4 472 3 c 2
 339 -1 l 2
346 -317 m 1xd0
 376 -277 402 -208 394 -156 c 0
 390 -127 370 -105 345 -89 c 1
 432 -55 l 1
 446 -58 486 -77 493 -125 c 0
 504 -201 420 -296 400 -312 c 1
 346 -317 l 1xd0
EndSplineSet
EndChar

StartChar: U
Encoding: 85 85 102
Width: 718
Flags: MW
HStem: -11 21G<405 405>
VStem: 68 647
LayerCount: 2
Fore
SplineSet
405 -11 m 1
 239 14 161 139 141 279 c 2
 76 739 l 2
 75 746 71 751 68 754 c 2
 204 760 l 2
 202 757 203 754 204 747 c 2
 269 287 l 2
 281 202 328 139 393 117 c 1
 405 -11 l 1
616 26 m 1
 518 739 l 2
 517 746 513 751 510 754 c 2
 646 760 l 2
 644 757 645 754 646 747 c 2
 711 287 l 2
 726 182 699 79 616 26 c 1
EndSplineSet
EndChar

StartChar: Uacute
Encoding: 218 218 103
Width: 718
Flags: MW
HStem: -11 21G<405 405>
VStem: 68 647
LayerCount: 2
Fore
SplineSet
256 826 m 1
 356 1005 l 1
 452 939 l 1
 357 826 l 1
 256 826 l 1
405 -11 m 1
 239 14 161 139 141 279 c 2
 76 739 l 2
 75 746 71 751 68 754 c 2
 204 760 l 2
 202 757 203 754 204 747 c 2
 269 287 l 2
 281 202 328 139 393 117 c 1
 405 -11 l 1
616 26 m 1
 518 739 l 2
 517 746 513 751 510 754 c 2
 646 760 l 2
 644 757 645 754 646 747 c 2
 711 287 l 2
 726 182 699 79 616 26 c 1
EndSplineSet
EndChar

StartChar: Ubreve
Encoding: 364 364 104
Width: 718
Flags: MW
HStem: -11 21G<405 405> 815 81<327.5 369 327.5 391.5>
VStem: 68 647
LayerCount: 2
Fore
SplineSet
348 815 m 0
 268 815 206 859 181 923 c 1
 247 953 l 1
 265 923 305 896 350 896 c 0
 388 896 417 919 426 947 c 1
 494 929 l 1
 488 865 435 815 348 815 c 0
405 -11 m 1
 239 14 161 139 141 279 c 2
 76 739 l 2
 75 746 71 751 68 754 c 2
 204 760 l 2
 202 757 203 754 204 747 c 2
 269 287 l 2
 281 202 328 139 393 117 c 1
 405 -11 l 1
616 26 m 1
 518 739 l 2
 517 746 513 751 510 754 c 2
 646 760 l 2
 644 757 645 754 646 747 c 2
 711 287 l 2
 726 182 699 79 616 26 c 1
EndSplineSet
EndChar

StartChar: Ucircumflex
Encoding: 219 219 105
Width: 718
Flags: MW
HStem: -11 21G<405 405>
VStem: 68 647
LayerCount: 2
Fore
SplineSet
254 810 m 1
 190 850 l 1
 287 994 l 1
 376 994 l 1
 511 850 l 1
 455 810 l 1
 339 914 l 1
 254 810 l 1
405 -11 m 1
 239 14 161 139 141 279 c 2
 76 739 l 2
 75 746 71 751 68 754 c 2
 204 760 l 2
 202 757 203 754 204 747 c 2
 269 287 l 2
 281 202 328 139 393 117 c 1
 405 -11 l 1
616 26 m 1
 518 739 l 2
 517 746 513 751 510 754 c 2
 646 760 l 2
 644 757 645 754 646 747 c 2
 711 287 l 2
 726 182 699 79 616 26 c 1
EndSplineSet
EndChar

StartChar: Udieresis
Encoding: 220 220 106
Width: 718
Flags: MW
HStem: -11 21G<405 405> 840 119<236.5 263 229.5 270 436.5 463>
VStem: 68 647 191 118 392 116
LayerCount: 2
Fore
SplineSet
252 840 m 0xd8
 221 840 195 862 191 892 c 0
 186 929 211 959 248 959 c 0
 278 959 305 937 309 906 c 0
 314 870 288 840 252 840 c 0xd8
452 840 m 0
 421 840 396 862 392 892 c 0
 387 929 411 959 448 959 c 0
 478 959 504 937 508 906 c 0
 513 870 488 840 452 840 c 0
405 -11 m 1
 239 14 161 139 141 279 c 2
 76 739 l 2
 75 746 71 751 68 754 c 2
 204 760 l 2
 202 757 203 754 204 747 c 2
 269 287 l 2
 281 202 328 139 393 117 c 1
 405 -11 l 1
616 26 m 1
 518 739 l 2
 517 746 513 751 510 754 c 2
 646 760 l 2
 644 757 645 754 646 747 c 2
 711 287 l 2
 726 182 699 79 616 26 c 1
EndSplineSet
EndChar

StartChar: Ugrave
Encoding: 217 217 107
Width: 718
Flags: MW
HStem: -11 21G<405 405>
VStem: 68 647
LayerCount: 2
Fore
SplineSet
352 826 m 1
 227 939 l 1
 309 1005 l 1
 459 826 l 1
 352 826 l 1
405 -11 m 1
 239 14 161 139 141 279 c 2
 76 739 l 2
 75 746 71 751 68 754 c 2
 204 760 l 2
 202 757 203 754 204 747 c 2
 269 287 l 2
 281 202 328 139 393 117 c 1
 405 -11 l 1
616 26 m 1
 518 739 l 2
 517 746 513 751 510 754 c 2
 646 760 l 2
 644 757 645 754 646 747 c 2
 711 287 l 2
 726 182 699 79 616 26 c 1
EndSplineSet
EndChar

StartChar: Uhungarumlaut
Encoding: 368 368 108
Width: 718
Flags: MW
HStem: -11 21G<405 405> 821 168<197 308 197 270 386 421 197 344>
VStem: 197 73<821 989>
LayerCount: 2
Fore
SplineSet
197 821 m 1
 197 989 l 1
 308 989 l 1
 270 821 l 1
 197 821 l 1
344 821 m 1
 386 989 l 1
 498 989 l 1
 421 821 l 1
 344 821 l 1
405 -11 m 1
 239 14 161 139 141 279 c 2
 76 739 l 2
 75 746 71 751 68 754 c 2
 204 760 l 2
 202 757 203 754 204 747 c 2
 269 287 l 2
 281 202 328 139 393 117 c 1
 405 -11 l 1
616 26 m 1
 518 739 l 2
 517 746 513 751 510 754 c 2
 646 760 l 2
 644 757 645 754 646 747 c 2
 711 287 l 2
 726 182 699 79 616 26 c 1
EndSplineSet
EndChar

StartChar: Umacron
Encoding: 362 362 109
Width: 718
Flags: MW
HStem: -11 21G<405 405> 842 68
VStem: 68 647
LayerCount: 2
Fore
SplineSet
176 838 m 1
 176 861 172 883 166 906 c 1
 506 914 l 1
 506 891 510 869 516 846 c 1
 176 838 l 1
405 -11 m 1
 239 14 161 139 141 279 c 2
 76 739 l 2
 75 746 71 751 68 754 c 2
 204 760 l 2
 202 757 203 754 204 747 c 2
 269 287 l 2
 281 202 328 139 393 117 c 1
 405 -11 l 1
616 26 m 1
 518 739 l 2
 517 746 513 751 510 754 c 2
 646 760 l 2
 644 757 645 754 646 747 c 2
 711 287 l 2
 726 182 699 79 616 26 c 1
EndSplineSet
EndChar

StartChar: Uogonek
Encoding: 370 370 110
Width: 718
Flags: MW
HStem: -191 77<569 579> -14 120<417.5 467> 437 320
VStem: 466 64
LayerCount: 2
Fore
SplineSet
68 754 m 2
 204 760 l 2
 202 757 203 754 204 747 c 2
 248 437 l 1
 119 437 l 1
 76 739 l 2
 75 746 71 751 68 754 c 2
510 754 m 2
 646 760 l 2
 644 757 645 754 646 747 c 2
 690 437 l 1
 561 437 l 1
 518 739 l 2
 517 746 513 751 510 754 c 2
155 212 m 1
 288 219 l 1
 317 150 378 106 457 106 c 0
 532 106 576 144 585 213 c 1
 714 220 l 1
 711 127 669 42 574 7 c 0
 549 -5 526 -36 530 -70 c 0
 534 -97 557 -114 581 -114 c 0
 589 -114 598 -112 601 -109 c 2
 623 -168 l 1
 616 -178 592 -191 566 -191 c 0
 518 -191 473 -161 466 -108 c 0
 460 -66 477 -35 493 -15 c 1
 481 -14 473 -14 461 -14 c 0
 289 -14 194 85 155 212 c 1
EndSplineSet
EndChar

StartChar: Uring
Encoding: 366 366 111
Width: 718
Flags: MW
HStem: -11 21G<405 405> 809 52<349.5 371.5 349.5 382> 938 52<328.5 350.5>
VStem: 260 50 390 49
LayerCount: 2
Fore
SplineSet
356 809 m 0
 309 809 266 846 260 892 c 0
 253 945 291 990 344 990 c 0
 390 990 433 953 439 906 c 0
 446 854 408 809 356 809 c 0
362 861 m 0
 381 861 392 874 390 892 c 0
 386 917 363 938 338 938 c 0
 319 938 307 925 310 906 c 0
 313 882 337 861 362 861 c 0
405 -11 m 1
 239 14 161 139 141 279 c 2
 76 739 l 2
 75 746 71 751 68 754 c 2
 204 760 l 2
 202 757 203 754 204 747 c 2
 269 287 l 2
 281 202 328 139 393 117 c 1
 405 -11 l 1
616 26 m 1
 518 739 l 2
 517 746 513 751 510 754 c 2
 646 760 l 2
 644 757 645 754 646 747 c 2
 711 287 l 2
 726 182 699 79 616 26 c 1
EndSplineSet
EndChar

StartChar: Utilde
Encoding: 360 360 112
Width: 718
Flags: MW
HStem: -11 21G<405 405> 837 86<404 444.5 404 450> 877 87<262.5 307>
VStem: 68 647
LayerCount: 2
Fore
SplineSet
428 837 m 0xd0
 377 837 334 877 280 877 c 0
 245 877 216 864 202 842 c 1
 168 901 l 1
 195 935 232 964 280 964 c 0xb0
 339 964 379 923 429 923 c 0
 460 923 482 931 492 948 c 1
 521 885 l 1
 504 856 472 837 428 837 c 0xd0
405 -11 m 1xb0
 239 14 161 139 141 279 c 2
 76 739 l 2
 75 746 71 751 68 754 c 2
 204 760 l 2
 202 757 203 754 204 747 c 2
 269 287 l 2
 281 202 328 139 393 117 c 1
 405 -11 l 1xb0
616 26 m 1
 518 739 l 2
 517 746 513 751 510 754 c 2
 646 760 l 2
 644 757 645 754 646 747 c 2
 711 287 l 2
 726 182 699 79 616 26 c 1
EndSplineSet
EndChar

StartChar: V
Encoding: 86 86 113
Width: 753
Flags: MW
HStem: -1 21G<411 411>
VStem: 17 714<755 759>
LayerCount: 2
Fore
SplineSet
626 305 m 1
 529 492 l 1
 591 757 l 1
 731 759 l 2
 727 757 725 752 723 746 c 2
 626 305 l 1
411 -1 m 2
 414 0 408 4 403 11 c 2
 30 740 l 2
 28 746 22 753 17 755 c 2
 164 757 l 1
 549 17 l 2
 553 10 560 3 562 2 c 2
 411 -1 l 2
EndSplineSet
EndChar

StartChar: W
Encoding: 87 87 114
Width: 1040
Flags: MW
HStem: -2 21G<344 344> -1 21G<785 785>
VStem: 17 1001<755 760>
LayerCount: 2
Fore
SplineSet
962 388 m 1x60
 860 611 l 1
 880 757 l 1
 1018 760 l 1
 1013 746 l 1
 962 388 l 1x60
344 -2 m 2xa0
 345 -1 344 2 347 11 c 2xa0
 455 741 l 2
 456 748 452 753 449 755 c 2
 570 759 l 2
 568 758 572 754 576 747 c 2
 909 17 l 2
 912 10 917 3 919 2 c 2
 785 -1 l 2
 788 0 783 4 779 11 c 2x60
 542 533 l 1
 471 17 l 2
 469 7 474 3 476 2 c 2
 344 -2 l 2xa0
177 397 m 1
 29 740 l 2
 27 746 22 753 17 755 c 2
 164 757 l 1
 213 638 l 1
 177 397 l 1
EndSplineSet
EndChar

StartChar: Wacute
Encoding: 7810 7810 115
Width: 1040
Flags: MW
HStem: -2 21G<344 344> -1 21G<785 785>
VStem: 17 1001<755 760>
LayerCount: 2
Fore
SplineSet
397 826 m 1x60
 497 1005 l 1
 593 939 l 1
 498 826 l 1
 397 826 l 1x60
962 388 m 1
 860 611 l 1
 880 757 l 1
 1018 760 l 1
 1013 746 l 1
 962 388 l 1
344 -2 m 2xa0
 345 -1 344 2 347 11 c 2xa0
 455 741 l 2
 456 748 452 753 449 755 c 2
 570 759 l 2
 568 758 572 754 576 747 c 2
 909 17 l 2
 912 10 917 3 919 2 c 2
 785 -1 l 2
 788 0 783 4 779 11 c 2x60
 542 533 l 1
 471 17 l 2
 469 7 474 3 476 2 c 2
 344 -2 l 2xa0
177 397 m 1
 29 740 l 2
 27 746 22 753 17 755 c 2
 164 757 l 1
 213 638 l 1
 177 397 l 1
EndSplineSet
EndChar

StartChar: Wcircumflex
Encoding: 372 372 116
Width: 1040
Flags: MW
HStem: -2 21G<344 344> -1 21G<785 785>
VStem: 17 1001<755 760>
LayerCount: 2
Fore
SplineSet
400 810 m 1x60
 336 850 l 1
 433 994 l 1
 522 994 l 1
 657 850 l 1
 601 810 l 1
 485 914 l 1
 400 810 l 1x60
962 388 m 1
 860 611 l 1
 880 757 l 1
 1018 760 l 1
 1013 746 l 1
 962 388 l 1
344 -2 m 2xa0
 345 -1 344 2 347 11 c 2xa0
 455 741 l 2
 456 748 452 753 449 755 c 2
 570 759 l 2
 568 758 572 754 576 747 c 2
 909 17 l 2
 912 10 917 3 919 2 c 2
 785 -1 l 2
 788 0 783 4 779 11 c 2x60
 542 533 l 1
 471 17 l 2
 469 7 474 3 476 2 c 2
 344 -2 l 2xa0
177 397 m 1
 29 740 l 2
 27 746 22 753 17 755 c 2
 164 757 l 1
 213 638 l 1
 177 397 l 1
EndSplineSet
EndChar

StartChar: Wdieresis
Encoding: 7812 7812 117
Width: 1040
Flags: MW
HStem: -2 21G<344 344> -1 21G<785 785> 870 119<369.5 396.5 363 403 569.5 596.5>
VStem: 17 1001<755 760> 324 118 525 116
LayerCount: 2
Fore
SplineSet
385 870 m 0xac
 354 870 329 892 324 922 c 0
 319 959 344 989 382 989 c 0
 411 989 438 967 442 936 c 0
 448 900 421 870 385 870 c 0xac
585 870 m 0
 554 870 530 892 525 922 c 0
 520 959 544 989 582 989 c 0
 611 989 637 967 641 936 c 0
 647 900 621 870 585 870 c 0
962 388 m 1
 860 611 l 1
 880 757 l 1
 1018 760 l 1
 1013 746 l 1
 962 388 l 1
344 -2 m 2
 345 -1 344 2 347 11 c 2xb0
 455 741 l 2
 456 748 452 753 449 755 c 2
 570 759 l 2
 568 758 572 754 576 747 c 2
 909 17 l 2
 912 10 917 3 919 2 c 2
 785 -1 l 2
 788 0 783 4 779 11 c 2x70
 542 533 l 1
 471 17 l 2
 469 7 474 3 476 2 c 2
 344 -2 l 2
177 397 m 1
 29 740 l 2
 27 746 22 753 17 755 c 2
 164 757 l 1
 213 638 l 1
 177 397 l 1
EndSplineSet
EndChar

StartChar: Wgrave
Encoding: 7808 7808 118
Width: 1040
Flags: MW
HStem: -2 21G<344 344> -1 21G<785 785>
VStem: 17 1001<755 760>
LayerCount: 2
Fore
SplineSet
461 826 m 1x60
 336 939 l 1
 418 1005 l 1
 568 826 l 1
 461 826 l 1x60
962 388 m 1
 860 611 l 1
 880 757 l 1
 1018 760 l 1
 1013 746 l 1
 962 388 l 1
344 -2 m 2xa0
 345 -1 344 2 347 11 c 2xa0
 455 741 l 2
 456 748 452 753 449 755 c 2
 570 759 l 2
 568 758 572 754 576 747 c 2
 909 17 l 2
 912 10 917 3 919 2 c 2
 785 -1 l 2
 788 0 783 4 779 11 c 2x60
 542 533 l 1
 471 17 l 2
 469 7 474 3 476 2 c 2
 344 -2 l 2xa0
177 397 m 1
 29 740 l 2
 27 746 22 753 17 755 c 2
 164 757 l 1
 213 638 l 1
 177 397 l 1
EndSplineSet
EndChar

StartChar: X
Encoding: 88 88 119
Width: 726
Flags: MW
HStem: -1 21G<145 145> 0 21G<304 304 651 651>
VStem: 17 798<2 754>
LayerCount: 2
Fore
SplineSet
581 541 m 1x60
 485 662 l 1
 535 757 l 1
 693 760 l 2
 689 758 686 753 682 747 c 2
 581 541 l 1x60
651 0 m 1
 35 740 l 2
 31 745 22 752 17 754 c 2
 183 757 l 1
 800 18 l 2
 805 12 811 3 815 2 c 2
 651 0 l 1
145 -1 m 2xa0
 149 0 151 3 156 11 c 2
 251 217 l 1
 350 95 l 1
 304 0 l 1
 145 -1 l 2xa0
EndSplineSet
EndChar

StartChar: Y
Encoding: 89 89 120
Width: 720
Flags: MW
HStem: -1 217<402 402> 437 321
VStem: 17 681<755 759>
LayerCount: 2
Fore
SplineSet
405 437 m 1
 540 757 l 1
 698 759 l 2
 694 757 690 752 685 746 c 2
 548 437 l 1
 405 437 l 1
258 437 m 1
 34 740 l 2
 30 746 22 753 17 755 c 2
 177 757 l 1
 405 437 l 1
 258 437 l 1
402 -1 m 2
 405 0 402 1 401 10 c 2
 372 216 l 1
 501 216 l 1
 529 18 l 2
 530 9 535 3 537 2 c 2
 402 -1 l 2
EndSplineSet
EndChar

StartChar: Yacute
Encoding: 221 221 121
Width: 720
Flags: MW
HStem: -1 217<402 402> 437 321
VStem: 17 681<755 759>
LayerCount: 2
Fore
SplineSet
233 826 m 1
 333 1005 l 1
 429 939 l 1
 334 826 l 1
 233 826 l 1
405 437 m 1
 540 757 l 1
 698 759 l 2
 694 757 690 752 685 746 c 2
 548 437 l 1
 405 437 l 1
258 437 m 1
 34 740 l 2
 30 746 22 753 17 755 c 2
 177 757 l 1
 405 437 l 1
 258 437 l 1
402 -1 m 2
 405 0 402 1 401 10 c 2
 372 216 l 1
 501 216 l 1
 529 18 l 2
 530 9 535 3 537 2 c 2
 402 -1 l 2
EndSplineSet
EndChar

StartChar: Ycircumflex
Encoding: 374 374 122
Width: 720
Flags: MW
HStem: -1 217<402 402> 437 321
VStem: 17 681<755 759>
LayerCount: 2
Fore
SplineSet
226 810 m 1
 162 850 l 1
 259 994 l 1
 348 994 l 1
 483 850 l 1
 427 810 l 1
 311 914 l 1
 226 810 l 1
405 437 m 1
 540 757 l 1
 698 759 l 2
 694 757 690 752 685 746 c 2
 548 437 l 1
 405 437 l 1
258 437 m 1
 34 740 l 2
 30 746 22 753 17 755 c 2
 177 757 l 1
 405 437 l 1
 258 437 l 1
402 -1 m 2
 405 0 402 1 401 10 c 2
 372 216 l 1
 501 216 l 1
 529 18 l 2
 530 9 535 3 537 2 c 2
 402 -1 l 2
EndSplineSet
EndChar

StartChar: Ydieresis
Encoding: 376 376 123
Width: 720
Flags: MW
HStem: -1 217<402 402> 437 321 840 119<199.5 226 192.5 233 399.5 426>
VStem: 17 681<755 759> 154 118 355 116
LayerCount: 2
Fore
SplineSet
215 840 m 0xf0
 184 840 158 862 154 892 c 0
 149 929 174 959 211 959 c 0
 241 959 268 937 272 906 c 0
 277 870 251 840 215 840 c 0xf0
415 840 m 0
 384 840 359 862 355 892 c 0
 350 929 374 959 411 959 c 0
 441 959 467 937 471 906 c 0
 476 870 451 840 415 840 c 0
405 437 m 1xec
 540 757 l 1
 698 759 l 2
 694 757 690 752 685 746 c 2
 548 437 l 1
 405 437 l 1xec
258 437 m 1
 34 740 l 2
 30 746 22 753 17 755 c 2
 177 757 l 1
 405 437 l 1
 258 437 l 1
402 -1 m 2
 405 0 402 1 401 10 c 2
 372 216 l 1
 501 216 l 1
 529 18 l 2
 530 9 535 3 537 2 c 2
 402 -1 l 2
EndSplineSet
EndChar

StartChar: Ygrave
Encoding: 7922 7922 124
Width: 720
Flags: MW
HStem: -1 217<402 402> 437 321
VStem: 17 681<755 759>
LayerCount: 2
Fore
SplineSet
314 826 m 1
 189 939 l 1
 271 1005 l 1
 421 826 l 1
 314 826 l 1
405 437 m 1
 540 757 l 1
 698 759 l 2
 694 757 690 752 685 746 c 2
 548 437 l 1
 405 437 l 1
258 437 m 1
 34 740 l 2
 30 746 22 753 17 755 c 2
 177 757 l 1
 405 437 l 1
 258 437 l 1
402 -1 m 2
 405 0 402 1 401 10 c 2
 372 216 l 1
 501 216 l 1
 529 18 l 2
 530 9 535 3 537 2 c 2
 402 -1 l 2
EndSplineSet
EndChar

StartChar: Z
Encoding: 90 90 125
Width: 625
Flags: MW
HStem: -7 21G<674 674> 0 118<193 647 647 650.5 193 657 167 647> 639 118<84 88 88 394>
VStem: 62 612
LayerCount: 2
Fore
SplineSet
271 319 m 1x70
 394 639 l 1
 88 639 l 2
 80 639 78 641 78 638 c 2
 62 763 l 2
 64 760 70 757 78 757 c 2
 563 757 l 1
 578 738 l 1
 417 319 l 1
 271 319 l 1x70
674 -7 m 2
 671 -3 665 0 657 0 c 2
 167 0 l 1
 154 18 l 1
 193 118 l 1
 647 118 l 2x70
 654 118 658 116 659 119 c 2xb0
 674 -7 l 2
EndSplineSet
EndChar

StartChar: Zacute
Encoding: 377 377 126
Width: 627
Flags: MW
HStem: -7 21G<674 674> 0 118<193 647 647 650.5 193 657 167 647> 639 118<84 88 88 394>
VStem: 62 612
LayerCount: 2
Fore
SplineSet
211 826 m 1x70
 311 1005 l 1
 407 939 l 1
 312 826 l 1
 211 826 l 1x70
271 319 m 1
 394 639 l 1
 88 639 l 2
 80 639 78 641 78 638 c 2
 62 763 l 2
 64 760 70 757 78 757 c 2
 563 757 l 1
 578 738 l 1
 417 319 l 1
 271 319 l 1
674 -7 m 2
 671 -3 665 0 657 0 c 2
 167 0 l 1
 154 18 l 1
 193 118 l 1
 647 118 l 2x70
 654 118 658 116 659 119 c 2xb0
 674 -7 l 2
EndSplineSet
EndChar

StartChar: Zcaron
Encoding: 381 381 127
Width: 627
Flags: MW
HStem: -7 21G<674 674> 0 118<193 647 647 650.5 193 657 167 647> 639 118<84 88 88 394>
VStem: 62 612
LayerCount: 2
Fore
SplineSet
261 821 m 1x70
 125 965 l 1
 182 1005 l 1
 297 901 l 1
 383 1005 l 1
 446 965 l 1
 350 821 l 1
 261 821 l 1x70
271 319 m 1
 394 639 l 1
 88 639 l 2
 80 639 78 641 78 638 c 2
 62 763 l 2
 64 760 70 757 78 757 c 2
 563 757 l 1
 578 738 l 1
 417 319 l 1
 271 319 l 1
674 -7 m 2
 671 -3 665 0 657 0 c 2
 167 0 l 1
 154 18 l 1
 193 118 l 1
 647 118 l 2x70
 654 118 658 116 659 119 c 2xb0
 674 -7 l 2
EndSplineSet
EndChar

StartChar: Zdotaccent
Encoding: 379 379 128
Width: 627
Flags: MW
HStem: -7 21G<674 674> 0 118<193 647 647 650.5 193 657 167 647> 639 118<84 88 88 394> 839 143<286.5 316 276.5 326>
VStem: 62 612 231 140
LayerCount: 2
Fore
SplineSet
305 839 m 0xb4
 268 839 235 867 231 903 c 0
 225 945 255 982 298 982 c 0
 334 982 367 953 371 917 c 0
 377 875 347 839 305 839 c 0xb4
271 319 m 1
 394 639 l 1
 88 639 l 2
 80 639 78 641 78 638 c 2
 62 763 l 2
 64 760 70 757 78 757 c 2
 563 757 l 1
 578 738 l 1
 417 319 l 1
 271 319 l 1
674 -7 m 2
 671 -3 665 0 657 0 c 2
 167 0 l 1
 154 18 l 1
 193 118 l 1
 647 118 l 2x68
 654 118 658 116 659 119 c 2
 674 -7 l 2
EndSplineSet
EndChar

StartChar: a
Encoding: 97 97 129
Width: 702
Flags: MW
HStem: -12 21G<410 410 661 707> -12 104<661 727.5> 455 86 455 99<318 386 267.5 401.5>
VStem: 106 675
LayerCount: 2
Fore
SplineSet
410 -12 m 1x98
 260 -8 130 115 109 267 c 0
 86 431 190 554 345 554 c 0
 427 554 487 506 508 476 c 1x98
 499 541 l 1
 619 541 l 1
 673 165 l 2
 680 120 694 92 723 92 c 0
 732 92 740 94 743 100 c 1x68
 781 39 l 1
 769 12 735 -12 679 -12 c 0
 643 -12 584 6 564 61 c 1
 521 365 l 1
 496 408 440 455 363 455 c 0
 273 455 214 384 229 279 c 0
 243 182 316 100 402 89 c 1
 410 -12 l 1x98
EndSplineSet
EndChar

StartChar: aacute
Encoding: 225 225 130
Width: 702
Flags: MW
HStem: -12 21G<410 410 661 707> -12 104<661 727.5> 455 86 455 99<318 386 267.5 401.5>
VStem: 106 675
LayerCount: 2
Fore
SplineSet
270 610 m 1x98
 371 789 l 1
 467 723 l 1
 371 610 l 1
 270 610 l 1x98
410 -12 m 1
 260 -8 130 115 109 267 c 0
 86 431 190 554 345 554 c 0
 427 554 487 506 508 476 c 1x98
 499 541 l 1
 619 541 l 1
 673 165 l 2
 680 120 694 92 723 92 c 0
 732 92 740 94 743 100 c 1x68
 781 39 l 1
 769 12 735 -12 679 -12 c 0
 643 -12 584 6 564 61 c 1
 521 365 l 1
 496 408 440 455 363 455 c 0
 273 455 214 384 229 279 c 0
 243 182 316 100 402 89 c 1
 410 -12 l 1
EndSplineSet
EndChar

StartChar: abreve
Encoding: 259 259 131
Width: 702
Flags: MW
HStem: -12 21G<410 410 661 707> -12 104<661 727.5> 455 86 455 99<318 386 267.5 401.5> 599 81<346.5 388 346.5 411>
VStem: 106 675
LayerCount: 2
Fore
SplineSet
368 599 m 0x9c
 287 599 225 643 201 707 c 1
 266 737 l 1
 284 707 324 680 369 680 c 0
 407 680 436 703 445 731 c 1
 513 713 l 1
 507 649 454 599 368 599 c 0x9c
410 -12 m 1
 260 -8 130 115 109 267 c 0
 86 431 190 554 345 554 c 0
 427 554 487 506 508 476 c 1x9c
 499 541 l 1
 619 541 l 1
 673 165 l 2
 680 120 694 92 723 92 c 0
 732 92 740 94 743 100 c 1x6c
 781 39 l 1
 769 12 735 -12 679 -12 c 0
 643 -12 584 6 564 61 c 1
 521 365 l 1
 496 408 440 455 363 455 c 0
 273 455 214 384 229 279 c 0
 243 182 316 100 402 89 c 1
 410 -12 l 1
EndSplineSet
EndChar

StartChar: acircumflex
Encoding: 226 226 132
Width: 702
Flags: MW
HStem: -12 21G<410 410 661 707> -12 104<661 727.5> 455 86 455 99<318 386 267.5 401.5>
VStem: 106 675
LayerCount: 2
Fore
SplineSet
273 594 m 1x98
 210 634 l 1
 306 778 l 1
 395 778 l 1
 531 634 l 1
 474 594 l 1
 358 698 l 1
 273 594 l 1x98
410 -12 m 1
 260 -8 130 115 109 267 c 0
 86 431 190 554 345 554 c 0
 427 554 487 506 508 476 c 1x98
 499 541 l 1
 619 541 l 1
 673 165 l 2
 680 120 694 92 723 92 c 0
 732 92 740 94 743 100 c 1x68
 781 39 l 1
 769 12 735 -12 679 -12 c 0
 643 -12 584 6 564 61 c 1
 521 365 l 1
 496 408 440 455 363 455 c 0
 273 455 214 384 229 279 c 0
 243 182 316 100 402 89 c 1
 410 -12 l 1
EndSplineSet
EndChar

StartChar: adieresis
Encoding: 228 228 133
Width: 702
Flags: MW
HStem: -12 21G<410 410 661 707> -12 104<661 727.5> 455 86 455 99<318 386 267.5 401.5> 624 119<248.5 275.5 242 282 448.5 475.5>
VStem: 106 675 203 118 404 116
LayerCount: 2
Fore
SplineSet
264 624 m 0x9b
 233 624 208 646 203 676 c 0
 198 713 223 743 261 743 c 0
 290 743 317 721 321 690 c 0
 327 654 300 624 264 624 c 0x9b
464 624 m 0
 433 624 409 646 404 676 c 0
 399 713 423 743 461 743 c 0
 490 743 516 721 520 690 c 0
 526 654 500 624 464 624 c 0
410 -12 m 1
 260 -8 130 115 109 267 c 0
 86 431 190 554 345 554 c 0
 427 554 487 506 508 476 c 1x9c
 499 541 l 1
 619 541 l 1
 673 165 l 2
 680 120 694 92 723 92 c 0
 732 92 740 94 743 100 c 1x6c
 781 39 l 1
 769 12 735 -12 679 -12 c 0
 643 -12 584 6 564 61 c 1
 521 365 l 1
 496 408 440 455 363 455 c 0
 273 455 214 384 229 279 c 0
 243 182 316 100 402 89 c 1
 410 -12 l 1
EndSplineSet
EndChar

StartChar: agrave
Encoding: 224 224 134
Width: 702
Flags: MW
HStem: -12 21G<410 410 661 707> -12 104<661 727.5> 455 86 455 99<318 386 267.5 401.5>
VStem: 106 675
LayerCount: 2
Fore
SplineSet
355 610 m 1x98
 231 723 l 1
 313 789 l 1
 462 610 l 1
 355 610 l 1x98
410 -12 m 1
 260 -8 130 115 109 267 c 0
 86 431 190 554 345 554 c 0
 427 554 487 506 508 476 c 1x98
 499 541 l 1
 619 541 l 1
 673 165 l 2
 680 120 694 92 723 92 c 0
 732 92 740 94 743 100 c 1x68
 781 39 l 1
 769 12 735 -12 679 -12 c 0
 643 -12 584 6 564 61 c 1
 521 365 l 1
 496 408 440 455 363 455 c 0
 273 455 214 384 229 279 c 0
 243 182 316 100 402 89 c 1
 410 -12 l 1
EndSplineSet
EndChar

StartChar: amacron
Encoding: 257 257 135
Width: 702
Flags: MW
HStem: -12 21G<410 410 661 707> -12 104<661 727.5> 455 86 455 99<318 386 267.5 401.5> 626 68
VStem: 106 675
LayerCount: 2
Fore
SplineSet
202 622 m 1x9c
 202 645 198 667 192 690 c 1
 532 698 l 1
 532 675 536 653 542 630 c 1
 202 622 l 1x9c
410 -12 m 1
 260 -8 130 115 109 267 c 0
 86 431 190 554 345 554 c 0
 427 554 487 506 508 476 c 1x9c
 499 541 l 1
 619 541 l 1
 673 165 l 2
 680 120 694 92 723 92 c 0
 732 92 740 94 743 100 c 1x6c
 781 39 l 1
 769 12 735 -12 679 -12 c 0
 643 -12 584 6 564 61 c 1
 521 365 l 1
 496 408 440 455 363 455 c 0
 273 455 214 384 229 279 c 0
 243 182 316 100 402 89 c 1
 410 -12 l 1
EndSplineSet
EndChar

StartChar: aogonek
Encoding: 261 261 136
Width: 708
Flags: MW
HStem: -191 77<762 772> -12 21G<410 410 661 679 679 693> -12 104<661 727.5 679 727.5> 455 86 455 99<318 386 267.5 401.5>
VStem: 659 64
LayerCount: 2
Fore
SplineSet
794 -109 m 2xcc
 816 -168 l 1
 809 -178 785 -191 759 -191 c 0
 711 -191 666 -161 659 -108 c 0
 653 -64 671 -31 693 -12 c 1
 679 -12 l 2
 643 -12 584 6 564 61 c 1
 521 365 l 1
 496 408 440 455 363 455 c 0
 273 455 214 384 229 279 c 0
 243 182 316 100 402 89 c 1
 410 -12 l 1
 260 -8 130 115 109 267 c 0
 86 431 190 554 345 554 c 0
 427 554 487 506 508 476 c 1xcc
 499 541 l 1
 619 541 l 1
 673 165 l 2
 680 120 694 92 723 92 c 0
 732 92 740 94 743 100 c 1
 781 39 l 1xb4
 776 27 766 15 751 6 c 1
 773 7 l 1
 744 -4 718 -35 723 -70 c 0
 727 -97 750 -114 774 -114 c 0
 782 -114 791 -112 794 -109 c 2xcc
EndSplineSet
EndChar

StartChar: aring
Encoding: 229 229 137
Width: 702
Flags: MW
HStem: -12 21G<410 410 661 707> -12 104<661 727.5> 455 86 455 99<318 386 267.5 401.5> 593 52<379.5 401.5 379.5 412.5> 722 52<359 381>
VStem: 290 50 420 49
LayerCount: 2
Fore
SplineSet
386 593 m 0x9f
 340 593 297 630 290 676 c 0
 283 729 321 774 374 774 c 0
 420 774 463 737 469 690 c 0
 477 638 439 593 386 593 c 0x9f
392 645 m 0
 411 645 423 658 420 676 c 0
 417 701 394 722 368 722 c 0
 350 722 338 709 340 690 c 0
 344 666 367 645 392 645 c 0
410 -12 m 1
 260 -8 130 115 109 267 c 0
 86 431 190 554 345 554 c 0
 427 554 487 506 508 476 c 1x9f
 499 541 l 1
 619 541 l 1
 673 165 l 2
 680 120 694 92 723 92 c 0
 732 92 740 94 743 100 c 1x6f
 781 39 l 1
 769 12 735 -12 679 -12 c 0
 643 -12 584 6 564 61 c 1
 521 365 l 1
 496 408 440 455 363 455 c 0
 273 455 214 384 229 279 c 0
 243 182 316 100 402 89 c 1
 410 -12 l 1
EndSplineSet
EndChar

StartChar: aringacute
Encoding: 507 507 138
Width: 702
Flags: MW
HStem: -12 21G<410 410 661 707> -12 104<661 727.5> 455 86 455 99<318 386 267.5 401.5> 591 52<370 392 370 403> 720 52<349.5 371.5>
VStem: 281 50 411 49
LayerCount: 2
Fore
SplineSet
285 804 m 1x9f
 385 983 l 1
 481 917 l 1
 386 804 l 1
 285 804 l 1x9f
377 591 m 0
 330 591 287 628 281 674 c 0
 273 727 311 772 364 772 c 0
 410 772 453 735 460 688 c 0
 467 636 429 591 377 591 c 0
383 643 m 0
 401 643 413 656 411 674 c 0
 407 699 384 720 359 720 c 0
 340 720 328 707 331 688 c 0
 334 664 357 643 383 643 c 0
410 -12 m 1
 260 -8 130 115 109 267 c 0
 86 431 190 554 345 554 c 0
 427 554 487 506 508 476 c 1x9f
 499 541 l 1
 619 541 l 1
 673 165 l 2
 680 120 694 92 723 92 c 0
 732 92 740 94 743 100 c 1x6f
 781 39 l 1
 769 12 735 -12 679 -12 c 0
 643 -12 584 6 564 61 c 1
 521 365 l 1
 496 408 440 455 363 455 c 0
 273 455 214 384 229 279 c 0
 243 182 316 100 402 89 c 1
 410 -12 l 1
EndSplineSet
EndChar

StartChar: atilde
Encoding: 227 227 139
Width: 702
Flags: MW
HStem: -12 21G<410 410 661 707> -12 104<661 727.5> 455 86 455 99<318 386 267.5 401.5> 621 86<423.5 464 423.5 470> 661 87<281.5 326>
VStem: 106 675
LayerCount: 2
Fore
SplineSet
448 621 m 0x9a
 397 621 353 661 299 661 c 0
 264 661 235 648 221 626 c 1
 187 685 l 1
 215 719 252 748 300 748 c 0x96
 359 748 398 707 449 707 c 0
 479 707 501 715 511 732 c 1
 540 669 l 1
 524 640 492 621 448 621 c 0x9a
410 -12 m 1x96
 260 -8 130 115 109 267 c 0
 86 431 190 554 345 554 c 0
 427 554 487 506 508 476 c 1x96
 499 541 l 1
 619 541 l 1
 673 165 l 2
 680 120 694 92 723 92 c 0
 732 92 740 94 743 100 c 1x66
 781 39 l 1
 769 12 735 -12 679 -12 c 0
 643 -12 584 6 564 61 c 1
 521 365 l 1
 496 408 440 455 363 455 c 0
 273 455 214 384 229 279 c 0
 243 182 316 100 402 89 c 1
 410 -12 l 1x96
EndSplineSet
EndChar

StartChar: ae
Encoding: 230 230 140
Width: 940
Flags: MW
HStem: -14 107<730.5 823 730.5 828.5> 230 82 452 102<271.5 354.5>
VStem: 122 868
LayerCount: 2
Fore
SplineSet
132 498 m 1
 155 519 218 554 325 554 c 0
 477 554 568 464 591 305 c 0
 617 146 676 93 785 93 c 0
 861 93 917 109 952 141 c 1
 990 48 l 1
 949 12 877 -14 780 -14 c 0
 591 -14 495 73 469 260 c 0
 451 389 407 452 302 452 c 0
 235 452 180 424 160 401 c 1
 132 498 l 1
742 229 m 1
 730 315 l 1
 845 311 l 1
 834 385 782 446 708 451 c 1
 700 554 l 1
 858 549 946 431 964 305 c 0
 968 276 967 248 965 232 c 1
 742 229 l 1
124 156 m 0
 108 274 207 334 319 343 c 1
 326 252 l 1
 269 244 233 219 239 173 c 0
 248 110 310 87 356 86 c 1
 367 -18 l 1
 367 -18 362 -14 359 -14 c 0
 262 -14 143 27 124 156 c 0
EndSplineSet
EndChar

StartChar: aeacute
Encoding: 509 509 141
Width: 940
Flags: MW
HStem: -14 107<730.5 823 730.5 828.5> 230 82 452 102<271.5 354.5>
VStem: 122 868
LayerCount: 2
Fore
SplineSet
423 610 m 1
 524 789 l 1
 620 723 l 1
 524 610 l 1
 423 610 l 1
132 498 m 1
 155 519 218 554 325 554 c 0
 477 554 568 464 591 305 c 0
 617 146 676 93 785 93 c 0
 861 93 917 109 952 141 c 1
 990 48 l 1
 949 12 877 -14 780 -14 c 0
 591 -14 495 73 469 260 c 0
 451 389 407 452 302 452 c 0
 235 452 180 424 160 401 c 1
 132 498 l 1
742 229 m 1
 730 315 l 1
 845 311 l 1
 834 385 782 446 708 451 c 1
 700 554 l 1
 858 549 946 431 964 305 c 0
 968 276 967 248 965 232 c 1
 742 229 l 1
124 156 m 0
 108 274 207 334 319 343 c 1
 326 252 l 1
 269 244 233 219 239 173 c 0
 248 110 310 87 356 86 c 1
 367 -18 l 1
 367 -18 362 -14 359 -14 c 0
 262 -14 143 27 124 156 c 0
EndSplineSet
EndChar

StartChar: b
Encoding: 98 98 142
Width: 630
Flags: MW
HStem: -11 21G 452 102<340.5 403.5>
VStem: 535 124
LayerCount: 2
Fore
SplineSet
450 -11 m 1
 441 98 l 1
 512 119 545 191 532 284 c 0
 520 370 452 452 355 452 c 0
 295 452 250 402 238 357 c 1
 285 10 l 1
 203 48 149 123 138 201 c 2
 57 780 l 1
 179 787 l 1
 226 467 l 1
 240 497 294 554 387 554 c 0
 517 554 633 455 654 298 c 0
 680 119 593 7 450 -11 c 1
EndSplineSet
EndChar

StartChar: c
Encoding: 99 99 143
Width: 572
Flags: MW
HStem: -14 107<383.5 477.5 383.5 490> 446 108<384 408.5 375 414.5>
VStem: 106 524
LayerCount: 2
Fore
SplineSet
384 446 m 1
 375 554 l 1
 442 554 506 539 554 512 c 1
 529 401 l 1
 499 426 445 446 384 446 c 1
109 263 m 0
 96 360 130 449 202 501 c 1
 231 274 l 2
 244 181 324 93 443 93 c 0
 512 93 565 112 586 143 c 1
 630 41 l 1
 591 11 535 -14 445 -14 c 0
 258 -14 130 115 109 263 c 0
EndSplineSet
EndChar

StartChar: cacute
Encoding: 263 263 144
Width: 572
Flags: MW
HStem: -14 107<383.5 477.5 383.5 490> 446 108<384 408.5 375 414.5>
VStem: 106 524
LayerCount: 2
Fore
SplineSet
244 610 m 1
 345 789 l 1
 441 723 l 1
 345 610 l 1
 244 610 l 1
384 446 m 1
 375 554 l 1
 442 554 506 539 554 512 c 1
 529 401 l 1
 499 426 445 446 384 446 c 1
109 263 m 0
 96 360 130 449 202 501 c 1
 231 274 l 2
 244 181 324 93 443 93 c 0
 512 93 565 112 586 143 c 1
 630 41 l 1
 591 11 535 -14 445 -14 c 0
 258 -14 130 115 109 263 c 0
EndSplineSet
EndChar

StartChar: ccaron
Encoding: 269 269 145
Width: 572
Flags: MW
HStem: -14 107<383.5 477.5 383.5 490> 446 108<384 408.5 375 414.5>
VStem: 106 524
LayerCount: 2
Fore
SplineSet
309 605 m 1
 174 749 l 1
 231 789 l 1
 345 685 l 1
 432 789 l 1
 495 749 l 1
 398 605 l 1
 309 605 l 1
384 446 m 1
 375 554 l 1
 442 554 506 539 554 512 c 1
 529 401 l 1
 499 426 445 446 384 446 c 1
109 263 m 0
 96 360 130 449 202 501 c 1
 231 274 l 2
 244 181 324 93 443 93 c 0
 512 93 565 112 586 143 c 1
 630 41 l 1
 591 11 535 -14 445 -14 c 0
 258 -14 130 115 109 263 c 0
EndSplineSet
EndChar

StartChar: ccedilla
Encoding: 231 231 146
Width: 572
Flags: MW
HStem: -219 59<460 483.5 460 507> -92 53<452 518.5> -13 106<413 413> 446 108<384 408.5 375 414.5>
VStem: 106 524 509 67
LayerCount: 2
Fore
SplineSet
529 401 m 1xb8
 499 426 445 446 384 446 c 1
 375 554 l 1
 442 554 506 539 554 512 c 1
 529 401 l 1xb8
501 -39 m 0xf4
 536 -39 571 -65 576 -105 c 0
 586 -173 543 -219 471 -219 c 0
 435 -219 410 -207 398 -195 c 1
 417 -141 l 1
 427 -148 447 -160 473 -160 c 0
 494 -160 512 -154 509 -131 c 0
 506 -110 485 -92 460 -92 c 0
 444 -92 435 -99 428 -106 c 1
 388 -80 l 1xf4
 413 -13 l 1
 244 1 129 124 109 263 c 0
 96 360 130 449 202 501 c 1
 231 274 l 2
 244 181 324 93 443 93 c 0
 512 93 565 112 586 143 c 1
 630 41 l 1
 597 16 553 -6 486 -12 c 1xb8
 477 -45 l 2
 480 -43 489 -39 501 -39 c 0xf4
EndSplineSet
EndChar

StartChar: ccircumflex
Encoding: 265 265 147
Width: 572
Flags: MW
HStem: -14 107<383.5 477.5 383.5 490> 446 108<384 408.5 375 414.5>
VStem: 106 524
LayerCount: 2
Fore
SplineSet
254 594 m 1
 191 634 l 1
 287 778 l 1
 376 778 l 1
 512 634 l 1
 455 594 l 1
 339 698 l 1
 254 594 l 1
384 446 m 1
 375 554 l 1
 442 554 506 539 554 512 c 1
 529 401 l 1
 499 426 445 446 384 446 c 1
109 263 m 0
 96 360 130 449 202 501 c 1
 231 274 l 2
 244 181 324 93 443 93 c 0
 512 93 565 112 586 143 c 1
 630 41 l 1
 591 11 535 -14 445 -14 c 0
 258 -14 130 115 109 263 c 0
EndSplineSet
EndChar

StartChar: cdotaccent
Encoding: 267 267 148
Width: 572
Flags: MW
HStem: -14 107<383.5 477.5 383.5 490> 446 108<384 408.5 375 414.5> 623 143<334 363 323.5 373.5>
VStem: 106 524 278 141
LayerCount: 2
Fore
SplineSet
352 623 m 0xe8
 316 623 283 651 278 687 c 0
 272 729 302 766 345 766 c 0
 381 766 414 737 419 701 c 0
 425 659 395 623 352 623 c 0xe8
384 446 m 1
 375 554 l 1
 442 554 506 539 554 512 c 1
 529 401 l 1
 499 426 445 446 384 446 c 1
109 263 m 0
 96 360 130 449 202 501 c 1
 231 274 l 2
 244 181 324 93 443 93 c 0
 512 93 565 112 586 143 c 1
 630 41 l 1
 591 11 535 -14 445 -14 c 0
 258 -14 130 115 109 263 c 0
EndSplineSet
EndChar

StartChar: d
Encoding: 100 100 149
Width: 673
Flags: MW
HStem: -14 21G<329.5 410> 456 98<318.5 387.5 268 401.5>
VStem: 107 121
LayerCount: 2
Fore
SplineSet
410 -14 m 1
 249 -14 133 98 110 260 c 0
 87 425 190 554 346 554 c 0
 429 554 480 520 506 492 c 1
 464 780 l 1
 586 787 l 1
 677 140 l 2
 684 91 696 51 712 27 c 1
 614 -16 l 1
 599 -5 571 20 565 55 c 2
 521 365 l 1
 495 408 440 456 363 456 c 0
 274 456 215 384 231 274 c 0
 246 169 322 98 402 89 c 1
 410 -14 l 1
EndSplineSet
EndChar

StartChar: eth
Encoding: 240 240 150
Width: 638
Flags: MW
HStem: -14 113<375 469.5 375 501> 407 107<326 381.5 269 418>
VStem: 532 122
LayerCount: 2
Fore
SplineSet
421 -14 m 0
 255 -14 138 82 115 244 c 0
 92 411 204 514 334 514 c 0
 429 514 485 462 501 435 c 1
 487 492 449 551 397 597 c 1
 360 548 l 1
 287 599 l 1
 322 651 l 1
 285 671 244 686 203 694 c 1
 260 771 l 1
 302 764 343 750 383 730 c 1
 417 776 l 1
 488 721 l 1
 458 679 l 1
 555 601 627 480 649 325 c 0
 678 118 581 -14 421 -14 c 0
418 99 m 0
 521 99 541 197 529 276 c 0
 520 319 471 407 365 407 c 0
 287 407 231 348 243 258 c 0
 257 159 332 99 418 99 c 0
EndSplineSet
EndChar

StartChar: dcaron
Encoding: 271 271 151
Width: 745
Flags: MW
HStem: -14 21G<329.5 410> 456 98<318.5 387.5 268 401.5> 601 183<672 672 672 751>
VStem: 107 121 667 90
LayerCount: 2
Fore
SplineSet
410 -14 m 1
 249 -14 133 98 110 260 c 0
 87 425 190 554 346 554 c 0
 429 554 480 520 506 492 c 1
 464 780 l 1
 586 787 l 1
 677 140 l 2
 684 91 696 51 712 27 c 1
 614 -16 l 1
 599 -5 571 20 565 55 c 2
 521 365 l 1
 495 408 440 456 363 456 c 0
 274 456 215 384 231 274 c 0
 246 169 322 98 402 89 c 1
 410 -14 l 1
672 601 m 1
 662 784 l 1
 764 784 l 1
 751 601 l 1
 672 601 l 1
EndSplineSet
EndChar

StartChar: dcroat
Encoding: 273 273 152
Width: 692
Flags: MW
HStem: -14 21G<329.5 410> 456 98<318.5 387.5 268 401.5> 601 90 607 90
VStem: 107 121
LayerCount: 2
Fore
SplineSet
677 140 m 2xe8
 684 91 696 51 712 27 c 1
 614 -16 l 1
 599 -5 571 20 565 55 c 2
 521 365 l 1
 495 408 440 456 363 456 c 0
 274 456 215 384 231 274 c 0
 246 169 322 98 402 89 c 1
 410 -14 l 1
 249 -14 133 98 110 260 c 0
 87 425 190 554 346 554 c 0
 429 554 480 520 506 492 c 1
 490 603 l 1
 378 600 l 1
 377 630 372 660 365 690 c 1
 477 693 l 1
 464 780 l 1
 586 787 l 1xe8
 599 696 l 1
 678 698 l 1
 679 668 684 638 691 608 c 1
 611 606 l 1xd8
 677 140 l 2xe8
EndSplineSet
EndChar

StartChar: e
Encoding: 101 101 153
Width: 610
Flags: MW
HStem: -14 107<395.5 479 395.5 487> 230 90 532 20G<382 382>
VStem: 106 554 513 121
LayerCount: 2
Fore
SplineSet
382 552 m 1xf0
 533 536 617 425 634 305 c 0
 637 278 636 246 633 232 c 1
 424 229 l 1
 411 323 l 1
 513 319 l 1xe8
 504 387 454 436 390 449 c 1
 382 552 l 1xf0
110 258 m 0
 94 369 129 466 207 516 c 1
 244 233 l 1
 260 144 350 93 441 93 c 0
 517 93 586 109 622 141 c 1
 660 47 l 1
 620 12 539 -14 435 -14 c 0
 260 -14 133 92 110 258 c 0
EndSplineSet
EndChar

StartChar: eacute
Encoding: 233 233 154
Width: 610
Flags: MW
HStem: -14 107<395.5 479 395.5 487> 230 90 532 20G<382 382>
VStem: 106 554 513 121
LayerCount: 2
Fore
SplineSet
239 610 m 1xf0
 340 789 l 1
 436 723 l 1
 340 610 l 1
 239 610 l 1xf0
382 552 m 1
 533 536 617 425 634 305 c 0
 637 278 636 246 633 232 c 1
 424 229 l 1
 411 323 l 1
 513 319 l 1xe8
 504 387 454 436 390 449 c 1
 382 552 l 1
110 258 m 0
 94 369 129 466 207 516 c 1
 244 233 l 1
 260 144 350 93 441 93 c 0
 517 93 586 109 622 141 c 1
 660 47 l 1
 620 12 539 -14 435 -14 c 0
 260 -14 133 92 110 258 c 0
EndSplineSet
EndChar

StartChar: ebreve
Encoding: 277 277 155
Width: 610
Flags: MW
HStem: -14 107<395.5 479 395.5 487> 230 90 532 20G<382 382> 599 81<305.5 347 305.5 370>
VStem: 106 554 513 121
LayerCount: 2
Fore
SplineSet
327 599 m 0xf8
 246 599 184 643 160 707 c 1
 225 737 l 1
 243 707 283 680 328 680 c 0
 366 680 395 703 404 731 c 1
 472 713 l 1
 466 649 413 599 327 599 c 0xf8
382 552 m 1
 533 536 617 425 634 305 c 0
 637 278 636 246 633 232 c 1
 424 229 l 1
 411 323 l 1
 513 319 l 1xf4
 504 387 454 436 390 449 c 1
 382 552 l 1
110 258 m 0
 94 369 129 466 207 516 c 1
 244 233 l 1
 260 144 350 93 441 93 c 0
 517 93 586 109 622 141 c 1
 660 47 l 1
 620 12 539 -14 435 -14 c 0
 260 -14 133 92 110 258 c 0
EndSplineSet
EndChar

StartChar: ecaron
Encoding: 283 283 156
Width: 610
Flags: MW
HStem: -14 107<395.5 479 395.5 487> 230 90 532 20G<382 382>
VStem: 106 554 513 121
LayerCount: 2
Fore
SplineSet
288 605 m 1xf0
 153 749 l 1
 210 789 l 1
 324 685 l 1
 411 789 l 1
 474 749 l 1
 377 605 l 1
 288 605 l 1xf0
382 552 m 1
 533 536 617 425 634 305 c 0
 637 278 636 246 633 232 c 1
 424 229 l 1
 411 323 l 1
 513 319 l 1xe8
 504 387 454 436 390 449 c 1
 382 552 l 1
110 258 m 0
 94 369 129 466 207 516 c 1
 244 233 l 1
 260 144 350 93 441 93 c 0
 517 93 586 109 622 141 c 1
 660 47 l 1
 620 12 539 -14 435 -14 c 0
 260 -14 133 92 110 258 c 0
EndSplineSet
EndChar

StartChar: ecircumflex
Encoding: 234 234 157
Width: 610
Flags: MW
HStem: -14 107<395.5 479 395.5 487> 230 90 532 20G<382 382>
VStem: 106 554 513 121
LayerCount: 2
Fore
SplineSet
232 594 m 1xf0
 169 634 l 1
 265 778 l 1
 354 778 l 1
 490 634 l 1
 433 594 l 1
 317 698 l 1
 232 594 l 1xf0
382 552 m 1
 533 536 617 425 634 305 c 0
 637 278 636 246 633 232 c 1
 424 229 l 1
 411 323 l 1
 513 319 l 1xe8
 504 387 454 436 390 449 c 1
 382 552 l 1
110 258 m 0
 94 369 129 466 207 516 c 1
 244 233 l 1
 260 144 350 93 441 93 c 0
 517 93 586 109 622 141 c 1
 660 47 l 1
 620 12 539 -14 435 -14 c 0
 260 -14 133 92 110 258 c 0
EndSplineSet
EndChar

StartChar: edieresis
Encoding: 235 235 158
Width: 610
Flags: MW
HStem: -14 107<395.5 479 395.5 487> 230 90 532 20G<382 382> 624 119<205.5 232.5 199 239 405.5 432.5>
VStem: 106 554 160 118 361 116 513 121
LayerCount: 2
Fore
SplineSet
221 624 m 0xf7
 190 624 165 646 160 676 c 0
 155 713 180 743 218 743 c 0
 247 743 274 721 278 690 c 0
 284 654 257 624 221 624 c 0xf7
421 624 m 0
 390 624 366 646 361 676 c 0
 356 713 380 743 418 743 c 0
 447 743 473 721 477 690 c 0
 483 654 457 624 421 624 c 0
382 552 m 1
 533 536 617 425 634 305 c 0
 637 278 636 246 633 232 c 1
 424 229 l 1
 411 323 l 1
 513 319 l 1
 504 387 454 436 390 449 c 1
 382 552 l 1
110 258 m 0
 94 369 129 466 207 516 c 1
 244 233 l 1
 260 144 350 93 441 93 c 0
 517 93 586 109 622 141 c 1
 660 47 l 1
 620 12 539 -14 435 -14 c 0
 260 -14 133 92 110 258 c 0
EndSplineSet
EndChar

StartChar: edotaccent
Encoding: 279 279 159
Width: 610
Flags: MW
HStem: -14 107<395.5 479 395.5 487> 230 90 532 20G<382 382> 623 143<312 341 301.5 351.5>
VStem: 106 554 256 141 513 121
LayerCount: 2
Fore
SplineSet
330 623 m 0xf6
 294 623 261 651 256 687 c 0
 250 729 280 766 323 766 c 0
 359 766 392 737 397 701 c 0
 403 659 373 623 330 623 c 0xf6
382 552 m 1
 533 536 617 425 634 305 c 0
 637 278 636 246 633 232 c 1
 424 229 l 1
 411 323 l 1
 513 319 l 1
 504 387 454 436 390 449 c 1
 382 552 l 1
110 258 m 0
 94 369 129 466 207 516 c 1
 244 233 l 1
 260 144 350 93 441 93 c 0
 517 93 586 109 622 141 c 1
 660 47 l 1
 620 12 539 -14 435 -14 c 0
 260 -14 133 92 110 258 c 0
EndSplineSet
EndChar

StartChar: egrave
Encoding: 232 232 160
Width: 610
Flags: MW
HStem: -14 107<395.5 479 395.5 487> 230 90 532 20G<382 382>
VStem: 106 554 513 121
LayerCount: 2
Fore
SplineSet
306 610 m 1xf0
 182 723 l 1
 264 789 l 1
 413 610 l 1
 306 610 l 1xf0
382 552 m 1
 533 536 617 425 634 305 c 0
 637 278 636 246 633 232 c 1
 424 229 l 1
 411 323 l 1
 513 319 l 1xe8
 504 387 454 436 390 449 c 1
 382 552 l 1
110 258 m 0
 94 369 129 466 207 516 c 1
 244 233 l 1
 260 144 350 93 441 93 c 0
 517 93 586 109 622 141 c 1
 660 47 l 1
 620 12 539 -14 435 -14 c 0
 260 -14 133 92 110 258 c 0
EndSplineSet
EndChar

StartChar: emacron
Encoding: 275 275 161
Width: 610
Flags: MW
HStem: -14 107<395.5 479 395.5 487> 230 90 532 20G<382 382> 626 68
VStem: 106 554 513 121
LayerCount: 2
Fore
SplineSet
154 622 m 1xf8
 154 645 150 667 144 690 c 1
 484 698 l 1
 484 675 488 653 494 630 c 1
 154 622 l 1xf8
382 552 m 1
 533 536 617 425 634 305 c 0
 637 278 636 246 633 232 c 1
 424 229 l 1
 411 323 l 1
 513 319 l 1xf4
 504 387 454 436 390 449 c 1
 382 552 l 1
110 258 m 0
 94 369 129 466 207 516 c 1
 244 233 l 1
 260 144 350 93 441 93 c 0
 517 93 586 109 622 141 c 1
 660 47 l 1
 620 12 539 -14 435 -14 c 0
 260 -14 133 92 110 258 c 0
EndSplineSet
EndChar

StartChar: eogonek
Encoding: 281 281 162
Width: 610
Flags: MW
HStem: -191 77<575 585> -14 21G -14 107<395.5 448> -9 21G 230 90 532 20G<382 382>
VStem: 472 64 513 121
LayerCount: 2
Fore
SplineSet
513 319 m 1x2d
 504 387 454 436 390 449 c 1
 382 552 l 1
 533 536 617 425 634 305 c 0
 637 278 636 246 633 232 c 1
 424 229 l 1
 411 323 l 1
 513 319 l 1x2d
587 -114 m 0xce
 595 -114 604 -112 607 -109 c 2
 629 -168 l 1
 622 -178 598 -191 572 -191 c 0
 524 -191 479 -161 472 -108 c 0x9e
 465 -63 486 -29 508 -9 c 1
 485 -12 461 -14 435 -14 c 0
 260 -14 133 92 110 258 c 0
 94 369 129 466 207 516 c 1
 244 233 l 1
 260 144 350 93 441 93 c 0
 517 93 586 109 622 141 c 1
 660 47 l 1x2e
 642 31 616 17 583 7 c 1
 586 7 l 1
 557 -4 531 -35 536 -70 c 0
 540 -97 563 -114 587 -114 c 0xce
EndSplineSet
EndChar

StartChar: f
Encoding: 102 102 163
Width: 487
GlyphClass: 5
Flags: MW
HStem: -227 118<185 291.5> 438 103<112 112 112 182 305 449> 689 106<328.5 354.5 277.5 366>
VStem: 172 125 260 123
LayerCount: 2
Fore
SplineSet
112 438 m 1xe8
 97 541 l 1
 182 541 l 1
 175 591 l 2
 157 727 225 795 330 795 c 0
 379 795 414 783 437 767 c 1
 422 670 l 1
 409 678 386 689 346 689 c 0
 311 689 288 665 297 599 c 2
 305 541 l 1xf0
 449 541 l 1
 464 438 l 1
 112 438 l 1xe8
239 -227 m 0
 225 -227 205 -221 198 -217 c 1
 143 -98 l 1
 156 -105 176 -109 194 -109 c 0
 245 -109 267 -65 260 -9 c 2
 228 216 l 1
 350 216 l 1
 379 7 l 2xe8
 400 -139 344 -227 239 -227 c 0
EndSplineSet
EndChar

StartChar: g
Encoding: 103 103 164
Width: 633
Flags: MW
HStem: -229 107<402.5 457 402.5 522.5> -2 21G<547 547> 465 89<606.5 615 587 621> 528 20G<289 289> 531 20G<397 397> 534 20G<587 615>
VStem: 134 559 136 113 401 217
LayerCount: 2
Fore
SplineSet
442 186 m 1xc6
 435 284 l 1
 472 298 487 324 482 359 c 0
 476 401 445 435 405 449 c 1
 397 551 l 1xc980
 443 544 477 529 507 506 c 1
 525 530 559 554 615 554 c 1
 621 465 l 1
 592 465 570 459 559 445 c 1
 576 429 589 400 593 373 c 0xe080
 606 278 550 204 442 186 c 1xc6
151 144 m 0
 144 198 181 238 203 247 c 1
 180 264 144 300 136 359 c 0
 122 456 191 529 289 548 c 1
 297 450 l 1xd1
 262 436 244 409 249 373 c 0
 255 333 286 301 326 286 c 1
 334 185 l 1
 306 190 283 197 265 207 c 1
 260 204 255 190 256 177 c 0
 262 135 331 114 440 118 c 0
 576 124 656 78 688 3 c 1
 547 -2 l 1
 520 15 473 27 403 23 c 0
 271 15 162 69 151 144 c 0
174 -51 m 0
 172 -39 173 -28 175 -19 c 1
 288 -52 l 1
 296 -84 348 -122 457 -122 c 2
 693 -119 l 1
 667 -189 582 -229 463 -229 c 0xc5
 290 -229 189 -160 174 -51 c 0
EndSplineSet
EndChar

StartChar: gbreve
Encoding: 287 287 165
Width: 633
Flags: MW
HStem: -229 107<402.5 457 402.5 522.5> -2 21G<547 547> 465 89<606.5 615 587 621> 528 20G<289 289> 531 20G<397 397> 534 20G<587 615> 599 81<296.5 338 296.5 361>
VStem: 134 559 136 113 401 217
LayerCount: 2
Fore
SplineSet
318 599 m 0xc7
 237 599 175 643 151 707 c 1
 216 737 l 1
 234 707 274 680 319 680 c 0
 357 680 386 703 395 731 c 1
 463 713 l 1
 457 649 404 599 318 599 c 0xc7
442 186 m 1
 435 284 l 1
 472 298 487 324 482 359 c 0
 476 401 445 435 405 449 c 1
 397 551 l 1xcac0
 443 544 477 529 507 506 c 1
 525 530 559 554 615 554 c 1
 621 465 l 1
 592 465 570 459 559 445 c 1
 576 429 589 400 593 373 c 0xe240
 606 278 550 204 442 186 c 1
151 144 m 0
 144 198 181 238 203 247 c 1
 180 264 144 300 136 359 c 0
 122 456 191 529 289 548 c 1
 297 450 l 1xd280
 262 436 244 409 249 373 c 0
 255 333 286 301 326 286 c 1
 334 185 l 1
 306 190 283 197 265 207 c 1
 260 204 255 190 256 177 c 0
 262 135 331 114 440 118 c 0
 576 124 656 78 688 3 c 1
 547 -2 l 1
 520 15 473 27 403 23 c 0
 271 15 162 69 151 144 c 0
174 -51 m 0
 172 -39 173 -28 175 -19 c 1
 288 -52 l 1
 296 -84 348 -122 457 -122 c 2
 693 -119 l 1
 667 -189 582 -229 463 -229 c 0xc680
 290 -229 189 -160 174 -51 c 0
EndSplineSet
EndChar

StartChar: gcircumflex
Encoding: 285 285 166
Width: 633
Flags: MW
HStem: -229 107<402.5 457 402.5 522.5> -2 21G<547 547> 465 89<606.5 615 587 621> 528 20G<289 289> 531 20G<397 397> 534 20G<587 615>
VStem: 134 559 136 113 401 217
LayerCount: 2
Fore
SplineSet
223 594 m 1xc6
 160 634 l 1
 256 778 l 1
 345 778 l 1
 481 634 l 1
 424 594 l 1
 308 698 l 1
 223 594 l 1xc6
442 186 m 1
 435 284 l 1
 472 298 487 324 482 359 c 0
 476 401 445 435 405 449 c 1
 397 551 l 1xc980
 443 544 477 529 507 506 c 1
 525 530 559 554 615 554 c 1
 621 465 l 1
 592 465 570 459 559 445 c 1
 576 429 589 400 593 373 c 0xe080
 606 278 550 204 442 186 c 1
151 144 m 0
 144 198 181 238 203 247 c 1
 180 264 144 300 136 359 c 0
 122 456 191 529 289 548 c 1
 297 450 l 1xd1
 262 436 244 409 249 373 c 0
 255 333 286 301 326 286 c 1
 334 185 l 1
 306 190 283 197 265 207 c 1
 260 204 255 190 256 177 c 0
 262 135 331 114 440 118 c 0
 576 124 656 78 688 3 c 1
 547 -2 l 1
 520 15 473 27 403 23 c 0
 271 15 162 69 151 144 c 0
174 -51 m 0
 172 -39 173 -28 175 -19 c 1
 288 -52 l 1
 296 -84 348 -122 457 -122 c 2
 693 -119 l 1
 667 -189 582 -229 463 -229 c 0xc5
 290 -229 189 -160 174 -51 c 0
EndSplineSet
EndChar

StartChar: uni0123
Encoding: 291 291 167
Width: 633
Flags: MW
HStem: -229 107<402.5 457 402.5 522.5> -2 21G<547 547> 465 89<606.5 615 587 621> 528 20G<289 289> 531 20G<397 397> 534 20G<587 615>
VStem: 134 559 136 113 276 98 401 217
LayerCount: 2
Fore
SplineSet
336 598 m 1xc480
 323 601 282 620 276 668 c 0
 265 744 348 839 369 855 c 1
 422 860 l 1
 392 820 367 751 374 699 c 0
 378 670 398 648 424 632 c 1
 336 598 l 1xc480
442 186 m 1
 435 284 l 1
 472 298 487 324 482 359 c 0
 476 401 445 435 405 449 c 1
 397 551 l 1xc940
 443 544 477 529 507 506 c 1
 525 530 559 554 615 554 c 1
 621 465 l 1
 592 465 570 459 559 445 c 1
 576 429 589 400 593 373 c 0xe040
 606 278 550 204 442 186 c 1
151 144 m 0
 144 198 181 238 203 247 c 1
 180 264 144 300 136 359 c 0
 122 456 191 529 289 548 c 1
 297 450 l 1xd1
 262 436 244 409 249 373 c 0
 255 333 286 301 326 286 c 1
 334 185 l 1
 306 190 283 197 265 207 c 1
 260 204 255 190 256 177 c 0
 262 135 331 114 440 118 c 0
 576 124 656 78 688 3 c 1
 547 -2 l 1
 520 15 473 27 403 23 c 0
 271 15 162 69 151 144 c 0
174 -51 m 0
 172 -39 173 -28 175 -19 c 1
 288 -52 l 1
 296 -84 348 -122 457 -122 c 2
 693 -119 l 1
 667 -189 582 -229 463 -229 c 0xc5
 290 -229 189 -160 174 -51 c 0
EndSplineSet
EndChar

StartChar: gdotaccent
Encoding: 289 289 168
Width: 633
Flags: MW
HStem: -229 107<402.5 457 402.5 522.5> -2 21G<547 547> 465 89<606.5 615 587 621> 528 20G<289 289> 531 20G<397 397> 534 20G<587 615> 623 143<302 331 291.5 341.5>
VStem: 134 559 136 113 246 141 401 217
LayerCount: 2
Fore
SplineSet
320 623 m 0xc640
 284 623 251 651 246 687 c 0
 240 729 270 766 313 766 c 0
 349 766 382 737 387 701 c 0
 393 659 363 623 320 623 c 0xc640
442 186 m 1
 435 284 l 1
 472 298 487 324 482 359 c 0
 476 401 445 435 405 449 c 1
 397 551 l 1xcaa0
 443 544 477 529 507 506 c 1
 525 530 559 554 615 554 c 1
 621 465 l 1
 592 465 570 459 559 445 c 1
 576 429 589 400 593 373 c 0xe220
 606 278 550 204 442 186 c 1
151 144 m 0
 144 198 181 238 203 247 c 1
 180 264 144 300 136 359 c 0
 122 456 191 529 289 548 c 1
 297 450 l 1xd280
 262 436 244 409 249 373 c 0
 255 333 286 301 326 286 c 1
 334 185 l 1
 306 190 283 197 265 207 c 1
 260 204 255 190 256 177 c 0
 262 135 331 114 440 118 c 0
 576 124 656 78 688 3 c 1
 547 -2 l 1
 520 15 473 27 403 23 c 0
 271 15 162 69 151 144 c 0
174 -51 m 0
 172 -39 173 -28 175 -19 c 1
 288 -52 l 1
 296 -84 348 -122 457 -122 c 2
 693 -119 l 1
 667 -189 582 -229 463 -229 c 0xc680
 290 -229 189 -160 174 -51 c 0
EndSplineSet
EndChar

StartChar: h
Encoding: 104 104 169
Width: 601
Flags: MW
HStem: 0 21G<176 176 176 300> 435 119<357.5 409>
VStem: 67 560
LayerCount: 2
Fore
SplineSet
176 0 m 1
 67 780 l 1
 190 787 l 1
 237 465 l 1
 259 503 314 554 401 554 c 0
 518 554 591 476 609 342 c 2
 627 216 l 1
 505 216 l 1
 488 334 l 2
 481 388 441 435 377 435 c 0
 317 435 271 398 250 345 c 1
 300 0 l 1
 176 0 l 1
EndSplineSet
EndChar

StartChar: hbar
Encoding: 295 295 170
Width: 638
Flags: MW
HStem: 0 21G<176 300 176 176> 435 119<357.5 409> 601 90<20 33> 607 90
VStem: 20 607<216 691>
LayerCount: 2
Fore
SplineSet
609 342 m 2xd8
 627 216 l 1
 505 216 l 1
 488 334 l 2
 481 388 441 435 377 435 c 0
 317 435 271 398 250 345 c 1
 300 0 l 1
 176 0 l 1
 92 602 l 1
 33 601 l 1
 32 631 27 661 20 691 c 1
 79 692 l 1
 67 780 l 1
 190 787 l 1xe8
 203 695 l 1
 355 699 l 1
 356 669 361 639 368 609 c 1
 217 605 l 1
 237 465 l 1
 259 503 314 554 401 554 c 0
 518 554 591 476 609 342 c 2xd8
EndSplineSet
EndChar

StartChar: hcircumflex
Encoding: 293 293 171
Width: 628
Flags: MW
HStem: 0 21G<176 176 176 300> 435 119<357.5 409>
VStem: -2 629
LayerCount: 2
Fore
SplineSet
62 810 m 1
 -2 850 l 1
 95 994 l 1
 184 994 l 1
 319 850 l 1
 263 810 l 1
 147 914 l 1
 62 810 l 1
176 0 m 1
 67 780 l 1
 190 787 l 1
 237 465 l 1
 259 503 314 554 401 554 c 0
 518 554 591 476 609 342 c 2
 627 216 l 1
 505 216 l 1
 488 334 l 2
 481 388 441 435 377 435 c 0
 317 435 271 398 250 345 c 1
 300 0 l 1
 176 0 l 1
EndSplineSet
EndChar

StartChar: i
Encoding: 105 105 172
Width: 274
GlyphClass: 5
Flags: MW
HStem: 0 21G<180 180 180 304> 524 20G<228 228> 648 141<125 160 116 171.5>
VStem: 71 233
LayerCount: 2
Fore
SplineSet
147 648 m 0
 103 648 76 679 71 711 c 0
 66 750 92 789 140 789 c 0
 180 789 209 758 213 725 c 0
 219 687 196 648 147 648 c 0
180 0 m 1
 105 536 l 1
 228 544 l 1
 304 0 l 1
 180 0 l 1
EndSplineSet
EndChar

StartChar: dotlessi
Encoding: 305 305 173
Width: 277
Flags: MW
HStem: 0 21G<182 182 182 306> 524 20G<230 230>
VStem: 107 199
LayerCount: 2
Fore
SplineSet
182 0 m 1
 107 536 l 1
 230 544 l 1
 306 0 l 1
 182 0 l 1
EndSplineSet
EndChar

StartChar: iacute
Encoding: 237 237 174
Width: 277
Flags: MW
HStem: 0 21G<182 182 182 306> 524 20G<230 230>
VStem: 81 225
LayerCount: 2
Fore
SplineSet
81 610 m 1
 182 789 l 1
 278 723 l 1
 182 610 l 1
 81 610 l 1
182 0 m 1
 107 536 l 1
 230 544 l 1
 306 0 l 1
 182 0 l 1
EndSplineSet
EndChar

StartChar: ibreve
Encoding: 301 301 175
Width: 277
Flags: MW
HStem: 0 21G<182 182 182 306> 524 20G<230 230> 599 81<133.5 175 133.5 198>
VStem: -12 318
LayerCount: 2
Fore
SplineSet
155 599 m 0
 74 599 12 643 -12 707 c 1
 53 737 l 1
 71 707 111 680 156 680 c 0
 194 680 223 703 232 731 c 1
 300 713 l 1
 294 649 241 599 155 599 c 0
182 0 m 1
 107 536 l 1
 230 544 l 1
 306 0 l 1
 182 0 l 1
EndSplineSet
EndChar

StartChar: icircumflex
Encoding: 238 238 176
Width: 277
Flags: MW
HStem: 0 21G<182 182 182 306> 524 20G<230 230>
VStem: -3 321<634 634>
LayerCount: 2
Fore
SplineSet
60 594 m 1
 -3 634 l 1
 93 778 l 1
 182 778 l 1
 318 634 l 1
 261 594 l 1
 145 698 l 1
 60 594 l 1
182 0 m 1
 107 536 l 1
 230 544 l 1
 306 0 l 1
 182 0 l 1
EndSplineSet
EndChar

StartChar: idieresis
Encoding: 239 239 177
Width: 277
Flags: MW
HStem: 0 21G<182 182 182 306> 524 20G<230 230> 624 119<33.5 60.5 27 67 233.5 260.5>
VStem: -13 319 -12 118 189 116
LayerCount: 2
Fore
SplineSet
49 624 m 0xec
 18 624 -7 646 -12 676 c 0
 -17 713 8 743 46 743 c 0
 75 743 102 721 106 690 c 0
 112 654 85 624 49 624 c 0xec
249 624 m 0
 218 624 194 646 189 676 c 0
 184 713 208 743 246 743 c 0
 275 743 301 721 305 690 c 0
 311 654 285 624 249 624 c 0
182 0 m 1
 107 536 l 1
 230 544 l 1
 306 0 l 1
 182 0 l 1
EndSplineSet
EndChar

StartChar: i.loclTRK
Encoding: 65537 -1 178
Width: 274
Flags: MW
HStem: 0 21G<180 180 180 304> 524 20G<228 228> 648 141<125 160 116 171.5>
VStem: 71 233
LayerCount: 2
Fore
SplineSet
147 648 m 0
 103 648 76 679 71 711 c 0
 66 750 92 789 140 789 c 0
 180 789 209 758 213 725 c 0
 219 687 196 648 147 648 c 0
180 0 m 1
 105 536 l 1
 228 544 l 1
 304 0 l 1
 180 0 l 1
EndSplineSet
EndChar

StartChar: igrave
Encoding: 236 236 179
Width: 277
Flags: MW
HStem: 0 21G<182 182 182 306> 524 20G<230 230>
VStem: 15 291
LayerCount: 2
Fore
SplineSet
139 610 m 1
 15 723 l 1
 97 789 l 1
 246 610 l 1
 139 610 l 1
182 0 m 1
 107 536 l 1
 230 544 l 1
 306 0 l 1
 182 0 l 1
EndSplineSet
EndChar

StartChar: ij
Encoding: 307 307 180
Width: 546
Flags: MW
HStem: -227 118<378 483> -4 21G<452 452> 0 21G<180 180 180 304> 524 20G<228 228 499 499> 536 8 648 141<125 160 116 171.5 397 432>
VStem: 452 127
LayerCount: 2
Fore
SplineSet
147 648 m 0xb6
 103 648 76 679 71 711 c 0
 66 750 92 789 140 789 c 0
 180 789 209 758 213 725 c 0
 219 687 196 648 147 648 c 0xb6
419 648 m 0
 375 648 349 679 344 711 c 0
 339 750 364 789 412 789 c 0
 452 789 481 758 485 725 c 0
 491 687 468 648 419 648 c 0
180 0 m 1
 105 536 l 1xae
 228 544 l 1
 304 0 l 1
 180 0 l 1
421 216 m 1
 376 536 l 1xce
 499 544 l 1
 545 216 l 1
 421 216 l 1
432 -227 m 0
 416 -227 396 -222 391 -217 c 2
 337 -99 l 1
 350 -105 370 -109 386 -109 c 0
 439 -109 460 -64 452 -4 c 1
 575 4 l 1
 596 -143 534 -227 432 -227 c 0
EndSplineSet
EndChar

StartChar: imacron
Encoding: 299 299 181
Width: 277
Flags: MW
HStem: 0 21G<182 182 182 306> 524 20G<230 230> 626 68
VStem: -28 350<630 690>
LayerCount: 2
Fore
SplineSet
-18 622 m 1
 -18 645 -22 667 -28 690 c 1
 312 698 l 1
 312 675 316 653 322 630 c 1
 -18 622 l 1
182 0 m 1
 107 536 l 1
 230 544 l 1
 306 0 l 1
 182 0 l 1
EndSplineSet
EndChar

StartChar: iogonek
Encoding: 303 303 182
Width: 280
Flags: MW
HStem: -191 77<293 303> -2 21G<236 236> 0 21G<183 183 307 307> 524 20G<231 231> 648 141<128 163 119 174.5>
VStem: 74 273 190 64
LayerCount: 2
Fore
SplineSet
216 725 m 0xbc
 222 687 199 648 150 648 c 0
 106 648 79 679 74 711 c 0
 69 750 95 789 143 789 c 0
 183 789 212 758 216 725 c 0xbc
325 -109 m 2xba
 347 -168 l 1
 340 -178 316 -191 290 -191 c 0
 242 -191 197 -161 190 -108 c 0
 182 -55 211 -18 236 -2 c 1
 183 0 l 1xda
 108 536 l 1
 231 544 l 1
 307 6 l 1
 306 6 l 1
 307 0 l 1
 292 2 l 1
 267 -12 250 -40 254 -70 c 0
 258 -97 281 -114 305 -114 c 0
 313 -114 322 -112 325 -109 c 2xba
EndSplineSet
EndChar

StartChar: itilde
Encoding: 297 297 183
Width: 277
Flags: MW
HStem: 0 21G<182 182 182 306> 524 20G<230 230> 621 86<210.5 251 210.5 257> 661 87<68.5 113>
VStem: -26 353<669 685>
LayerCount: 2
Fore
SplineSet
235 621 m 0xe8
 184 621 140 661 86 661 c 0
 51 661 22 648 8 626 c 1
 -26 685 l 1
 2 719 39 748 87 748 c 0xd8
 146 748 185 707 236 707 c 0
 266 707 288 715 298 732 c 1
 327 669 l 1
 311 640 279 621 235 621 c 0xe8
182 0 m 1xd8
 107 536 l 1
 230 544 l 1
 306 0 l 1
 182 0 l 1xd8
EndSplineSet
EndChar

StartChar: j
Encoding: 106 106 184
Width: 272
Flags: MW
HStem: -227 118<104 209> -4 21G<178 178> 524 20G<225 225> 648 141<123 158 114 169.5>
VStem: 178 127
LayerCount: 2
Fore
SplineSet
145 648 m 0
 101 648 75 679 70 711 c 0
 65 750 90 789 138 789 c 0
 178 789 207 758 211 725 c 0
 217 687 194 648 145 648 c 0
147 216 m 1
 102 536 l 1
 225 544 l 1
 271 216 l 1
 147 216 l 1
158 -227 m 0
 142 -227 122 -222 117 -217 c 2
 63 -99 l 1
 76 -105 96 -109 112 -109 c 0
 165 -109 186 -64 178 -4 c 1
 301 4 l 1
 322 -143 260 -227 158 -227 c 0
EndSplineSet
EndChar

StartChar: jcircumflex
Encoding: 309 309 185
Width: 289
Flags: MW
HStem: -227 118<120 225> -4 21G<194 194> 524 20G<241 241>
VStem: 194 127
LayerCount: 2
Fore
SplineSet
68 594 m 1
 5 634 l 1
 101 778 l 1
 190 778 l 1
 326 634 l 1
 269 594 l 1
 153 698 l 1
 68 594 l 1
163 216 m 1
 118 536 l 1
 241 544 l 1
 287 216 l 1
 163 216 l 1
174 -227 m 0
 158 -227 138 -222 133 -217 c 2
 79 -99 l 1
 92 -105 112 -109 128 -109 c 0
 181 -109 202 -64 194 -4 c 1
 317 4 l 1
 338 -143 276 -227 174 -227 c 0
EndSplineSet
EndChar

StartChar: k
Encoding: 107 107 186
Width: 544
Flags: MW
HStem: 0 21G<176 176 176 300> 521 20G<417 563 563 563>
VStem: 67 496<541 780>
LayerCount: 2
Fore
SplineSet
176 0 m 1
 67 780 l 1
 188 800 l 1
 253 344 l 1
 417 541 l 1
 563 541 l 1
 402 345 l 1
 506 216 l 1
 359 216 l 1
 326 256 l 1
 273 190 l 1
 300 0 l 1
 176 0 l 1
EndSplineSet
EndChar

StartChar: uni0137
Encoding: 311 311 187
Width: 544
Flags: MW
HStem: 0 21G<176 176 176 300> 521 20G<417 563 563 563>
VStem: 67 496<541 780> 386 99
LayerCount: 2
Fore
SplineSet
176 0 m 1xe0
 67 780 l 1
 188 800 l 1
 253 344 l 1
 417 541 l 1
 563 541 l 1
 402 345 l 1
 506 216 l 1
 359 216 l 1
 326 256 l 1
 273 190 l 1
 300 0 l 1
 176 0 l 1xe0
338 -317 m 1xd0
 368 -277 394 -208 386 -156 c 0
 382 -127 362 -105 337 -89 c 1
 424 -55 l 1
 438 -58 478 -77 485 -125 c 0
 496 -201 412 -296 392 -312 c 1
 338 -317 l 1xd0
EndSplineSet
EndChar

StartChar: l
Encoding: 108 108 188
Width: 264
GlyphClass: 5
Flags: MW
HStem: 0 21G<176 176 176 300>
VStem: 67 233
LayerCount: 2
Fore
SplineSet
176 0 m 1
 67 780 l 1
 190 787 l 1
 300 0 l 1
 176 0 l 1
EndSplineSet
EndChar

StartChar: lacute
Encoding: 314 314 189
Width: 277
Flags: MW
HStem: 0 21G<182 182 182 306>
VStem: 57 249
LayerCount: 2
Fore
SplineSet
57 826 m 1
 157 1005 l 1
 253 939 l 1
 158 826 l 1
 57 826 l 1
182 0 m 1
 73 780 l 1
 196 787 l 1
 306 0 l 1
 182 0 l 1
EndSplineSet
EndChar

StartChar: lcaron
Encoding: 318 318 190
Width: 350
Flags: MW
HStem: 0 21G<182 182 182 306> 601 183<278 278 278 357>
VStem: 274 90
LayerCount: 2
Fore
SplineSet
182 0 m 1
 73 780 l 1
 196 787 l 1
 306 0 l 1
 182 0 l 1
278 601 m 1
 270 784 l 1
 371 784 l 1
 357 601 l 1
 278 601 l 1
EndSplineSet
EndChar

StartChar: uni013C
Encoding: 316 316 191
Width: 277
Flags: MW
HStem: 0 21G<182 182 182 306>
VStem: 73 259 232 99
LayerCount: 2
Fore
SplineSet
182 0 m 1xc0
 73 780 l 1
 196 787 l 1
 306 0 l 1
 182 0 l 1xc0
184 -317 m 1xa0
 214 -277 240 -208 232 -156 c 0
 228 -127 208 -105 183 -89 c 1
 270 -55 l 1
 284 -58 324 -77 331 -125 c 0
 342 -201 258 -296 238 -312 c 1
 184 -317 l 1xa0
EndSplineSet
EndChar

StartChar: ldot
Encoding: 320 320 192
Width: 410
Flags: MW
HStem: 0 21G<182 182 182 306> 310 141<373.5 408.5 364.5 420>
VStem: 73 390
LayerCount: 2
Fore
SplineSet
182 0 m 1
 73 780 l 1
 196 787 l 1
 306 0 l 1
 182 0 l 1
395 310 m 0
 352 310 325 340 320 374 c 0
 314 412 340 451 389 451 c 0
 428 451 457 420 462 388 c 0
 468 348 445 310 395 310 c 0
EndSplineSet
EndChar

StartChar: lslash
Encoding: 322 322 193
Width: 309
Flags: MW
HStem: 0 21G<198 198 198 322>
VStem: 70 282<329 384>
LayerCount: 2
Fore
SplineSet
198 0 m 1
 161 264 l 1
 84 217 l 1
 70 329 l 1
 146 377 l 1
 89 780 l 1
 212 787 l 1
 260 448 l 1
 337 497 l 1
 352 384 l 1
 275 335 l 1
 322 0 l 1
 198 0 l 1
EndSplineSet
EndChar

StartChar: m
Encoding: 109 109 194
Width: 910
Flags: MW
HStem: 0 21G<502 502 502 626> 439 115<350 379.5> 442 112<660 705> 521 20G<90 214 214 214>
VStem: 90 836<216 541>
LayerCount: 2
Fore
SplineSet
502 0 m 1xa8
 455 338 l 2
 446 398 406 439 353 439 c 0
 307 439 259 407 237 366 c 1xc8
 260 216 l 1
 136 216 l 1
 90 541 l 1
 214 541 l 1x98
 226 472 l 1
 252 509 313 554 387 554 c 0
 464 554 510 516 537 474 c 1
 566 510 617 554 703 554 c 0
 820 554 889 479 908 343 c 2
 926 216 l 1
 804 216 l 1
 787 335 l 2
 778 398 732 442 678 442 c 0
 630 442 591 411 572 372 c 1
 626 0 l 1
 502 0 l 1xa8
EndSplineSet
EndChar

StartChar: n
Encoding: 110 110 195
Width: 614
Flags: MW
HStem: 0 21G<527 650 527 527> 435 119<347.5 395> 521 20G<90 214 214 214>
VStem: 90 560<0 541>
LayerCount: 2
Fore
SplineSet
136 216 m 1xd0
 90 541 l 1
 214 541 l 1xb0
 227 464 l 1
 249 501 305 554 390 554 c 0
 513 554 582 488 603 340 c 2
 650 0 l 1
 527 0 l 1
 481 332 l 2
 472 393 422 435 368 435 c 0
 309 435 266 398 240 345 c 1
 260 216 l 1
 136 216 l 1xd0
EndSplineSet
EndChar

StartChar: nacute
Encoding: 324 324 196
Width: 614
Flags: MW
HStem: 0 21G<527 650 527 527> 435 119<347.5 395> 521 20G<90 214 214 214>
VStem: 90 560<0 541>
LayerCount: 2
Fore
SplineSet
216 610 m 1xd0
 317 789 l 1
 413 723 l 1
 317 610 l 1
 216 610 l 1xd0
136 216 m 1
 90 541 l 1
 214 541 l 1xb0
 227 464 l 1
 249 501 305 554 390 554 c 0
 513 554 582 488 603 340 c 2
 650 0 l 1
 527 0 l 1
 481 332 l 2
 472 393 422 435 368 435 c 0
 309 435 266 398 240 345 c 1
 260 216 l 1
 136 216 l 1
EndSplineSet
EndChar

StartChar: ncaron
Encoding: 328 328 197
Width: 614
Flags: MW
HStem: 0 21G<527 650 527 527> 435 119<347.5 395> 521 20G<90 214 214 214>
VStem: 90 560<0 541>
LayerCount: 2
Fore
SplineSet
291 605 m 1xd0
 156 749 l 1
 213 789 l 1
 327 685 l 1
 414 789 l 1
 477 749 l 1
 380 605 l 1
 291 605 l 1xd0
136 216 m 1
 90 541 l 1
 214 541 l 1xb0
 227 464 l 1
 249 501 305 554 390 554 c 0
 513 554 582 488 603 340 c 2
 650 0 l 1
 527 0 l 1
 481 332 l 2
 472 393 422 435 368 435 c 0
 309 435 266 398 240 345 c 1
 260 216 l 1
 136 216 l 1
EndSplineSet
EndChar

StartChar: uni0146
Encoding: 326 326 198
Width: 614
Flags: MW
HStem: 0 21G<527 650 527 527> 435 119<347.5 395> 521 20G<90 214 214 214>
VStem: 90 560<0 541> 399 99
LayerCount: 2
Fore
SplineSet
136 216 m 1xd0
 90 541 l 1
 214 541 l 1xb0
 227 464 l 1
 249 501 305 554 390 554 c 0
 513 554 582 488 603 340 c 2
 650 0 l 1
 527 0 l 1
 481 332 l 2
 472 393 422 435 368 435 c 0
 309 435 266 398 240 345 c 1
 260 216 l 1
 136 216 l 1xd0
351 -317 m 1xc8
 381 -277 407 -208 399 -156 c 0
 395 -127 375 -105 350 -89 c 1
 437 -55 l 1
 451 -58 491 -77 498 -125 c 0
 509 -201 425 -296 405 -312 c 1
 351 -317 l 1xc8
EndSplineSet
EndChar

StartChar: eng
Encoding: 331 331 199
Width: 614
Flags: MW
HStem: -228 117<454 564.5> 435 119<347.5 395> 521 20G<90 214 214 214>
VStem: 529 125
LayerCount: 2
Fore
SplineSet
507 -228 m 0xd0
 492 -228 472 -222 465 -218 c 1
 412 -101 l 1
 425 -107 445 -111 463 -111 c 0
 514 -111 536 -65 529 -10 c 2
 481 332 l 2
 472 393 422 435 368 435 c 0
 309 435 266 398 240 345 c 1xd0
 260 216 l 1
 136 216 l 1
 90 541 l 1
 214 541 l 1xb0
 227 464 l 1
 249 501 305 554 390 554 c 0
 513 554 583 480 603 340 c 2
 651 -2 l 2
 668 -126 622 -228 507 -228 c 0xd0
EndSplineSet
EndChar

StartChar: ntilde
Encoding: 241 241 200
Width: 614
Flags: MW
HStem: 0 21G<527 650 527 527> 435 119<347.5 395> 521 20G<90 214 214 214> 621 86<386.5 427 386.5 433> 661 87<244.5 289>
VStem: 90 560<0 541>
LayerCount: 2
Fore
SplineSet
411 621 m 0xd4
 360 621 316 661 262 661 c 0
 227 661 198 648 184 626 c 1
 150 685 l 1
 178 719 215 748 263 748 c 0xcc
 322 748 361 707 412 707 c 0
 442 707 464 715 474 732 c 1
 503 669 l 1
 487 640 455 621 411 621 c 0xd4
136 216 m 1
 90 541 l 1
 214 541 l 1xac
 227 464 l 1
 249 501 305 554 390 554 c 0
 513 554 582 488 603 340 c 2
 650 0 l 1
 527 0 l 1
 481 332 l 2
 472 393 422 435 368 435 c 0
 309 435 266 398 240 345 c 1xcc
 260 216 l 1
 136 216 l 1
EndSplineSet
EndChar

StartChar: o
Encoding: 111 111 201
Width: 678
Flags: MW
HStem: -6 21G<361 361> -4 21G<523 523> 523 20G<290 290> 526 20G<452 452>
VStem: 106 124 583 125
LayerCount: 2
Fore
SplineSet
523 -4 m 1x5c
 513 109 l 1
 570 136 593 195 583 263 c 0
 573 334 526 398 462 428 c 1
 452 546 l 1
 590 512 688 403 705 279 c 0
 724 143 655 27 523 -4 c 1x5c
361 -6 m 1xac
 221 25 128 132 109 263 c 0
 91 393 163 509 290 543 c 1
 300 431 l 1
 245 401 221 342 230 277 c 0
 241 202 287 140 351 112 c 1
 361 -6 l 1xac
EndSplineSet
EndChar

StartChar: oacute
Encoding: 243 243 202
Width: 678
Flags: MW
HStem: -6 21G<361 361> -4 21G<523 523> 523 20G<290 290> 526 20G<452 452>
VStem: 106 124 583 125
LayerCount: 2
Fore
SplineSet
269 610 m 1x5c
 370 789 l 1
 466 723 l 1
 370 610 l 1
 269 610 l 1x5c
523 -4 m 1
 513 109 l 1
 570 136 593 195 583 263 c 0
 573 334 526 398 462 428 c 1
 452 546 l 1
 590 512 688 403 705 279 c 0
 724 143 655 27 523 -4 c 1
361 -6 m 1xac
 221 25 128 132 109 263 c 0
 91 393 163 509 290 543 c 1
 300 431 l 1
 245 401 221 342 230 277 c 0
 241 202 287 140 351 112 c 1
 361 -6 l 1xac
EndSplineSet
EndChar

StartChar: obreve
Encoding: 335 335 203
Width: 678
Flags: MW
HStem: -6 21G<361 361> -4 21G<523 523> 523 20G<290 290> 526 20G<452 452> 599 81<335.5 377 335.5 400>
VStem: 106 124 583 125
LayerCount: 2
Fore
SplineSet
357 599 m 0x5e
 276 599 214 643 190 707 c 1
 255 737 l 1
 273 707 313 680 358 680 c 0
 396 680 425 703 434 731 c 1
 502 713 l 1
 496 649 443 599 357 599 c 0x5e
523 -4 m 1
 513 109 l 1
 570 136 593 195 583 263 c 0
 573 334 526 398 462 428 c 1
 452 546 l 1
 590 512 688 403 705 279 c 0
 724 143 655 27 523 -4 c 1
361 -6 m 1xae
 221 25 128 132 109 263 c 0
 91 393 163 509 290 543 c 1
 300 431 l 1
 245 401 221 342 230 277 c 0
 241 202 287 140 351 112 c 1
 361 -6 l 1xae
EndSplineSet
EndChar

StartChar: ocircumflex
Encoding: 244 244 204
Width: 678
Flags: MW
HStem: -6 21G<361 361> -4 21G<523 523> 523 20G<290 290> 526 20G<452 452>
VStem: 106 124 583 125
LayerCount: 2
Fore
SplineSet
262 594 m 1x5c
 199 634 l 1
 295 778 l 1
 384 778 l 1
 520 634 l 1
 463 594 l 1
 347 698 l 1
 262 594 l 1x5c
523 -4 m 1
 513 109 l 1
 570 136 593 195 583 263 c 0
 573 334 526 398 462 428 c 1
 452 546 l 1
 590 512 688 403 705 279 c 0
 724 143 655 27 523 -4 c 1
361 -6 m 1xac
 221 25 128 132 109 263 c 0
 91 393 163 509 290 543 c 1
 300 431 l 1
 245 401 221 342 230 277 c 0
 241 202 287 140 351 112 c 1
 361 -6 l 1xac
EndSplineSet
EndChar

StartChar: odieresis
Encoding: 246 246 205
Width: 678
Flags: MW
HStem: -6 21G<361 361> -4 21G<523 523> 523 20G<290 290> 526 20G<452 452> 624 119<235.5 262.5 229 269 435.5 462.5>
VStem: 106 124 190 118 391 116 583 125
LayerCount: 2
Fore
SplineSet
251 624 m 0x5b80
 220 624 195 646 190 676 c 0
 185 713 210 743 248 743 c 0
 277 743 304 721 308 690 c 0
 314 654 287 624 251 624 c 0x5b80
451 624 m 0
 420 624 396 646 391 676 c 0
 386 713 410 743 448 743 c 0
 477 743 503 721 507 690 c 0
 513 654 487 624 451 624 c 0
523 -4 m 1
 513 109 l 1
 570 136 593 195 583 263 c 0
 573 334 526 398 462 428 c 1
 452 546 l 1
 590 512 688 403 705 279 c 0
 724 143 655 27 523 -4 c 1
361 -6 m 1xad80
 221 25 128 132 109 263 c 0
 91 393 163 509 290 543 c 1
 300 431 l 1
 245 401 221 342 230 277 c 0
 241 202 287 140 351 112 c 1
 361 -6 l 1xad80
EndSplineSet
EndChar

StartChar: ograve
Encoding: 242 242 206
Width: 678
Flags: MW
HStem: -6 21G<361 361> -4 21G<523 523> 523 20G<290 290> 526 20G<452 452>
VStem: 106 124 583 125
LayerCount: 2
Fore
SplineSet
338 610 m 1x5c
 214 723 l 1
 296 789 l 1
 445 610 l 1
 338 610 l 1x5c
523 -4 m 1
 513 109 l 1
 570 136 593 195 583 263 c 0
 573 334 526 398 462 428 c 1
 452 546 l 1
 590 512 688 403 705 279 c 0
 724 143 655 27 523 -4 c 1
361 -6 m 1xac
 221 25 128 132 109 263 c 0
 91 393 163 509 290 543 c 1
 300 431 l 1
 245 401 221 342 230 277 c 0
 241 202 287 140 351 112 c 1
 361 -6 l 1xac
EndSplineSet
EndChar

StartChar: ohungarumlaut
Encoding: 337 337 207
Width: 678
Flags: MW
HStem: -6 21G<361 361> -4 21G<523 523> 523 20G<290 290> 526 20G<452 452> 605 168<241 241 241 313 430 464 240 387>
VStem: 106 124 240 54 583 125
LayerCount: 2
Fore
SplineSet
241 605 m 1x9f
 240 773 l 1
 352 773 l 1
 313 605 l 1
 241 605 l 1x9f
387 605 m 1
 430 773 l 1
 542 773 l 1x5d
 464 605 l 1
 387 605 l 1
523 -4 m 1x6f
 513 109 l 1
 570 136 593 195 583 263 c 0
 573 334 526 398 462 428 c 1
 452 546 l 1x9f
 590 512 688 403 705 279 c 0x6d
 724 143 655 27 523 -4 c 1x6f
361 -6 m 1
 221 25 128 132 109 263 c 0
 91 393 163 509 290 543 c 1
 300 431 l 1
 245 401 221 342 230 277 c 0
 241 202 287 140 351 112 c 1x5d
 361 -6 l 1
EndSplineSet
EndChar

StartChar: omacron
Encoding: 333 333 208
Width: 678
Flags: MW
HStem: -6 21G<361 361> -4 21G<523 523> 523 20G<290 290> 526 20G<452 452> 626 68
VStem: 106 124 583 125
LayerCount: 2
Fore
SplineSet
184 622 m 1x5e
 184 645 180 667 174 690 c 1
 514 698 l 1
 514 675 518 653 524 630 c 1
 184 622 l 1x5e
523 -4 m 1
 513 109 l 1
 570 136 593 195 583 263 c 0
 573 334 526 398 462 428 c 1
 452 546 l 1
 590 512 688 403 705 279 c 0
 724 143 655 27 523 -4 c 1
361 -6 m 1xae
 221 25 128 132 109 263 c 0
 91 393 163 509 290 543 c 1
 300 431 l 1
 245 401 221 342 230 277 c 0
 241 202 287 140 351 112 c 1
 361 -6 l 1xae
EndSplineSet
EndChar

StartChar: oslash
Encoding: 248 248 209
Width: 678
Flags: MW
HStem: -14 107<426 492.5 426 534.5> 447 107<323.5 389>
VStem: 107 601
LayerCount: 2
Fore
SplineSet
109 263 m 0
 88 418 194 554 374 554 c 0
 419 554 463 545 505 528 c 1
 541 590 l 1
 624 531 l 1
 372 103 l 1
 392 97 413 93 439 93 c 0
 546 93 597 168 584 266 c 1
 661 398 l 1
 685 360 700 319 705 279 c 0
 728 118 628 -14 441 -14 c 0
 396 -14 351 -6 310 9 c 1
 277 -49 l 1
 193 10 l 1
 444 435 l 1
 424 442 402 447 376 447 c 0
 271 447 218 369 230 274 c 1
 153 139 l 1
 130 177 116 219 109 263 c 0
EndSplineSet
EndChar

StartChar: oslashacute
Encoding: 511 511 210
Width: 678
Flags: MW
HStem: -14 107<426 492.5 426 534.5> 447 107<323.5 389>
VStem: 583 125
LayerCount: 2
Fore
SplineSet
285 610 m 1
 386 789 l 1
 482 723 l 1
 386 610 l 1
 285 610 l 1
277 -49 m 1
 193 10 l 1
 222 60 l 1
 159 112 121 183 109 263 c 0
 88 418 194 554 374 554 c 0
 419 554 463 545 505 528 c 1
 541 590 l 1
 624 531 l 1
 592 475 l 1
 655 423 695 353 705 279 c 0
 728 118 628 -14 441 -14 c 0
 396 -14 351 -6 310 9 c 1
 277 -49 l 1
284 161 m 1
 444 435 l 1
 424 442 402 447 376 447 c 0
 271 447 218 369 230 277 c 0
 237 231 257 191 284 161 c 1
439 93 m 0
 546 93 597 168 583 263 c 0
 577 306 558 345 530 375 c 1
 372 103 l 1
 392 97 413 93 439 93 c 0
EndSplineSet
EndChar

StartChar: otilde
Encoding: 245 245 211
Width: 678
Flags: MW
HStem: -6 21G<361 361> -4 21G<523 523> 523 20G<290 290> 526 20G<452 452> 621 86<416.5 457 416.5 463> 661 87<274.5 319>
VStem: 106 124 583 125
LayerCount: 2
Fore
SplineSet
441 621 m 0x5b
 390 621 346 661 292 661 c 0
 257 661 228 648 214 626 c 1
 180 685 l 1
 208 719 245 748 293 748 c 0x57
 352 748 391 707 442 707 c 0
 472 707 494 715 504 732 c 1
 533 669 l 1
 517 640 485 621 441 621 c 0x5b
523 -4 m 1x57
 513 109 l 1
 570 136 593 195 583 263 c 0
 573 334 526 398 462 428 c 1
 452 546 l 1
 590 512 688 403 705 279 c 0
 724 143 655 27 523 -4 c 1x57
361 -6 m 1xa7
 221 25 128 132 109 263 c 0
 91 393 163 509 290 543 c 1
 300 431 l 1
 245 401 221 342 230 277 c 0
 241 202 287 140 351 112 c 1
 361 -6 l 1xa7
EndSplineSet
EndChar

StartChar: oe
Encoding: 339 339 212
Width: 1098
Flags: MW
HStem: -14 107<863 957 857.5 965> -8 21G<373 373> -7 21G<515 515> 230 90 453 101<832 872.5> 525 20G<302 302> 527 20G<444 444>
VStem: 110 1028
LayerCount: 2
Fore
SplineSet
866 229 m 1x99
 853 323 l 1
 991 319 l 1
 980 399 913 453 832 453 c 1
 824 554 l 1
 998 554 1093 434 1112 305 c 0
 1115 278 1115 249 1113 232 c 1
 866 229 l 1x99
515 -7 m 1x39
 506 104 l 1
 570 130 596 191 586 263 c 0
 576 339 524 407 454 433 c 1
 444 547 l 1
 582 533 695 426 716 277 c 0
 736 152 796 93 919 93 c 0
 995 93 1064 109 1100 141 c 1
 1138 47 l 1
 1098 12 1017 -14 913 -14 c 0
 813 -14 728 20 666 86 c 1x93
 634 43 582 7 515 -7 c 1x39
112 263 m 0
 94 396 169 514 302 545 c 1
 311 434 l 1
 250 406 224 345 233 277 c 0
 245 198 295 133 363 107 c 1
 373 -8 l 1x55
 227 20 131 129 112 263 c 0
EndSplineSet
EndChar

StartChar: p
Encoding: 112 112 213
Width: 661
Flags: MW
HStem: -216 21G<207 207 207 331> -14 21G<461 461> -14 104<453 461> 451 103<361 430> 521 20G<100 223 223 223>
VStem: 567 124
LayerCount: 2
Fore
SplineSet
207 -216 m 1xd4
 100 541 l 1
 223 541 l 1xcc
 236 461 l 1
 262 506 319 554 403 554 c 0
 562 554 666 434 687 285 c 0
 712 113 618 -11 461 -14 c 1
 453 90 l 1xb4
 550 100 577 191 567 269 c 0
 551 378 480 451 380 451 c 0
 306 451 262 393 250 351 c 1
 331 -216 l 1
 207 -216 l 1xd4
EndSplineSet
EndChar

StartChar: thorn
Encoding: 254 254 214
Width: 661
Flags: MW
HStem: -216 21G<207 207 207 330> -14 103<409.5 492 396 533.5> 451 103<361 430>
VStem: 567 124
LayerCount: 2
Fore
SplineSet
207 -216 m 1
 66 784 l 1
 189 784 l 1
 236 461 l 1
 262 506 319 554 403 554 c 0
 562 554 666 434 687 285 c 0
 712 111 615 -14 452 -14 c 0
 367 -14 311 29 290 58 c 1
 330 -216 l 1
 207 -216 l 1
438 89 m 0
 546 89 578 186 567 269 c 0
 551 378 480 451 380 451 c 0
 306 451 262 393 250 351 c 1
 270 215 l 2
 280 144 354 89 438 89 c 0
EndSplineSet
EndChar

StartChar: q
Encoding: 113 113 215
Width: 679
Flags: MW
HStem: -216 21G<623 623 623 746> -14 21G<343 422 422 432> 452 89 452 102<328 404.5 272.5 419>
VStem: 107 639
LayerCount: 2
Fore
SplineSet
623 -216 m 1xd8
 541 356 l 1
 520 399 463 452 375 452 c 0
 281 452 216 380 231 275 c 0
 246 170 326 96 421 93 c 1
 432 -14 l 1
 422 -14 l 2
 264 -14 132 101 110 261 c 0
 86 428 187 554 358 554 c 0
 451 554 508 507 526 483 c 1xd8
 516 541 l 1
 639 541 l 1xe8
 746 -216 l 1
 623 -216 l 1xd8
EndSplineSet
EndChar

StartChar: r
Encoding: 114 114 216
Width: 425
Flags: MW
HStem: 445 109<328 362> 521 20G<100 223 223 223>
VStem: 100 328<537 541>
LayerCount: 2
Fore
SplineSet
146 216 m 1x60
 100 541 l 1
 223 541 l 1x60
 234 478 l 1
 253 520 291 554 365 554 c 0
 387 554 410 548 428 537 c 1
 409 416 l 1
 397 430 377 445 347 445 c 0
 295 445 264 411 248 359 c 1xa0
 269 216 l 1
 146 216 l 1x60
EndSplineSet
EndChar

StartChar: racute
Encoding: 341 341 217
Width: 425
Flags: MW
HStem: 445 109<328 362> 521 20G<100 223 223 223>
VStem: 100 328<537 541>
LayerCount: 2
Fore
SplineSet
167 610 m 1x60
 268 789 l 1
 364 723 l 1
 268 610 l 1
 167 610 l 1x60
146 216 m 1
 100 541 l 1
 223 541 l 1x60
 234 478 l 1
 253 520 291 554 365 554 c 0
 387 554 410 548 428 537 c 1
 409 416 l 1
 397 430 377 445 347 445 c 0
 295 445 264 411 248 359 c 1xa0
 269 216 l 1
 146 216 l 1
EndSplineSet
EndChar

StartChar: rcaron
Encoding: 345 345 218
Width: 425
Flags: MW
HStem: 445 109<328 362> 521 20G<100 223 223 223>
VStem: 72 356<537 749>
LayerCount: 2
Fore
SplineSet
207 605 m 1x60
 72 749 l 1
 129 789 l 1
 243 685 l 1
 330 789 l 1
 393 749 l 1
 296 605 l 1
 207 605 l 1x60
146 216 m 1
 100 541 l 1
 223 541 l 1x60
 234 478 l 1
 253 520 291 554 365 554 c 0
 387 554 410 548 428 537 c 1
 409 416 l 1
 397 430 377 445 347 445 c 0
 295 445 264 411 248 359 c 1xa0
 269 216 l 1
 146 216 l 1
EndSplineSet
EndChar

StartChar: uni0157
Encoding: 343 343 219
Width: 457
Flags: MW
HStem: 445 109<360 394> 521 20G<132 255 255 255>
VStem: 132 328<537 541> 271 99
LayerCount: 2
Fore
SplineSet
178 216 m 1x60
 132 541 l 1
 255 541 l 1x60
 266 478 l 1
 285 520 323 554 397 554 c 0
 419 554 442 548 460 537 c 1
 441 416 l 1
 429 430 409 445 379 445 c 0
 327 445 296 411 280 359 c 1xa0
 301 216 l 1
 178 216 l 1x60
223 -317 m 1x50
 253 -277 279 -208 271 -156 c 0
 267 -127 247 -105 222 -89 c 1
 309 -55 l 1
 323 -58 363 -77 370 -125 c 0
 381 -201 297 -296 277 -312 c 1
 223 -317 l 1x50
EndSplineSet
EndChar

StartChar: s
Encoding: 115 115 220
Width: 565
Flags: MW
HStem: -13 21G<336 336> -13 105<328 336> 454 100<299 370.5>
VStem: 149 182 405 194
LayerCount: 2
Fore
SplineSet
243 245 m 1xb8
 171 266 114 302 103 378 c 0
 88 486 195 554 330 554 c 0
 436 554 505 506 518 493 c 1
 498 394 l 1
 482 415 410 454 331 454 c 0
 267 454 220 431 225 395 c 2
 243 245 l 1xb8
496 4 m 1
 478 152 l 2
 475 176 448 195 410 207 c 1
 400 322 l 1
 519 296 584 264 596 177 c 0
 609 88 572 30 496 4 c 1
336 -13 m 1
 234 -7 173 27 148 44 c 1
 151 163 l 1
 175 138 247 100 328 92 c 1x78
 336 -13 l 1
EndSplineSet
EndChar

StartChar: sacute
Encoding: 347 347 221
Width: 565
Flags: MW
HStem: -13 21G<336 336> -13 105<328 336> 454 100<299 370.5>
VStem: 149 182 405 194
LayerCount: 2
Fore
SplineSet
218 610 m 1xb8
 319 789 l 1
 415 723 l 1
 319 610 l 1
 218 610 l 1xb8
243 245 m 1
 171 266 114 302 103 378 c 0
 88 486 195 554 330 554 c 0
 436 554 505 506 518 493 c 1
 498 394 l 1
 482 415 410 454 331 454 c 0
 267 454 220 431 225 395 c 2
 243 245 l 1
496 4 m 1
 478 152 l 2
 475 176 448 195 410 207 c 1
 400 322 l 1
 519 296 584 264 596 177 c 0
 609 88 572 30 496 4 c 1
336 -13 m 1
 234 -7 173 27 148 44 c 1
 151 163 l 1
 175 138 247 100 328 92 c 1x78
 336 -13 l 1
EndSplineSet
EndChar

StartChar: scaron
Encoding: 353 353 222
Width: 565
Flags: MW
HStem: -13 21G<336 336> -13 105<328 336> 454 100<299 370.5>
VStem: 149 182 405 194
LayerCount: 2
Fore
SplineSet
260 605 m 1xb8
 125 749 l 1
 182 789 l 1
 296 685 l 1
 383 789 l 1
 446 749 l 1
 349 605 l 1
 260 605 l 1xb8
243 245 m 1
 171 266 114 302 103 378 c 0
 88 486 195 554 330 554 c 0
 436 554 505 506 518 493 c 1
 498 394 l 1
 482 415 410 454 331 454 c 0
 267 454 220 431 225 395 c 2
 243 245 l 1
496 4 m 1
 478 152 l 2
 475 176 448 195 410 207 c 1
 400 322 l 1
 519 296 584 264 596 177 c 0
 609 88 572 30 496 4 c 1
336 -13 m 1
 234 -7 173 27 148 44 c 1
 151 163 l 1
 175 138 247 100 328 92 c 1x78
 336 -13 l 1
EndSplineSet
EndChar

StartChar: scedilla
Encoding: 351 351 223
Width: 565
Flags: MW
HStem: -219 59<409 432.5 409 456> -92 53<401 467.5> -14 105<313.5 362> 532 20G<359 359>
VStem: 458 67 478 121
LayerCount: 2
Fore
SplineSet
498 394 m 1xb4
 485 412 430 444 367 452 c 1
 359 552 l 1
 449 544 506 505 518 493 c 1
 498 394 l 1xb4
301 342 m 1
 311 229 l 1
 214 246 117 278 103 378 c 0
 93 451 139 506 209 533 c 1
 225 395 l 2
 229 368 261 352 301 342 c 1
596 177 m 0
 612 69 555 7 435 -9 c 1
 426 -45 l 2
 429 -43 438 -39 450 -39 c 0
 485 -39 520 -65 525 -105 c 0
 535 -173 492 -219 420 -219 c 0
 384 -219 359 -207 347 -195 c 1
 366 -141 l 1
 376 -148 396 -160 422 -160 c 0
 443 -160 461 -154 458 -131 c 0
 455 -110 434 -92 409 -92 c 0
 393 -92 384 -99 377 -106 c 1
 337 -80 l 1xf8
 362 -14 l 1
 245 -14 175 25 148 44 c 1
 151 163 l 1
 179 135 265 91 362 91 c 0
 429 91 483 114 478 152 c 2
 459 307 l 1
 528 286 586 253 596 177 c 0
EndSplineSet
EndChar

StartChar: scircumflex
Encoding: 349 349 224
Width: 565
Flags: MW
HStem: -13 21G<336 336> -13 105<328 336> 454 100<299 370.5>
VStem: 149 182 405 194
LayerCount: 2
Fore
SplineSet
205 594 m 1xb8
 142 634 l 1
 238 778 l 1
 327 778 l 1
 463 634 l 1
 406 594 l 1
 290 698 l 1
 205 594 l 1xb8
243 245 m 1
 171 266 114 302 103 378 c 0
 88 486 195 554 330 554 c 0
 436 554 505 506 518 493 c 1
 498 394 l 1
 482 415 410 454 331 454 c 0
 267 454 220 431 225 395 c 2
 243 245 l 1
496 4 m 1
 478 152 l 2
 475 176 448 195 410 207 c 1
 400 322 l 1
 519 296 584 264 596 177 c 0
 609 88 572 30 496 4 c 1
336 -13 m 1
 234 -7 173 27 148 44 c 1
 151 163 l 1
 175 138 247 100 328 92 c 1x78
 336 -13 l 1
EndSplineSet
EndChar

StartChar: uni0219
Encoding: 537 537 225
Width: 565
Flags: MW
HStem: -13 21G<336 336> -13 105<328 336> 454 100<299 370.5>
VStem: 149 182 351 99 405 194
LayerCount: 2
Fore
SplineSet
243 245 m 1xb4
 171 266 114 302 103 378 c 0
 88 486 195 554 330 554 c 0
 436 554 505 506 518 493 c 1
 498 394 l 1
 482 415 410 454 331 454 c 0
 267 454 220 431 225 395 c 2
 243 245 l 1xb4
496 4 m 1
 478 152 l 2
 475 176 448 195 410 207 c 1
 400 322 l 1
 519 296 584 264 596 177 c 0
 609 88 572 30 496 4 c 1
336 -13 m 1
 234 -7 173 27 148 44 c 1
 151 163 l 1
 175 138 247 100 328 92 c 1x74
 336 -13 l 1
303 -317 m 1xb8
 333 -277 359 -208 351 -156 c 0
 347 -127 327 -105 302 -89 c 1
 389 -55 l 1
 403 -58 443 -77 450 -125 c 0
 461 -201 377 -296 357 -312 c 1
 303 -317 l 1xb8
EndSplineSet
EndChar

StartChar: germandbls
Encoding: 223 223 226
Width: 660
Flags: MW
HStem: -176 96<126 223.5> -14 101<440 497.5 440 544.5> 375 97<348 370 341 393> 696 101<279 342>
VStem: 102 583
LayerCount: 2
Fore
SplineSet
179 -176 m 1
 126 -80 l 1
 168 -80 191 -44 184 1 c 2
 105 566 l 2
 86 700 166 797 315 797 c 0
 441 797 539 719 555 606 c 0
 568 512 518 451 488 433 c 1
 570 417 667 346 682 235 c 0
 704 84 622 -14 467 -14 c 0
 413 -14 361 11 349 22 c 1
 378 113 l 1
 387 107 417 87 463 87 c 0
 532 87 579 138 567 221 c 0
 552 333 438 375 348 375 c 1
 341 472 l 1
 399 472 447 514 437 584 c 0
 429 646 371 696 313 696 c 0
 245 696 216 653 227 574 c 2
 306 9 l 2
 320 -87 268 -176 179 -176 c 1
EndSplineSet
EndChar

StartChar: t
Encoding: 116 116 227
Width: 455
Flags: MW
HStem: -14 113<395.5 432> 437 104<85 85 85 155 279 417>
VStem: 70 455 203 123
LayerCount: 2
Fore
SplineSet
85 437 m 1xe0
 70 541 l 1
 155 541 l 1
 133 699 l 1
 256 706 l 1
 279 541 l 1
 417 541 l 1
 432 437 l 1
 85 437 l 1xe0
402 -14 m 0
 295 -14 226 41 206 177 c 2
 201 216 l 1
 325 216 l 1
 329 185 l 2
 337 131 374 99 417 99 c 0xd0
 448 99 470 107 485 124 c 1
 525 33 l 1
 504 8 462 -14 402 -14 c 0
EndSplineSet
EndChar

StartChar: tbar
Encoding: 359 359 228
Width: 455
Flags: MW
HStem: -14 113<395.5 432> 273 90 277 90 428 113<86 155 70 171 86 86 295 295 295 417>
VStem: 70 455 175 124
LayerCount: 2
Fore
SplineSet
402 -14 m 0xb8
 295 -14 226 41 206 177 c 2
 193 275 l 1
 123 271 l 1
 121 301 116 331 109 361 c 1
 180 365 l 1xd4
 171 428 l 1
 86 428 l 1
 70 541 l 1
 155 541 l 1
 133 699 l 1
 256 706 l 1
 279 541 l 1
 417 541 l 1
 433 428 l 1
 295 428 l 1
 304 365 l 1
 394 369 l 1xb4
 395 339 400 309 408 279 c 1
 317 275 l 1
 329 185 l 2
 337 131 374 99 417 99 c 0
 448 99 470 107 485 124 c 1
 525 33 l 1
 504 8 462 -14 402 -14 c 0xb8
EndSplineSet
EndChar

StartChar: tcaron
Encoding: 357 357 229
Width: 456
Flags: MW
HStem: -14 113<395.5 432> 437 104<85 85 85 155 279 417> 601 183<330 330 330 408>
VStem: 203 123 325 90
LayerCount: 2
Fore
SplineSet
330 601 m 1xe8
 320 784 l 1
 422 784 l 1
 408 601 l 1
 330 601 l 1xe8
85 437 m 1
 70 541 l 1
 155 541 l 1
 133 699 l 1
 256 706 l 1
 279 541 l 1
 417 541 l 1
 432 437 l 1
 85 437 l 1
402 -14 m 0
 295 -14 226 41 206 177 c 2
 201 216 l 1
 325 216 l 1
 329 185 l 2
 337 131 374 99 417 99 c 0xf0
 448 99 470 107 485 124 c 1
 525 33 l 1
 504 8 462 -14 402 -14 c 0
EndSplineSet
EndChar

StartChar: uni0163
Encoding: 355 355 230
Width: 455
Flags: MW
HStem: -219 59<400 423.5 400 447> -92 53<392 458.5> -13 21G<426 426> -10 21G<354 354> 437 104<85 155 279 417 85 85>
VStem: 70 455 203 123 449 67
LayerCount: 2
Fore
SplineSet
417 541 m 1x9c
 432 437 l 1
 85 437 l 1
 70 541 l 1
 155 541 l 1
 133 699 l 1
 256 706 l 1
 279 541 l 1
 417 541 l 1x9c
525 33 m 1xaa
 507 11 473 -8 426 -13 c 1xac
 417 -45 l 2
 420 -43 429 -39 441 -39 c 0
 476 -39 511 -65 516 -105 c 0
 526 -173 483 -219 411 -219 c 0
 375 -219 350 -207 338 -195 c 1
 357 -141 l 1
 367 -148 387 -160 413 -160 c 0
 434 -160 452 -154 449 -131 c 0
 446 -110 425 -92 400 -92 c 0
 384 -92 375 -99 368 -106 c 1
 328 -80 l 1xdb
 354 -10 l 1x9a
 274 5 223 62 206 177 c 2
 201 216 l 1
 325 216 l 1
 329 185 l 2
 337 131 374 99 417 99 c 0
 448 99 470 107 485 124 c 1
 525 33 l 1xaa
EndSplineSet
EndChar

StartChar: uni021B
Encoding: 539 539 231
Width: 455
Flags: MW
HStem: -14 113<395.5 432> 437 104<85 85 85 155 279 417>
VStem: 70 455 203 123 334 99
LayerCount: 2
Fore
SplineSet
85 437 m 1xe0
 70 541 l 1
 155 541 l 1
 133 699 l 1
 256 706 l 1
 279 541 l 1
 417 541 l 1
 432 437 l 1
 85 437 l 1xe0
402 -14 m 0
 295 -14 226 41 206 177 c 2
 201 216 l 1
 325 216 l 1
 329 185 l 2
 337 131 374 99 417 99 c 0xd0
 448 99 470 107 485 124 c 1
 525 33 l 1
 504 8 462 -14 402 -14 c 0
286 -317 m 1xc8
 316 -277 342 -208 334 -156 c 0
 330 -127 310 -105 285 -89 c 1
 372 -55 l 1
 386 -58 426 -77 433 -125 c 0
 444 -201 360 -296 340 -312 c 1
 286 -317 l 1xc8
EndSplineSet
EndChar

StartChar: u
Encoding: 117 117 232
Width: 632
Flags: MW
HStem: -14 21G<368 368> 521 20G<100 223 223 223 455 579 579 579>
VStem: 100 571<27 541>
LayerCount: 2
Fore
SplineSet
368 -14 m 1
 264 -13 170 42 151 182 c 2
 100 541 l 1
 223 541 l 1
 273 190 l 2
 280 135 319 104 359 96 c 1
 368 -14 l 1
567 -17 m 1
 555 -5 531 21 523 58 c 2
 455 541 l 1
 579 541 l 1
 636 140 l 2
 643 91 655 51 671 27 c 1
 567 -17 l 1
EndSplineSet
EndChar

StartChar: uacute
Encoding: 250 250 233
Width: 632
Flags: MW
HStem: -14 21G<368 368> 521 20G<100 223 223 223 455 579 579 579>
VStem: 100 571<27 541>
LayerCount: 2
Fore
SplineSet
230 610 m 1
 331 789 l 1
 427 723 l 1
 331 610 l 1
 230 610 l 1
368 -14 m 1
 264 -13 170 42 151 182 c 2
 100 541 l 1
 223 541 l 1
 273 190 l 2
 280 135 319 104 359 96 c 1
 368 -14 l 1
567 -17 m 1
 555 -5 531 21 523 58 c 2
 455 541 l 1
 579 541 l 1
 636 140 l 2
 643 91 655 51 671 27 c 1
 567 -17 l 1
EndSplineSet
EndChar

StartChar: ubreve
Encoding: 365 365 234
Width: 632
Flags: MW
HStem: -14 21G<368 368> 521 20G<100 223 223 223 455 579 579 579> 599 81<310.5 352 310.5 375>
VStem: 100 571<27 541>
LayerCount: 2
Fore
SplineSet
332 599 m 0
 251 599 189 643 165 707 c 1
 230 737 l 1
 248 707 288 680 333 680 c 0
 371 680 400 703 409 731 c 1
 477 713 l 1
 471 649 418 599 332 599 c 0
368 -14 m 1
 264 -13 170 42 151 182 c 2
 100 541 l 1
 223 541 l 1
 273 190 l 2
 280 135 319 104 359 96 c 1
 368 -14 l 1
567 -17 m 1
 555 -5 531 21 523 58 c 2
 455 541 l 1
 579 541 l 1
 636 140 l 2
 643 91 655 51 671 27 c 1
 567 -17 l 1
EndSplineSet
EndChar

StartChar: ucircumflex
Encoding: 251 251 235
Width: 632
Flags: MW
HStem: -14 21G<368 368> 521 20G<100 223 223 223 455 579 579 579>
VStem: 100 571<27 541>
LayerCount: 2
Fore
SplineSet
237 594 m 1
 174 634 l 1
 270 778 l 1
 359 778 l 1
 495 634 l 1
 438 594 l 1
 322 698 l 1
 237 594 l 1
368 -14 m 1
 264 -13 170 42 151 182 c 2
 100 541 l 1
 223 541 l 1
 273 190 l 2
 280 135 319 104 359 96 c 1
 368 -14 l 1
567 -17 m 1
 555 -5 531 21 523 58 c 2
 455 541 l 1
 579 541 l 1
 636 140 l 2
 643 91 655 51 671 27 c 1
 567 -17 l 1
EndSplineSet
EndChar

StartChar: udieresis
Encoding: 252 252 236
Width: 632
Flags: MW
HStem: -14 21G<368 368> 521 20G<100 223 223 223 455 579 579 579> 624 119<210.5 237.5 204 244 410.5 437.5>
VStem: 100 571<27 541> 165 118 366 116
LayerCount: 2
Fore
SplineSet
226 624 m 0xec
 195 624 170 646 165 676 c 0
 160 713 185 743 223 743 c 0
 252 743 279 721 283 690 c 0
 289 654 262 624 226 624 c 0xec
426 624 m 0
 395 624 371 646 366 676 c 0
 361 713 385 743 423 743 c 0
 452 743 478 721 482 690 c 0
 488 654 462 624 426 624 c 0
368 -14 m 1
 264 -13 170 42 151 182 c 2
 100 541 l 1
 223 541 l 1
 273 190 l 2
 280 135 319 104 359 96 c 1
 368 -14 l 1
567 -17 m 1
 555 -5 531 21 523 58 c 2
 455 541 l 1
 579 541 l 1
 636 140 l 2
 643 91 655 51 671 27 c 1
 567 -17 l 1
EndSplineSet
EndChar

StartChar: ugrave
Encoding: 249 249 237
Width: 632
Flags: MW
HStem: -14 21G<368 368> 521 20G<100 223 223 223 455 579 579 579>
VStem: 100 571<27 541>
LayerCount: 2
Fore
SplineSet
311 610 m 1
 187 723 l 1
 269 789 l 1
 418 610 l 1
 311 610 l 1
368 -14 m 1
 264 -13 170 42 151 182 c 2
 100 541 l 1
 223 541 l 1
 273 190 l 2
 280 135 319 104 359 96 c 1
 368 -14 l 1
567 -17 m 1
 555 -5 531 21 523 58 c 2
 455 541 l 1
 579 541 l 1
 636 140 l 2
 643 91 655 51 671 27 c 1
 567 -17 l 1
EndSplineSet
EndChar

StartChar: uhungarumlaut
Encoding: 369 369 238
Width: 632
Flags: MW
HStem: -14 21G<368 368> 521 20G<100 223 223 223 455 579 579 579> 605 168<212 212 212 284 401 435 211 358>
VStem: 211 72
LayerCount: 2
Fore
SplineSet
212 605 m 1
 211 773 l 1
 323 773 l 1
 284 605 l 1
 212 605 l 1
358 605 m 1
 401 773 l 1
 513 773 l 1
 435 605 l 1
 358 605 l 1
368 -14 m 1
 264 -13 170 42 151 182 c 2
 100 541 l 1
 223 541 l 1
 273 190 l 2
 280 135 319 104 359 96 c 1
 368 -14 l 1
567 -17 m 1
 555 -5 531 21 523 58 c 2
 455 541 l 1
 579 541 l 1
 636 140 l 2
 643 91 655 51 671 27 c 1
 567 -17 l 1
EndSplineSet
EndChar

StartChar: umacron
Encoding: 363 363 239
Width: 632
Flags: MW
HStem: -14 21G<368 368> 521 20G<100 223 223 223 455 579 579 579> 626 68
VStem: 100 571<27 541>
LayerCount: 2
Fore
SplineSet
158 622 m 1
 158 645 154 667 148 690 c 1
 488 698 l 1
 488 675 492 653 498 630 c 1
 158 622 l 1
368 -14 m 1
 264 -13 170 42 151 182 c 2
 100 541 l 1
 223 541 l 1
 273 190 l 2
 280 135 319 104 359 96 c 1
 368 -14 l 1
567 -17 m 1
 555 -5 531 21 523 58 c 2
 455 541 l 1
 579 541 l 1
 636 140 l 2
 643 91 655 51 671 27 c 1
 567 -17 l 1
EndSplineSet
EndChar

StartChar: uogonek
Encoding: 371 371 240
Width: 632
Flags: MW
HStem: -191 77<607 617> -14 21G<368 368> 0 21G 521 20G<100 223 223 223 455 579 579 579>
VStem: 100 571<27 541> 504 64
LayerCount: 2
Fore
SplineSet
273 190 m 2xb8
 280 135 319 104 359 96 c 1
 368 -14 l 1xd8
 264 -13 170 42 151 182 c 2
 100 541 l 1
 223 541 l 1
 273 190 l 2xb8
619 -114 m 0xb4
 627 -114 636 -112 639 -109 c 2
 661 -168 l 1
 654 -178 630 -191 604 -191 c 0
 556 -191 511 -161 504 -108 c 0
 496 -55 526 -17 552 0 c 1
 541 14 528 33 523 58 c 2
 455 541 l 1
 579 541 l 1
 636 140 l 2
 643 91 655 51 671 27 c 1
 599 -4 l 1
 579 -18 564 -43 568 -70 c 0
 572 -97 595 -114 619 -114 c 0xb4
EndSplineSet
EndChar

StartChar: uring
Encoding: 367 367 241
Width: 632
Flags: MW
HStem: -14 21G<368 368> 521 20G<100 223 223 223 455 579 579 579> 593 52<332.5 354.5 332.5 365.5> 722 52<312 334>
VStem: 243 50 373 49
LayerCount: 2
Fore
SplineSet
339 593 m 0
 293 593 250 630 243 676 c 0
 236 729 274 774 327 774 c 0
 373 774 416 737 422 690 c 0
 430 638 392 593 339 593 c 0
345 645 m 0
 364 645 376 658 373 676 c 0
 370 701 347 722 321 722 c 0
 303 722 291 709 293 690 c 0
 297 666 320 645 345 645 c 0
368 -14 m 1
 264 -13 170 42 151 182 c 2
 100 541 l 1
 223 541 l 1
 273 190 l 2
 280 135 319 104 359 96 c 1
 368 -14 l 1
567 -17 m 1
 555 -5 531 21 523 58 c 2
 455 541 l 1
 579 541 l 1
 636 140 l 2
 643 91 655 51 671 27 c 1
 567 -17 l 1
EndSplineSet
EndChar

StartChar: utilde
Encoding: 361 361 242
Width: 632
Flags: MW
HStem: -14 21G<368 368> 521 20G<100 223 223 223 455 579 579 579> 621 86<387.5 428 387.5 434> 661 87<245.5 290>
VStem: 100 571<27 541>
LayerCount: 2
Fore
SplineSet
412 621 m 0xe8
 361 621 317 661 263 661 c 0
 228 661 199 648 185 626 c 1
 151 685 l 1
 179 719 216 748 264 748 c 0xd8
 323 748 362 707 413 707 c 0
 443 707 465 715 475 732 c 1
 504 669 l 1
 488 640 456 621 412 621 c 0xe8
368 -14 m 1xd8
 264 -13 170 42 151 182 c 2
 100 541 l 1
 223 541 l 1
 273 190 l 2
 280 135 319 104 359 96 c 1
 368 -14 l 1xd8
567 -17 m 1
 555 -5 531 21 523 58 c 2
 455 541 l 1
 579 541 l 1
 636 140 l 2
 643 91 655 51 671 27 c 1
 567 -17 l 1
EndSplineSet
EndChar

StartChar: v
Encoding: 118 118 243
Width: 582
Flags: MW
HStem: 0 21G<331 460 331 331> 521 20G<39 168 168 168 475 601 601 601>
VStem: 39 562<541 541>
LayerCount: 2
Fore
SplineSet
460 0 m 1
 331 0 l 1
 39 541 l 1
 168 541 l 1
 460 0 l 1
432 371 m 1
 475 541 l 1
 601 541 l 1
 515 216 l 1
 432 371 l 1
EndSplineSet
EndChar

StartChar: w
Encoding: 119 119 244
Width: 836
Flags: MW
HStem: 0 21G<291 291 291 395 639 639 639 758> 521 20G<39 165 165 165 390 507 507 507 732 855 855 855>
VStem: 39 816<541 541>
LayerCount: 2
Fore
SplineSet
188 216 m 1
 39 541 l 1
 165 541 l 1
 226 393 l 1
 188 216 l 1
291 0 m 1
 390 541 l 1
 507 541 l 1
 758 0 l 1
 639 0 l 1
 468 369 l 1
 395 0 l 1
 291 0 l 1
796 217 m 1
 713 405 l 1
 732 541 l 1
 855 541 l 1
 796 217 l 1
EndSplineSet
EndChar

StartChar: wacute
Encoding: 7811 7811 245
Width: 836
Flags: MW
HStem: 0 21G<291 291 291 395 639 639 639 758> 521 20G<39 165 165 165 390 507 507 507 732 855 855 855>
VStem: 39 816<541 541>
LayerCount: 2
Fore
SplineSet
336 610 m 1
 437 789 l 1
 533 723 l 1
 437 610 l 1
 336 610 l 1
188 216 m 1
 39 541 l 1
 165 541 l 1
 226 393 l 1
 188 216 l 1
291 0 m 1
 390 541 l 1
 507 541 l 1
 758 0 l 1
 639 0 l 1
 468 369 l 1
 395 0 l 1
 291 0 l 1
796 217 m 1
 713 405 l 1
 732 541 l 1
 855 541 l 1
 796 217 l 1
EndSplineSet
EndChar

StartChar: wcircumflex
Encoding: 373 373 246
Width: 836
Flags: MW
HStem: 0 21G<291 291 291 395 639 639 639 758> 521 20G<39 165 165 165 390 507 507 507 732 855 855 855>
VStem: 39 816<541 541>
LayerCount: 2
Fore
SplineSet
331 594 m 1
 268 634 l 1
 364 778 l 1
 453 778 l 1
 589 634 l 1
 532 594 l 1
 416 698 l 1
 331 594 l 1
188 216 m 1
 39 541 l 1
 165 541 l 1
 226 393 l 1
 188 216 l 1
291 0 m 1
 390 541 l 1
 507 541 l 1
 758 0 l 1
 639 0 l 1
 468 369 l 1
 395 0 l 1
 291 0 l 1
796 217 m 1
 713 405 l 1
 732 541 l 1
 855 541 l 1
 796 217 l 1
EndSplineSet
EndChar

StartChar: wdieresis
Encoding: 7813 7813 247
Width: 836
Flags: MW
HStem: 0 21G<291 291 291 395 639 639 639 758> 521 20G<39 165 165 165 390 507 507 507 732 855 855 855> 624 119<300.5 327.5 294 334 500.5 527.5>
VStem: 39 816<541 541> 255 118 456 116
LayerCount: 2
Fore
SplineSet
316 624 m 0xec
 285 624 260 646 255 676 c 0
 250 713 275 743 313 743 c 0
 342 743 369 721 373 690 c 0
 379 654 352 624 316 624 c 0xec
516 624 m 0
 485 624 461 646 456 676 c 0
 451 713 475 743 513 743 c 0
 542 743 568 721 572 690 c 0
 578 654 552 624 516 624 c 0
188 216 m 1
 39 541 l 1
 165 541 l 1
 226 393 l 1
 188 216 l 1
291 0 m 1
 390 541 l 1
 507 541 l 1
 758 0 l 1
 639 0 l 1
 468 369 l 1
 395 0 l 1
 291 0 l 1
796 217 m 1
 713 405 l 1
 732 541 l 1
 855 541 l 1
 796 217 l 1
EndSplineSet
EndChar

StartChar: wgrave
Encoding: 7809 7809 248
Width: 836
Flags: MW
HStem: 0 21G<291 291 291 395 639 639 639 758> 521 20G<39 165 165 165 390 507 507 507 732 855 855 855>
VStem: 39 816<541 541>
LayerCount: 2
Fore
SplineSet
399 610 m 1
 275 723 l 1
 357 789 l 1
 506 610 l 1
 399 610 l 1
188 216 m 1
 39 541 l 1
 165 541 l 1
 226 393 l 1
 188 216 l 1
291 0 m 1
 390 541 l 1
 507 541 l 1
 758 0 l 1
 639 0 l 1
 468 369 l 1
 395 0 l 1
 291 0 l 1
796 217 m 1
 713 405 l 1
 732 541 l 1
 855 541 l 1
 796 217 l 1
EndSplineSet
EndChar

StartChar: x
Encoding: 120 120 249
Width: 582
Flags: MW
HStem: 0 21G<128 128 128 266 524 524 524 670> 0 68<128 306> 483 58 521 20G<54 198 198 198 427 561 561 561>
VStem: 54 616<0 541>
LayerCount: 2
Fore
SplineSet
524 0 m 1x98
 54 541 l 1
 198 541 l 1
 670 0 l 1
 524 0 l 1x98
480 385 m 1
 398 483 l 1xa8
 427 541 l 1
 561 541 l 1
 480 385 l 1
128 0 m 1
 215 172 l 1
 306 68 l 1x58
 266 0 l 1
 128 0 l 1
EndSplineSet
EndChar

StartChar: y
Encoding: 121 121 250
Width: 586
Flags: MW
HStem: -227 103<217 222.5 173.5 289> 521 20G<51 187 187 187 475 605 605 605>
VStem: 51 554<541 541>
LayerCount: 2
Fore
SplineSet
258 216 m 1
 51 541 l 1
 187 541 l 1
 296 364 l 1
 258 216 l 1
225 -227 m 0
 209 -227 189 -222 182 -218 c 1
 135 -113 l 1
 145 -118 161 -124 186 -124 c 0
 259 -124 327 -66 359 60 c 2
 475 541 l 1
 605 541 l 1
 479 36 l 2
 436 -139 353 -227 225 -227 c 0
EndSplineSet
EndChar

StartChar: yacute
Encoding: 253 253 251
Width: 586
Flags: MW
HStem: -227 103<217 222.5 173.5 289> 521 20G<51 187 187 187 475 605 605 605>
VStem: 51 554<541 541>
LayerCount: 2
Fore
SplineSet
216 610 m 1
 317 789 l 1
 413 723 l 1
 317 610 l 1
 216 610 l 1
258 216 m 1
 51 541 l 1
 187 541 l 1
 296 364 l 1
 258 216 l 1
225 -227 m 0
 209 -227 189 -222 182 -218 c 1
 135 -113 l 1
 145 -118 161 -124 186 -124 c 0
 259 -124 327 -66 359 60 c 2
 475 541 l 1
 605 541 l 1
 479 36 l 2
 436 -139 353 -227 225 -227 c 0
EndSplineSet
EndChar

StartChar: ycircumflex
Encoding: 375 375 252
Width: 586
Flags: MW
HStem: -227 103<217 222.5 173.5 289> 521 20G<51 187 187 187 475 605 605 605>
VStem: 51 554<541 541>
LayerCount: 2
Fore
SplineSet
184 594 m 1
 121 634 l 1
 217 778 l 1
 306 778 l 1
 442 634 l 1
 385 594 l 1
 269 698 l 1
 184 594 l 1
258 216 m 1
 51 541 l 1
 187 541 l 1
 296 364 l 1
 258 216 l 1
225 -227 m 0
 209 -227 189 -222 182 -218 c 1
 135 -113 l 1
 145 -118 161 -124 186 -124 c 0
 259 -124 327 -66 359 60 c 2
 475 541 l 1
 605 541 l 1
 479 36 l 2
 436 -139 353 -227 225 -227 c 0
EndSplineSet
EndChar

StartChar: ydieresis
Encoding: 255 255 253
Width: 586
Flags: MW
HStem: -227 103<217 222.5 173.5 289> 521 20G<51 187 187 187 475 605 605 605> 624 119<174.5 201.5 168 208 374.5 401.5>
VStem: 51 554<541 541> 129 118 330 116
LayerCount: 2
Fore
SplineSet
190 624 m 0xec
 159 624 134 646 129 676 c 0
 124 713 149 743 187 743 c 0
 216 743 243 721 247 690 c 0
 253 654 226 624 190 624 c 0xec
390 624 m 0
 359 624 335 646 330 676 c 0
 325 713 349 743 387 743 c 0
 416 743 442 721 446 690 c 0
 452 654 426 624 390 624 c 0
258 216 m 1
 51 541 l 1
 187 541 l 1
 296 364 l 1
 258 216 l 1
225 -227 m 0
 209 -227 189 -222 182 -218 c 1
 135 -113 l 1
 145 -118 161 -124 186 -124 c 0
 259 -124 327 -66 359 60 c 2
 475 541 l 1
 605 541 l 1
 479 36 l 2
 436 -139 353 -227 225 -227 c 0
EndSplineSet
EndChar

StartChar: ygrave
Encoding: 7923 7923 254
Width: 586
Flags: MW
HStem: -227 103<217 222.5 173.5 289> 521 20G<51 187 187 187 475 605 605 605>
VStem: 51 554<541 541>
LayerCount: 2
Fore
SplineSet
272 610 m 1
 148 723 l 1
 230 789 l 1
 379 610 l 1
 272 610 l 1
258 216 m 1
 51 541 l 1
 187 541 l 1
 296 364 l 1
 258 216 l 1
225 -227 m 0
 209 -227 189 -222 182 -218 c 1
 135 -113 l 1
 145 -118 161 -124 186 -124 c 0
 259 -124 327 -66 359 60 c 2
 475 541 l 1
 605 541 l 1
 479 36 l 2
 436 -139 353 -227 225 -227 c 0
EndSplineSet
EndChar

StartChar: z
Encoding: 122 122 255
Width: 508
Flags: MW
HStem: 0 118<323 558 323 574> 437 104<85 85 85 458> 523 18<70 495>
VStem: 70 504
LayerCount: 2
Fore
SplineSet
85 437 m 1xd0
 70 541 l 1
 483 541 l 1xd0
 495 523 l 1xb0
 458 437 l 1
 85 437 l 1xd0
163 0 m 1
 151 16 l 1
 236 216 l 1
 364 216 l 1
 323 118 l 1
 558 118 l 1
 574 0 l 1
 163 0 l 1
EndSplineSet
EndChar

StartChar: zacute
Encoding: 378 378 256
Width: 537
Flags: MW
HStem: 0 118<323 558 323 574> 437 104<85 85 85 458> 523 18<70 495>
VStem: 70 504
LayerCount: 2
Fore
SplineSet
204 610 m 1xd0
 305 789 l 1
 401 723 l 1
 305 610 l 1
 204 610 l 1xd0
85 437 m 1
 70 541 l 1
 483 541 l 1xd0
 495 523 l 1xb0
 458 437 l 1
 85 437 l 1
163 0 m 1
 151 16 l 1
 236 216 l 1
 364 216 l 1
 323 118 l 1
 558 118 l 1
 574 0 l 1
 163 0 l 1
EndSplineSet
EndChar

StartChar: zcaron
Encoding: 382 382 257
Width: 537
Flags: MW
HStem: 0 118<323 558 323 574> 437 104<85 85 85 458> 523 18<70 495>
VStem: 70 504
LayerCount: 2
Fore
SplineSet
244 605 m 1xd0
 109 749 l 1
 166 789 l 1
 280 685 l 1
 367 789 l 1
 430 749 l 1
 333 605 l 1
 244 605 l 1xd0
85 437 m 1
 70 541 l 1
 483 541 l 1xd0
 495 523 l 1xb0
 458 437 l 1
 85 437 l 1
163 0 m 1
 151 16 l 1
 236 216 l 1
 364 216 l 1
 323 118 l 1
 558 118 l 1
 574 0 l 1
 163 0 l 1
EndSplineSet
EndChar

StartChar: zdotaccent
Encoding: 380 380 258
Width: 508
Flags: MW
HStem: 0 118<323 558 323 574> 437 104<85 85 85 458> 523 18<70 495> 623 143<269 298 258.5 308.5>
VStem: 70 504 213 141
LayerCount: 2
Fore
SplineSet
287 623 m 0xd4
 251 623 218 651 213 687 c 0
 207 729 237 766 280 766 c 0
 316 766 349 737 354 701 c 0
 360 659 330 623 287 623 c 0xd4
85 437 m 1
 70 541 l 1
 483 541 l 1xc8
 495 523 l 1xa8
 458 437 l 1
 85 437 l 1
163 0 m 1
 151 16 l 1
 236 216 l 1
 364 216 l 1
 323 118 l 1
 558 118 l 1
 574 0 l 1
 163 0 l 1
EndSplineSet
EndChar

StartChar: fi
Encoding: 64257 64257 259
Width: 761
GlyphClass: 3
Flags: MW
HStem: -227 118<185 291.5> 0 21G<667 667 667 791> 438 103<112 112 112 182 305 449> 524 20G<715 715> 648 141<612 647 603 658.5> 689 106<328.5 354.5 277.5 366>
VStem: 172 125 260 123
LayerCount: 2
Fore
SplineSet
112 438 m 1xe5
 97 541 l 1
 182 541 l 1
 175 591 l 2
 157 727 225 795 330 795 c 0
 379 795 414 783 437 767 c 1
 422 670 l 1
 409 678 386 689 346 689 c 0
 311 689 288 665 297 599 c 2
 305 541 l 1xe6
 449 541 l 1
 464 438 l 1
 112 438 l 1xe5
634 648 m 0xd9
 590 648 563 679 558 711 c 0
 553 750 579 789 627 789 c 0
 667 789 696 758 700 725 c 0
 706 687 683 648 634 648 c 0xd9
667 0 m 1
 592 536 l 1
 715 544 l 1
 791 0 l 1
 667 0 l 1
239 -227 m 0
 225 -227 205 -221 198 -217 c 1
 143 -98 l 1
 156 -105 176 -109 194 -109 c 0
 245 -109 267 -65 260 -9 c 2
 228 216 l 1
 350 216 l 1
 379 7 l 2
 400 -139 344 -227 239 -227 c 0
EndSplineSet
Ligature2: "'liga' Standard Ligatures lookup 0 subtable" f i
EndChar

StartChar: fl
Encoding: 64258 64258 260
Width: 751
GlyphClass: 3
Flags: MW
HStem: -227 118<185 291.5> 0 21G<663 663 663 787> 438 103<112 112 112 182 305 449> 689 106<328.5 354.5 277.5 366>
VStem: 172 125 260 123
LayerCount: 2
Fore
SplineSet
112 438 m 1xf4
 97 541 l 1
 182 541 l 1
 175 591 l 2
 157 727 225 795 330 795 c 0
 379 795 414 783 437 767 c 1
 422 670 l 1
 409 678 386 689 346 689 c 0
 311 689 288 665 297 599 c 2
 305 541 l 1xf8
 449 541 l 1
 464 438 l 1
 112 438 l 1xf4
663 0 m 1
 554 780 l 1
 677 787 l 1
 787 0 l 1
 663 0 l 1
239 -227 m 0
 225 -227 205 -221 198 -217 c 1
 143 -98 l 1
 156 -105 176 -109 194 -109 c 0
 245 -109 267 -65 260 -9 c 2
 228 216 l 1
 350 216 l 1
 379 7 l 2xf4
 400 -139 344 -227 239 -227 c 0
EndSplineSet
Ligature2: "'liga' Standard Ligatures lookup 0 subtable" f l
EndChar

StartChar: ordfeminine
Encoding: 170 170 261
Width: 398
Flags: MW
HStem: 412 83<203.5 225.5> 565 68<190.5 210.5 159 220.5> 677 83<157.5 191.5>
VStem: 58 383
LayerCount: 2
Fore
SplineSet
197 412 m 0
 137 412 70 438 59 517 c 0
 48 596 119 633 199 633 c 0
 222 633 242 629 251 625 c 1
 248 629 l 1
 244 655 211 677 172 677 c 0
 128 677 96 661 84 652 c 1
 66 725 l 1
 79 736 122 760 193 760 c 0
 263 760 343 715 356 625 c 2
 366 548 l 2
 371 519 383 504 400 504 c 0
 403 504 407 504 411 507 c 1
 441 454 l 1
 428 434 403 412 362 412 c 0
 327 412 307 426 297 443 c 1
 287 432 254 412 197 412 c 0
219 495 m 0
 250 495 268 511 265 531 c 2
 260 553 l 1
 251 558 234 565 207 565 c 0
 174 565 158 556 161 537 c 0
 164 513 188 495 219 495 c 0
EndSplineSet
EndChar

StartChar: ordmasculine
Encoding: 186 186 262
Width: 422
Flags: MW
HStem: 411 90<225 277.5 225 313> 673 91<191.5 241.5>
VStem: 45 379
LayerCount: 2
Fore
SplineSet
252 411 m 0
 137 411 59 490 47 580 c 0
 33 681 106 764 216 764 c 0
 318 764 408 690 422 596 c 0
 436 497 374 411 252 411 c 0
253 501 m 0
 302 501 324 534 318 580 c 0
 311 632 268 673 215 673 c 0
 168 673 144 639 150 594 c 0
 157 544 197 501 253 501 c 0
EndSplineSet
EndChar

StartChar: uni03A9
Encoding: 937 937 263
Width: 948
Flags: MW
HStem: 0 102 658 112<403 553.5>
VStem: 129 852
LayerCount: 2
Fore
SplineSet
173 0 m 1
 159 101 l 1
 338 99 l 1
 239 153 151 256 133 385 c 0
 100 621 266 770 478 770 c 0
 677 770 885 631 917 399 c 0
 936 263 868 157 782 103 c 1
 967 101 l 1
 981 0 l 1
 639 0 l 1
 629 99 l 1
 741 136 819 258 801 385 c 0
 778 550 627 658 480 658 c 0
 326 658 228 547 248 403 c 0
 268 262 380 138 504 101 c 1
 515 0 l 1
 173 0 l 1
EndSplineSet
EndChar

StartChar: pi
Encoding: 960 960 264
Width: 772
Flags: MW
HStem: -14 98<724 751 724 759.5> 0 21G<278 390 278 278> 428 113<93 218 93 93 330 518 330 330 630 630 630 747 77 763>
VStem: 77 767<37 541>
LayerCount: 2
Fore
SplineSet
731 -14 m 0xb0
 647 -14 573 39 555 168 c 2
 518 428 l 1
 330 428 l 1
 390 0 l 1
 278 0 l 1x70
 218 428 l 1
 93 428 l 1
 77 541 l 1
 747 541 l 1
 763 428 l 1
 630 428 l 1
 666 176 l 2
 675 113 707 84 741 84 c 0
 761 84 778 94 785 104 c 1
 844 37 l 1
 823 10 788 -14 731 -14 c 0xb0
EndSplineSet
EndChar

StartChar: zero
Encoding: 48 48 265
Width: 831
Flags: MW
HStem: -14 117<466 563 466 611.5> 653 117<358 496>
VStem: 98 732<219 433>
LayerCount: 2
Fore
SplineSet
98 433 m 1
 95 615 203 770 422 770 c 0
 636 770 776 620 823 441 c 1
 689 433 l 1
 655 545 567 653 425 653 c 0
 291 653 234 551 230 441 c 1
 98 433 l 1
150 213 m 1
 298 219 l 1
 344 154 416 103 516 103 c 0
 610 103 664 148 690 213 c 1
 830 219 l 1
 803 86 704 -14 519 -14 c 0
 340 -14 217 81 150 213 c 1
EndSplineSet
EndChar

StartChar: one
Encoding: 49 49 266
Width: 695
Flags: MW
HStem: 0 108<263 398 531 681 263 263> 541 111<190 219.5 181 244.5>
VStem: 181 515
LayerCount: 2
Fore
SplineSet
190 541 m 1
 181 652 l 1
 258 652 319 678 346 754 c 1
 440 757 l 1
 449 682 l 1
 402 576 299 541 190 541 c 1
485 437 m 1
 531 108 l 1
 681 108 l 1
 696 0 l 1
 263 0 l 1
 248 108 l 1
 398 108 l 1
 352 437 l 1
 485 437 l 1
EndSplineSet
EndChar

StartChar: two
Encoding: 50 50 267
Width: 606
Flags: MW
HStem: 0 107 654 116<239.5 317.5>
VStem: 427 139
LayerCount: 2
Fore
SplineSet
98 555 m 1
 83 690 l 1
 100 714 169 770 283 770 c 0
 424 770 546 682 563 555 c 0
 574 479 555 400 519 322 c 1
 368 316 l 1
 411 392 436 471 427 535 c 0
 417 605 352 654 283 654 c 0
 196 654 139 603 98 555 c 1
130 32 m 1
 152 49 179 75 209 106 c 1
 628 108 l 1
 636 0 l 1
 147 0 l 1
 130 32 l 1
EndSplineSet
EndChar

StartChar: three
Encoding: 51 51 268
Width: 667
Flags: MW
HStem: -14 112<332 452.5 315 502.5> 655 115<268.5 346.5>
VStem: 456 123
LayerCount: 2
Fore
SplineSet
140 589 m 1
 128 703 l 1
 142 720 211 770 326 770 c 0
 438 770 561 705 576 598 c 0
 592 485 543 437 408 400 c 0
 339 378 255 353 219 338 c 1
 211 434 l 1
 223 441 276 461 332 475 c 0
 400 496 464 518 456 571 c 0
 448 625 388 655 305 655 c 0
 229 655 153 609 140 589 c 1
138 62 m 1
 123 203 l 1
 139 182 242 98 388 98 c 0
 517 98 560 149 564 212 c 1
 690 220 l 1
 693 89 602 -14 403 -14 c 0
 261 -14 166 37 138 62 c 1
EndSplineSet
EndChar

StartChar: four
Encoding: 52 52 269
Width: 700
Flags: MW
HStem: 0 216<526 659 526 526> 108 108<160 511 160 160 644 746 152 754 644 644> 437 320<226 553 337 371 465 465 465 553 337 598>
VStem: 129 625<108 153>
LayerCount: 2
Fore
SplineSet
226 437 m 1x70
 337 757 l 1
 553 757 l 1
 598 437 l 1
 465 437 l 1
 436 635 l 1
 371 437 l 1
 226 437 l 1x70
129 153 m 1
 152 216 l 1
 746 216 l 1
 754 108 l 1
 644 108 l 1x70
 659 0 l 1
 526 0 l 1xb0
 511 108 l 1
 160 108 l 1
 129 153 l 1
EndSplineSet
EndChar

StartChar: five
Encoding: 53 53 270
Width: 677
Flags: MW
HStem: -14 111<344.5 464 340 512.5> 639 118<92 221 383 554 383 383>
VStem: 92 598 560 130
LayerCount: 2
Fore
SplineSet
146 333 m 1xe0
 92 757 l 1
 204 757 l 1
 221 639 l 1
 227 590 l 1
 253 387 l 1
 205 374 170 353 146 333 c 1xe0
383 639 m 1
 366 757 l 1
 554 757 l 1
 563 639 l 1
 383 639 l 1
163 67 m 1
 147 204 l 1
 182 155 276 97 404 97 c 0
 524 97 573 160 560 252 c 0
 551 317 496 375 414 392 c 1
 404 510 l 1
 552 502 666 414 686 270 c 0xd0
 711 94 610 -14 415 -14 c 0
 274 -14 186 44 163 67 c 1
EndSplineSet
EndChar

StartChar: six
Encoding: 54 54 271
Width: 775
Flags: MW
HStem: -14 122<502 544.5 502 593.5> 409 117<449.5 529.5> 657 113<379.5 506.5 350 520.5>
VStem: 112 130
LayerCount: 2
Fore
SplineSet
117 338 m 0
 77 621 251 770 449 770 c 0
 564 770 621 742 653 718 c 1
 665 596 l 1
 646 611 590 657 451 657 c 0
 308 657 224 533 245 378 c 2
 254 319 l 1
 121 315 l 1
 119 324 118 333 117 338 c 0
226 105 m 1
 502 108 l 2
 587 108 673 154 658 262 c 0
 644 359 573 409 486 409 c 0
 413 409 357 373 331 322 c 1
 255 316 l 1
 262 403 337 526 501 526 c 0
 627 526 762 447 785 282 c 0
 809 108 687 -14 500 -14 c 0
 408 -14 305 24 226 105 c 1
EndSplineSet
EndChar

StartChar: seven
Encoding: 55 55 272
Width: 615
Flags: MW
HStem: -4 21G<319 319> 640 116
VStem: 300 143
LayerCount: 2
Fore
SplineSet
50 639 m 1
 33 757 l 1
 582 757 l 1
 594 734 l 1
 577 703 561 672 546 642 c 1
 50 639 l 1
310 47 m 0
 290 189 301 321 329 434 c 1
 471 440 l 1
 440 319 435 192 456 43 c 0
 459 28 461 16 463 4 c 1
 319 -4 l 1
 315 14 312 32 310 47 c 0
EndSplineSet
EndChar

StartChar: eight
Encoding: 56 56 273
Width: 748
Flags: MW
HStem: -8 21G<557 557> -7 21G<395 395> 741 20G<465 465> 743 20G<302 302>
VStem: 127 638
LayerCount: 2
Fore
SplineSet
129 235 m 0x58
 114 343 177 402 215 421 c 1
 189 433 142 473 131 549 c 0
 116 655 184 740 302 763 c 1x58
 312 653 l 1
 273 636 253 608 259 568 c 0
 272 475 377 467 494 448 c 1
 532 463 558 498 551 551 c 0
 545 591 515 627 475 646 c 1
 465 761 l 1
 585 732 654 651 667 561 c 0
 679 471 633 424 609 414 c 1
 670 394 747 350 763 238 c 0
 780 118 705 15 557 -8 c 1xa8
 547 113 l 1
 609 132 636 175 629 223 c 0
 619 297 550 340 435 347 c 0
 365 352 341 361 310 374 c 1
 295 368 247 335 258 259 c 0
 267 194 316 141 384 118 c 1
 395 -7 l 1
 245 19 147 108 129 235 c 0x58
EndSplineSet
EndChar

StartChar: nine
Encoding: 57 57 274
Width: 763
Flags: MW
HStem: -14 113<376 503 362 532.5> 230 117<353 433 353 463.5> 648 122<338.5 381>
VStem: 640 131
LayerCount: 2
Fore
SplineSet
656 651 m 1
 381 648 l 2
 296 648 210 602 225 494 c 0
 239 397 310 347 396 347 c 0
 470 347 525 383 551 434 c 1
 628 440 l 1
 621 353 546 230 381 230 c 0
 256 230 121 309 98 474 c 0
 73 648 195 770 383 770 c 0
 474 770 578 732 656 651 c 1
766 418 m 0
 805 135 631 -14 434 -14 c 0
 318 -14 262 14 230 38 c 1
 217 160 l 1
 236 145 293 99 431 99 c 0
 575 99 659 223 637 378 c 2
 629 437 l 1
 762 441 l 1
 764 432 765 424 766 418 c 0
EndSplineSet
EndChar

StartChar: uni00B9
Encoding: 185 185 275
Width: 378
Flags: MW
HStem: 500 79<124 124 124 186 281 336>
VStem: 94 253
LayerCount: 2
Fore
SplineSet
124 500 m 1
 113 579 l 1
 186 579 l 1
 162 747 l 1
 104 729 l 1
 94 804 l 1
 173 838 l 1
 245 838 l 1
 281 579 l 1
 336 579 l 1
 347 500 l 1
 124 500 l 1
EndSplineSet
EndChar

StartChar: uni00B2
Encoding: 178 178 276
Width: 378
Flags: MW
HStem: 500 80 764 79<144 165.5>
VStem: 214 94
LayerCount: 2
Fore
SplineSet
108 500 m 1
 97 522 l 1
 170 573 221 649 214 708 c 0
 209 739 184 764 147 764 c 0
 112 764 91 744 83 731 c 1
 76 809 l 1
 83 817 118 843 170 843 c 0
 236 843 298 805 308 738 c 0
 318 663 267 598 245 581 c 1
 341 579 l 1
 348 500 l 1
 108 500 l 1
EndSplineSet
EndChar

StartChar: uni00B3
Encoding: 179 179 277
Width: 378
Flags: MW
HStem: 495 72<166 210 162 237.5> 770 73<144.5 168.5>
VStem: 77 259 210 76 246 89
LayerCount: 2
Fore
SplineSet
187 495 m 0xe0
 145 495 114 509 99 519 c 1
 92 601 l 1
 107 586 135 567 189 567 c 0
 231 567 249 586 246 608 c 0
 243 632 217 654 179 654 c 0xc8
 147 654 124 645 116 638 c 1
 114 689 l 1
 125 698 143 707 166 710 c 0
 201 717 212 721 210 735 c 0
 208 753 184 770 153 770 c 0
 117 770 90 754 83 743 c 1
 77 814 l 1
 82 819 117 843 172 843 c 0
 236 843 279 814 286 767 c 0xd0
 291 732 276 716 271 710 c 1
 285 704 326 683 335 623 c 0xc8
 346 544 288 495 187 495 c 0xe0
EndSplineSet
EndChar

StartChar: asterisk
Encoding: 42 42 278
Width: 345
Flags: MW
HStem: 522 275<158 224>
VStem: 52 279<635 681> 75 148<602 612>
LayerCount: 2
Fore
SplineSet
224 522 m 1xa0
 198 531 171 537 143 539 c 1
 158 624 l 1
 75 602 l 1
 70 631 62 659 52 681 c 1
 140 690 l 1
 90 765 l 1
 114 774 138 784 158 797 c 1
 201 717 l 1
 248 785 l 1
 265 765 287 744 311 725 c 1
 247 669 l 1
 331 635 l 1
 317 612 308 588 302 566 c 1
 223 612 l 1
 224 522 l 1xa0
EndSplineSet
EndChar

StartChar: backslash
Encoding: 92 92 279
Width: 498
Flags: MW
HStem: -27 811<-18 520 -18 624>
VStem: -18 642
LayerCount: 2
Fore
SplineSet
520 -27 m 1
 -18 784 l 1
 86 784 l 1
 624 -27 l 1
 520 -27 l 1
EndSplineSet
EndChar

StartChar: periodcentered
Encoding: 183 183 280
Width: 259
Flags: MW
HStem: 319 118
VStem: 113 142
LayerCount: 2
Fore
SplineSet
113 373 m 0
 109 398 120 422 137 435 c 1
 220 439 l 1
 241 426 252 406 255 387 c 0
 259 359 248 334 229 321 c 1
 151 317 l 1
 128 330 116 352 113 373 c 0
EndSplineSet
EndChar

StartChar: bullet
Encoding: 8226 8226 281
Width: 404
Flags: MW
HStem: 216 221
VStem: 143 241
LayerCount: 2
Fore
SplineSet
144 331 m 0
 138 375 155 413 183 435 c 1
 321 439 l 1
 355 417 378 382 383 345 c 0
 393 275 344 216 273 216 c 0
 210 216 153 267 144 331 c 0
EndSplineSet
EndChar

StartChar: colon
Encoding: 58 58 282
Width: 259
Flags: MW
HStem: 108 108 319 118
VStem: 111 178 112 142
LayerCount: 2
Fore
SplineSet
112 383 m 0xd0
 109 403 115 421 126 434 c 1
 232 440 l 1
 245 427 252 411 254 397 c 0
 259 357 236 319 187 319 c 0
 143 319 116 349 112 383 c 0xd0
146 139 m 0
 140 177 166 216 215 216 c 0
 254 216 283 185 288 153 c 0
 290 136 287 122 282 111 c 1
 159 105 l 1
 151 116 147 129 146 139 c 0
EndSplineSet
EndChar

StartChar: comma
Encoding: 44 44 283
Width: 259
Flags: MW
HStem: -109 262<151 237>
VStem: 149 150 199 99
LayerCount: 2
Fore
SplineSet
151 -109 m 1xa0
 181 -69 206 0 199 52 c 0
 195 81 175 103 149 119 c 1
 237 153 l 1
 251 150 291 131 298 83 c 0
 308 7 225 -88 204 -104 c 1
 151 -109 l 1xa0
EndSplineSet
EndChar

StartChar: ellipsis
Encoding: 8230 8230 284
Width: 765
Flags: MW
HStem: -14 122
VStem: 158 648
LayerCount: 2
Fore
SplineSet
158 50 m 0
 155 72 163 92 176 106 c 1
 274 110 l 1
 290 97 298 79 300 64 c 0
 306 24 283 -14 234 -14 c 0
 190 -14 163 16 158 50 c 0
416 50 m 0
 413 72 421 92 434 106 c 1
 532 110 l 1
 548 97 556 79 558 64 c 0
 564 24 540 -14 492 -14 c 0
 448 -14 421 16 416 50 c 0
663 50 m 0
 660 72 668 92 681 106 c 1
 779 110 l 1
 795 97 803 79 805 64 c 0
 811 24 788 -14 739 -14 c 0
 695 -14 668 16 663 50 c 0
EndSplineSet
EndChar

StartChar: exclam
Encoding: 33 33 285
Width: 304
Flags: MW
HStem: -14 122
VStem: 87 232
LayerCount: 2
Fore
SplineSet
87 753 m 1
 215 760 l 1
 267 319 l 1
 155 319 l 1
 87 753 l 1
176 50 m 0
 173 72 181 92 194 106 c 1
 292 110 l 1
 308 97 316 79 318 64 c 0
 324 24 300 -14 252 -14 c 0
 208 -14 181 16 176 50 c 0
EndSplineSet
EndChar

StartChar: exclamdown
Encoding: 161 161 286
Width: 304
Flags: MW
HStem: -14 21G<192 192> -7 21G<320 320> 638 121
VStem: 88 232
LayerCount: 2
Fore
SplineSet
89 682 m 0x70
 83 722 107 760 155 760 c 0
 199 760 226 730 231 696 c 0
 234 674 226 655 214 641 c 1
 114 636 l 1
 98 650 91 667 89 682 c 0x70
192 -14 m 1xb0
 138 437 l 1
 250 437 l 1
 320 -7 l 1x70
 192 -14 l 1xb0
EndSplineSet
EndChar

StartChar: numbersign
Encoding: 35 35 287
Width: 696
Flags: MW
HStem: 0 21G<307 307 307 396 494 494 494 584> 146 90<181 294 177 299 181 181 389 389 389 481 577 577 577 681> 346 91<170 283 165 288 170 170 377 377 377 470 565 565 565 670>
VStem: 279 89 291 89 303 89 466 90 478 90 490 90
LayerCount: 2
Fore
SplineSet
307 0 m 1xe480
 299 146 l 1xe480
 181 146 l 1
 177 236 l 1
 294 236 l 1
 288 346 l 1xe880
 170 346 l 1
 165 437 l 1
 283 437 l 1
 275 595 l 1
 364 595 l 1
 373 437 l 1
 470 437 l 1
 462 595 l 1
 552 595 l 1
 561 437 l 1xf2
 670 437 l 1
 676 346 l 1
 565 346 l 1
 572 236 l 1xe5
 681 236 l 1
 686 146 l 1
 577 146 l 1
 584 0 l 1
 494 0 l 1
 486 146 l 1
 389 146 l 1
 396 0 l 1
 307 0 l 1xe480
384 236 m 1xe9
 481 236 l 1
 475 346 l 1
 377 346 l 1
 384 236 l 1xe9
EndSplineSet
EndChar

StartChar: period
Encoding: 46 46 288
Width: 259
Flags: MW
HStem: -14 122
VStem: 158 143
LayerCount: 2
Fore
SplineSet
158 50 m 0
 155 72 163 92 176 106 c 1
 274 110 l 1
 290 97 298 79 300 64 c 0
 306 24 283 -14 234 -14 c 0
 190 -14 163 16 158 50 c 0
EndSplineSet
EndChar

StartChar: question
Encoding: 63 63 289
Width: 474
Flags: MW
HStem: -14 122 661 109<179 258>
VStem: 206 124<315 322> 349 121
LayerCount: 2
Fore
SplineSet
46 702 m 1
 63 723 108 770 227 770 c 0
 359 770 455 686 467 597 c 0xd0
 480 510 457 463 397 416 c 1
 355 377 333 351 330 322 c 1
 206 315 l 1xf0
 208 357 238 400 288 444 c 1
 332 491 354 528 349 567 c 0
 343 607 300 661 216 661 c 0
 142 661 102 626 81 596 c 1
 46 702 l 1
255 50 m 0
 252 72 260 92 272 106 c 1
 371 110 l 1
 387 97 395 79 397 64 c 0
 403 24 379 -14 330 -14 c 0
 287 -14 260 16 255 50 c 0
EndSplineSet
EndChar

StartChar: questiondown
Encoding: 191 191 290
Width: 474
Flags: MW
HStem: -13 109<334 413 334 425> 639 132
VStem: 122 122 262 124<434 440>
LayerCount: 2
Fore
SplineSet
195 693 m 0
 189 733 213 771 263 771 c 0
 305 771 332 741 337 707 c 0
 341 679 328 653 307 641 c 1
 236 637 l 1
 212 650 198 672 195 693 c 0
125 160 m 0
 113 247 136 294 196 341 c 1
 236 380 259 406 262 434 c 1
 386 440 l 1xf0
 384 399 354 356 304 313 c 1
 260 266 238 229 244 190 c 0
 249 150 292 96 376 96 c 0
 450 96 490 131 512 161 c 1
 546 55 l 1
 529 34 484 -13 366 -13 c 0
 233 -13 137 71 125 160 c 0
EndSplineSet
EndChar

StartChar: quotedbl
Encoding: 34 34 291
Width: 481
Flags: MW
HStem: 595 243<113 113 113 179 65 203 324 390 65 414 324 324>
VStem: 65 349<595 838>
LayerCount: 2
Fore
SplineSet
113 595 m 1
 65 838 l 1
 179 838 l 1
 203 595 l 1
 113 595 l 1
324 595 m 1
 276 838 l 1
 390 838 l 1
 414 595 l 1
 324 595 l 1
EndSplineSet
EndChar

StartChar: quotesingle
Encoding: 39 39 292
Width: 270
Flags: MW
HStem: 595 243<113 113 113 179 65 203>
VStem: 65 138
LayerCount: 2
Fore
SplineSet
113 595 m 1
 65 838 l 1
 179 838 l 1
 203 595 l 1
 113 595 l 1
EndSplineSet
EndChar

StartChar: semicolon
Encoding: 59 59 293
Width: 259
Flags: MW
HStem: 319 118
VStem: 111 183 112 142 195 98
LayerCount: 2
Fore
SplineSet
112 383 m 0xa0
 109 403 115 421 125 434 c 1
 231 440 l 1
 245 427 252 411 254 397 c 0
 259 357 236 319 187 319 c 0
 143 319 116 349 112 383 c 0xa0
146 -48 m 1x90
 177 -8 202 61 195 113 c 0
 190 142 171 164 145 180 c 1
 233 214 l 1
 246 211 286 192 293 144 c 0
 304 68 220 -27 200 -43 c 1
 146 -48 l 1x90
EndSplineSet
EndChar

StartChar: slash
Encoding: 47 47 294
Width: 498
Flags: MW
HStem: -27 811<97 507 97 507>
VStem: 97 410
LayerCount: 2
Fore
SplineSet
97 -27 m 1
 407 784 l 1
 507 784 l 1
 197 -27 l 1
 97 -27 l 1
EndSplineSet
EndChar

StartChar: underscore
Encoding: 95 95 295
Width: 696
Flags: MW
HStem: -112 112<190 190 190 734 174 750>
VStem: 174 576<-112 0>
LayerCount: 2
Fore
SplineSet
190 -112 m 1
 174 0 l 1
 734 0 l 1
 750 -112 l 1
 190 -112 l 1
EndSplineSet
EndChar

StartChar: braceleft
Encoding: 123 123 296
Width: 339
Flags: MW
HStem: -272 101<401 408 408 420 401 435> 212 112<107 135> 738 101<258 265 265 276 258 291>
VStem: 111 175 120 107
LayerCount: 2
Fore
SplineSet
408 -272 m 2xa8
 328 -272 245 -209 238 -126 c 2
 219 134 l 2
 215 185 154 212 116 212 c 1
 107 324 l 1
 146 326 190 353 181 396 c 2xf0
 124 672 l 2
 103 768 173 839 258 839 c 2
 276 839 l 1
 291 738 l 1
 265 738 l 2
 236 738 221 717 227 689 c 2xa8
 283 413 l 2
 299 334 268 283 239 271 c 1
 282 246 314 208 319 142 c 2
 341 -113 l 2xb0
 344 -146 376 -171 401 -171 c 2
 420 -171 l 1
 435 -272 l 1
 408 -272 l 2xa8
EndSplineSet
EndChar

StartChar: braceright
Encoding: 125 125 297
Width: 339
Flags: MW
HStem: -272 101<196 196 196 208 208 215> 212 112<362 362 362 371> 738 101<56 67 67 74 56 56>
VStem: 192 174
LayerCount: 2
Fore
SplineSet
196 -272 m 1
 181 -171 l 1
 208 -171 l 2
 233 -171 252 -154 245 -121 c 2
 195 134 l 2
 182 200 209 242 239 265 c 1
 201 281 163 326 157 405 c 2
 135 681 l 2
 133 709 103 738 74 738 c 2
 56 738 l 1
 41 839 l 1
 67 839 l 2
 152 839 233 776 239 680 c 2
 259 404 l 2
 262 361 323 326 362 324 c 1
 371 212 l 1
 333 212 287 193 297 142 c 2
 350 -118 l 2
 367 -201 295 -272 215 -272 c 2
 196 -272 l 1
EndSplineSet
EndChar

StartChar: bracketleft
Encoding: 91 91 298
Width: 342
Flags: MW
HStem: -261 96<211 439 298 439 298 452> 738 97<171 298 57 312 171 171>
VStem: 57 395
LayerCount: 2
Fore
SplineSet
211 -261 m 1
 57 835 l 1
 298 835 l 1
 312 738 l 1
 171 738 l 1
 298 -165 l 1
 439 -165 l 1
 452 -261 l 1
 211 -261 l 1
EndSplineSet
EndChar

StartChar: bracketright
Encoding: 93 93 299
Width: 342
Flags: MW
HStem: -261 96<176 176 176 304 163 417> 738 97<36 177 36 36>
VStem: 22 395
LayerCount: 2
Fore
SplineSet
176 -261 m 1
 163 -165 l 1
 304 -165 l 1
 177 738 l 1
 36 738 l 1
 22 835 l 1
 263 835 l 1
 417 -261 l 1
 176 -261 l 1
EndSplineSet
EndChar

StartChar: parenleft
Encoding: 40 40 300
Width: 346
Flags: MW
HStem: -219 21G<317 317>
VStem: 101 112
LayerCount: 2
Fore
SplineSet
317 -219 m 1
 228 -119 140 66 112 263 c 0
 80 490 120 687 181 781 c 1
 298 787 l 1
 219 673 198 461 223 277 c 0
 246 118 336 -109 443 -213 c 1
 317 -219 l 1
EndSplineSet
EndChar

StartChar: parenright
Encoding: 41 41 301
Width: 346
Flags: MW
HStem: -219 21G<183 183>
VStem: 269 113
LayerCount: 2
Fore
SplineSet
183 -219 m 1
 261 -115 283 110 261 263 c 0
 235 453 150 667 38 781 c 1
 164 787 l 1
 251 693 341 498 372 277 c 0
 401 74 361 -113 300 -213 c 1
 183 -219 l 1
EndSplineSet
EndChar

StartChar: emdash
Encoding: 8212 8212 302
Width: 1105
Flags: MW
HStem: 271 112<136 136 136 1091 121 1106>
VStem: 121 985<271 383>
LayerCount: 2
Fore
SplineSet
136 271 m 1
 121 383 l 1
 1091 383 l 1
 1106 271 l 1
 136 271 l 1
EndSplineSet
EndChar

StartChar: endash
Encoding: 8211 8211 303
Width: 696
Flags: MW
HStem: 271 112<136 136 136 681 121 696>
VStem: 121 575<271 383>
LayerCount: 2
Fore
SplineSet
136 271 m 1
 121 383 l 1
 681 383 l 1
 696 271 l 1
 136 271 l 1
EndSplineSet
EndChar

StartChar: hyphen
Encoding: 45 45 304
Width: 486
Flags: MW
HStem: 271 112<136 136 136 472 121 487>
VStem: 121 366<271 383>
LayerCount: 2
Fore
SplineSet
136 271 m 1
 121 383 l 1
 472 383 l 1
 487 271 l 1
 136 271 l 1
EndSplineSet
EndChar

StartChar: uni00AD
Encoding: 173 173 305
Width: 486
Flags: MW
HStem: 271 112<147 147 147 483 132 498>
VStem: 132 366<271 383>
LayerCount: 2
Fore
SplineSet
147 271 m 1
 132 383 l 1
 483 383 l 1
 498 271 l 1
 147 271 l 1
EndSplineSet
EndChar

StartChar: guillemotleft
Encoding: 171 171 306
Width: 633
Flags: MW
HStem: 113 395<280 331 280 574>
VStem: 117 526<164 311>
LayerCount: 2
Fore
SplineSet
331 113 m 1
 117 311 l 1
 280 508 l 1
 358 457 l 1
 259 311 l 1
 400 164 l 1
 331 113 l 1
574 113 m 1
 360 311 l 1
 523 508 l 1
 601 457 l 1
 502 311 l 1
 643 164 l 1
 574 113 l 1
EndSplineSet
EndChar

StartChar: guillemotright
Encoding: 187 187 307
Width: 633
Flags: MW
HStem: 113 395<184 235 184 478>
VStem: 116 526<311 457>
LayerCount: 2
Fore
SplineSet
235 113 m 1
 158 164 l 1
 257 311 l 1
 116 457 l 1
 184 508 l 1
 399 311 l 1
 235 113 l 1
478 113 m 1
 401 164 l 1
 500 311 l 1
 359 457 l 1
 427 508 l 1
 642 311 l 1
 478 113 l 1
EndSplineSet
EndChar

StartChar: guilsinglleft
Encoding: 8249 8249 308
Width: 390
Flags: MW
HStem: 113 395<280 331>
VStem: 117 283<164 311>
LayerCount: 2
Fore
SplineSet
331 113 m 1
 117 311 l 1
 280 508 l 1
 358 457 l 1
 259 311 l 1
 400 164 l 1
 331 113 l 1
EndSplineSet
EndChar

StartChar: guilsinglright
Encoding: 8250 8250 309
Width: 390
Flags: MW
HStem: 113 395<184 235>
VStem: 116 283<311 457>
LayerCount: 2
Fore
SplineSet
235 113 m 1
 158 164 l 1
 257 311 l 1
 116 457 l 1
 184 508 l 1
 399 311 l 1
 235 113 l 1
EndSplineSet
EndChar

StartChar: quotedblbase
Encoding: 8222 8222 310
Width: 449
Flags: MW
HStem: -109 262<151 237 237 340>
VStem: 149 339 199 99 388 99
LayerCount: 2
Fore
SplineSet
151 -109 m 1xb0
 181 -69 206 0 199 52 c 0
 195 81 175 103 149 119 c 1
 237 153 l 1
 251 150 291 131 298 83 c 0
 308 7 225 -88 204 -104 c 1
 151 -109 l 1xb0
340 -109 m 1
 370 -69 395 0 388 52 c 0
 384 81 364 103 338 119 c 1
 426 153 l 1
 440 150 480 131 487 83 c 0
 497 7 414 -88 393 -104 c 1
 340 -109 l 1
EndSplineSet
EndChar

StartChar: quotedblleft
Encoding: 8220 8220 311
Width: 449
Flags: MW
HStem: 535 262<141 227 227 330>
VStem: 79 339 80 99 269 99
LayerCount: 2
Fore
SplineSet
141 535 m 1xb0
 128 538 87 557 80 605 c 0
 70 681 153 776 174 792 c 1
 227 797 l 1
 197 757 172 688 179 636 c 0
 183 607 203 585 229 569 c 1
 141 535 l 1xb0
330 535 m 1
 317 538 276 557 269 605 c 0
 259 681 342 776 363 792 c 1
 416 797 l 1
 386 757 361 688 368 636 c 0
 372 607 392 585 418 569 c 1
 330 535 l 1
EndSplineSet
EndChar

StartChar: quotedblright
Encoding: 8221 8221 312
Width: 449
Flags: MW
HStem: 742 20G<81 81 270 270>
VStem: 81 338 131 98 320 98
LayerCount: 2
Fore
SplineSet
82 534 m 1xb0
 113 574 138 643 131 695 c 0
 127 724 107 746 81 762 c 1
 169 796 l 1
 182 793 223 774 229 726 c 0
 240 650 157 555 136 539 c 1
 82 534 l 1xb0
271 534 m 1
 302 574 327 643 320 695 c 0
 316 724 296 746 270 762 c 1
 358 796 l 1
 371 793 412 774 418 726 c 0
 429 650 346 555 325 539 c 1
 271 534 l 1
EndSplineSet
EndChar

StartChar: quoteleft
Encoding: 8216 8216 313
Width: 259
Flags: MW
HStem: 535 262<141 227>
VStem: 79 150 80 99
LayerCount: 2
Fore
SplineSet
141 535 m 1xa0
 128 538 87 557 80 605 c 0
 70 681 153 776 174 792 c 1
 227 797 l 1
 197 757 172 688 179 636 c 0
 183 607 203 585 229 569 c 1
 141 535 l 1xa0
EndSplineSet
EndChar

StartChar: quoteright
Encoding: 8217 8217 314
Width: 259
Flags: MW
HStem: 742 20G<81 81>
VStem: 81 149 131 98
LayerCount: 2
Fore
SplineSet
82 534 m 1xa0
 113 574 138 643 131 695 c 0
 127 724 107 746 81 762 c 1
 169 796 l 1
 182 793 223 774 229 726 c 0
 240 650 157 555 136 539 c 1
 82 534 l 1xa0
EndSplineSet
EndChar

StartChar: quotesinglbase
Encoding: 8218 8218 315
Width: 259
Flags: MW
HStem: -109 262<151 237>
VStem: 149 150 199 99
LayerCount: 2
Fore
SplineSet
151 -109 m 1xa0
 181 -69 206 0 199 52 c 0
 195 81 175 103 149 119 c 1
 237 153 l 1
 251 150 291 131 298 83 c 0
 308 7 225 -88 204 -104 c 1
 151 -109 l 1xa0
EndSplineSet
EndChar

StartChar: cent
Encoding: 162 162 320
Width: 556
Flags: MW
HStem: -2 21G<330 330 330 430> 65 106<434 443 434 443> 621 79<465 465>
VStem: 330 101 348 100 367 98<621 700 621 700>
LayerCount: 2
Fore
SplineSet
330 -2 m 1xf0
 331 80 l 1xf0
 201 119 118 225 101 341 c 0
 80 495 178 631 367 632 c 1
 367 700 l 1
 466 700 l 1
 465 621 l 1
 495 613 523 603 546 590 c 1
 521 478 l 1xe4
 505 492 481 505 454 513 c 1
 443 171 l 1xe8
 509 173 557 192 578 226 c 1
 592 192 608 156 622 123 c 1
 583 90 519 65 440 65 c 2
 434 65 l 1
 430 -2 l 1
 330 -2 l 1xf0
343 193 m 1xe8
 354 523 l 1
 253 512 211 434 222 355 c 0
 232 290 277 224 343 193 c 1xe8
EndSplineSet
EndChar

StartChar: currency
Encoding: 164 164 321
Width: 696
Flags: MW
HStem: 68 100<417.5 463.5> 454 100<354.5 400.5 354.5 424>
VStem: 165 101 553 98
LayerCount: 2
Fore
SplineSet
237 31 m 1
 158 102 l 1
 222 175 l 1
 190 214 174 259 168 302 c 0
 161 351 168 399 187 440 c 1
 99 519 l 1
 163 592 l 1
 251 512 l 1
 286 539 330 554 379 554 c 0
 422 554 469 542 516 516 c 1
 582 592 l 1
 660 519 l 1
 596 446 l 1
 627 407 645 362 651 319 c 0
 658 270 649 222 630 181 c 1
 719 102 l 1
 656 31 l 1
 566 109 l 1
 531 83 488 68 439 68 c 0
 396 68 347 79 302 105 c 1
 237 31 l 1
436 168 m 0
 512 168 563 228 553 304 c 0
 541 385 465 454 383 454 c 0
 308 454 255 393 266 318 c 0
 277 236 355 168 436 168 c 0
EndSplineSet
EndChar

StartChar: dollar
Encoding: 36 36 322
Width: 617
Flags: MW
HStem: -24 58<467 467 467 479> 28 104<359 367> 725 59<277 277>
VStem: 513 119
LayerCount: 2
Fore
SplineSet
378 -24 m 1xb0
 367 28 l 1
 269 35 187 84 171 99 c 1
 154 246 l 1
 175 209 258 141 359 132 c 1x70
 324 339 l 1
 223 363 123 416 109 518 c 0
 93 628 163 705 277 725 c 1
 265 784 l 1
 366 784 l 1
 377 730 l 1
 444 722 497 695 516 680 c 1
 529 556 l 1
 500 586 442 613 386 621 c 1
 416 431 l 1
 439 427 l 1
 537 399 615 353 629 255 c 0
 646 132 583 56 467 34 c 1
 479 -24 l 1
 378 -24 l 1xb0
313 462 m 1
 285 618 l 1
 243 607 217 586 223 544 c 0
 229 503 267 478 313 462 c 1
459 140 m 1
 503 155 518 184 513 225 c 0
 507 266 481 294 428 313 c 1
 459 140 l 1
EndSplineSet
EndChar

StartChar: Euro
Encoding: 8364 8364 323
Width: 752
Flags: MW
HStem: -14 117<547 630.5> 226 110 229 111 411 112 415 111 652 118<463 537.5 411.5 544.5>
VStem: 62 716<49 525> 180 134<409 417>
LayerCount: 2
Fore
SplineSet
575 -14 m 0xae
 423 -14 291 71 223 225 c 1
 103 228 l 1
 88 339 l 1
 190 335 l 1
 188 345 186 355 185 363 c 0
 183 380 181 395 180 409 c 1
 77 413 l 1
 62 525 l 1xd5
 187 522 l 1
 215 673 326 770 497 770 c 0
 578 770 638 750 671 732 c 1
 685 597 l 1
 648 622 587 652 502 652 c 0
 424 652 357 609 328 528 c 1
 566 525 l 1
 581 413 l 1
 314 417 l 1
 314 405 315 392 317 383 c 0
 319 367 322 355 325 343 c 1xad
 592 339 l 1
 607 228 l 1
 371 231 l 1
 424 148 508 103 586 103 c 0
 676 103 734 137 766 172 c 1
 778 49 l 1
 744 16 686 -14 575 -14 c 0xae
EndSplineSet
EndChar

StartChar: florin
Encoding: 402 402 324
Width: 424
Flags: MW
HStem: -176 118<107 111 78 175.5> 428 113<81 165 80 166 81 81 288 433> 664 106<335 372 274 374.5>
VStem: 166 121
LayerCount: 2
Fore
SplineSet
115 -176 m 0
 99 -176 81 -170 74 -165 c 1
 37 -47 l 1
 50 -53 70 -58 86 -58 c 0
 136 -58 166 -12 167 42 c 2
 166 428 l 1
 81 428 l 1
 80 541 l 1
 165 541 l 1
 166 570 l 1
 161 679 199 770 349 770 c 0
 395 770 424 763 450 746 c 1
 421 648 l 1
 405 656 389 664 360 664 c 0
 310 664 286 644 286 569 c 1
 288 541 l 1
 433 541 l 1
 433 428 l 1
 288 428 l 1
 287 34 l 2
 286 -64 236 -176 115 -176 c 0
EndSplineSet
EndChar

StartChar: sterling
Encoding: 163 163 325
Width: 549
Flags: MW
HStem: -14 117<500 547.5> 54 113<321 350> 340 112<86 156 70 172 86 86 297 297 297 454> 658 111<325.5 358.5 269.5 383>
VStem: 182 127
LayerCount: 2
Fore
SplineSet
534 -14 m 0xa8
 434 -14 395 54 305 54 c 0
 252 54 210 42 179 25 c 1
 112 125 l 1
 167 152 191 203 182 264 c 2
 172 340 l 1
 86 340 l 1
 70 452 l 1
 156 452 l 1
 142 549 l 2
 123 684 208 769 331 769 c 0
 386 769 432 750 453 732 c 1
 467 605 l 1
 452 625 412 658 354 658 c 0
 297 658 258 617 266 556 c 2
 281 452 l 1
 454 452 l 1
 470 340 l 1
 297 340 l 1
 306 272 l 2
 311 236 310 193 301 169 c 1
 311 167 317 167 325 167 c 0x78
 421 167 458 103 542 103 c 0
 559 103 578 106 587 112 c 1
 597 2 l 1
 588 -3 561 -14 534 -14 c 0xa8
EndSplineSet
EndChar

StartChar: yen
Encoding: 165 165 326
Width: 661
Flags: MW
HStem: -1 21G<372 372> 172 102<185 335 171 349 185 185 477 477 477 622> 338 102<162 257 148 326 162 162 485 599>
VStem: -12 680<755 759> 330 128
LayerCount: 2
Fore
SplineSet
372 -1 m 2xf0
 375 0 373 1 372 10 c 2
 349 172 l 1
 185 172 l 1
 171 274 l 1
 335 274 l 1
 326 338 l 1
 162 338 l 1
 148 440 l 1
 257 440 l 1
 4 740 l 2
 -1 746 -7 753 -12 755 c 2
 148 757 l 1
 370 484 l 1
 511 757 l 1
 668 759 l 2
 664 757 661 752 656 746 c 2
 485 440 l 1
 599 440 l 1
 613 338 l 1
 454 338 l 1
 463 274 l 1xe8
 622 274 l 1
 636 172 l 1
 477 172 l 1
 499 18 l 2
 500 9 505 3 507 2 c 2
 372 -1 l 2xf0
EndSplineSet
EndChar

StartChar: plus
Encoding: 43 43 327
Width: 696
Flags: MW
HStem: 270 112<137 344 122 359 137 137 471 471 471 679>
VStem: 122 572<270 382>
LayerCount: 2
Fore
SplineSet
390 54 m 1
 359 270 l 1
 137 270 l 1
 122 382 l 1
 344 382 l 1
 314 595 l 1
 426 595 l 1
 456 382 l 1
 679 382 l 1
 694 270 l 1
 471 270 l 1
 502 54 l 1
 390 54 l 1
EndSplineSet
EndChar

StartChar: minus
Encoding: 8722 8722 328
Width: 696
Flags: MW
HStem: 271 112<136 136 136 681 121 696>
VStem: 121 575<271 383>
LayerCount: 2
Fore
SplineSet
136 271 m 1
 121 383 l 1
 681 383 l 1
 696 271 l 1
 136 271 l 1
EndSplineSet
EndChar

StartChar: multiply
Encoding: 215 215 329
Width: 696
Flags: MW
HStem: 50 469<228 290 228 600>
VStem: 158 511<130 440>
LayerCount: 2
Fore
SplineSet
290 50 m 1
 201 130 l 1
 335 285 l 1
 158 440 l 1
 228 519 l 1
 405 363 l 1
 539 519 l 1
 626 440 l 1
 492 285 l 1
 669 130 l 1
 600 50 l 1
 422 205 l 1
 290 50 l 1
EndSplineSet
EndChar

StartChar: divide
Encoding: 247 247 330
Width: 696
Flags: MW
HStem: 13 141<427 462 418 473.5> 226 102<166 166 166 664 151 679> 396 141<373 408.5 364.5 419.5>
VStem: 151 528<226 328>
LayerCount: 2
Fore
SplineSet
395 396 m 0
 351 396 324 426 320 460 c 0
 314 498 340 537 389 537 c 0
 428 537 457 506 462 474 c 0
 467 434 444 396 395 396 c 0
166 226 m 1
 151 328 l 1
 664 328 l 1
 679 226 l 1
 166 226 l 1
449 13 m 0
 405 13 378 43 374 77 c 0
 368 115 394 154 442 154 c 0
 482 154 511 123 516 91 c 0
 521 51 498 13 449 13 c 0
EndSplineSet
EndChar

StartChar: equal
Encoding: 61 61 331
Width: 696
Flags: MW
HStem: 147 112<171 171 171 679 155 695> 384 113<137 137 137 646 122 661>
VStem: 122 573<147 497>
LayerCount: 2
Fore
SplineSet
137 384 m 1
 122 497 l 1
 646 497 l 1
 661 384 l 1
 137 384 l 1
171 147 m 1
 155 259 l 1
 679 259 l 1
 695 147 l 1
 171 147 l 1
EndSplineSet
EndChar

StartChar: notequal
Encoding: 8800 8800 332
Width: 696
Flags: MW
HStem: 141 102<172 288 172 172 157 396 441 681> 347 101<143 379 143 143 128 487 532 652> 347 194<143 573 487 487 487 573 465 667>
VStem: 128 568<141 448>
LayerCount: 2
Fore
SplineSet
248 50 m 1xb0
 288 141 l 1
 172 141 l 1
 157 243 l 1
 332 243 l 1
 379 347 l 1
 143 347 l 1xb0
 128 448 l 1
 424 448 l 1xd0
 465 541 l 1
 573 541 l 1xb0
 532 448 l 1
 652 448 l 1xd0
 667 347 l 1
 487 347 l 1
 441 243 l 1
 681 243 l 1
 696 141 l 1
 396 141 l 1
 356 50 l 1
 248 50 l 1xb0
EndSplineSet
EndChar

StartChar: greater
Encoding: 62 62 333
Width: 696
Flags: MW
HStem: 27 545<157 232>
VStem: 157 479<247 572>
LayerCount: 2
Fore
SplineSet
232 27 m 1
 216 153 l 1
 480 300 l 1
 173 446 l 1
 157 572 l 1
 622 352 l 1
 636 247 l 1
 232 27 l 1
EndSplineSet
EndChar

StartChar: less
Encoding: 60 60 334
Width: 696
Flags: MW
HStem: 27 545<592 667>
VStem: 188 479<27 352>
LayerCount: 2
Fore
SplineSet
667 27 m 1
 201 247 l 1
 188 352 l 1
 592 572 l 1
 608 446 l 1
 343 300 l 1
 650 153 l 1
 667 27 l 1
EndSplineSet
EndChar

StartChar: greaterequal
Encoding: 8805 8805 335
Width: 696
Flags: MW
HStem: 0 101<232 232 232 663 218 677>
VStem: 150 527
LayerCount: 2
Fore
SplineSet
212 144 m 1
 197 257 l 1
 480 366 l 1
 165 474 l 1
 150 587 l 1
 619 415 l 1
 633 315 l 1
 212 144 l 1
232 0 m 1
 218 101 l 1
 663 101 l 1
 677 0 l 1
 232 0 l 1
EndSplineSet
EndChar

StartChar: lessequal
Encoding: 8804 8804 336
Width: 696
Flags: MW
HStem: 0 101<230 230 230 661 216 675>
VStem: 172 503<0 415>
LayerCount: 2
Fore
SplineSet
655 144 m 1
 186 315 l 1
 172 415 l 1
 593 587 l 1
 608 474 l 1
 325 366 l 1
 640 257 l 1
 655 144 l 1
230 0 m 1
 216 101 l 1
 661 101 l 1
 675 0 l 1
 230 0 l 1
EndSplineSet
EndChar

StartChar: plusminus
Encoding: 177 177 337
Width: 696
Flags: MW
HStem: 0 101<223 223 223 670 209 684> 330 106<177 338 162 353 177 177 466 466 466 623>
VStem: 162 522<0 436>
LayerCount: 2
Fore
SplineSet
377 157 m 1
 353 330 l 1
 177 330 l 1
 162 436 l 1
 338 436 l 1
 316 595 l 1
 429 595 l 1
 451 436 l 1
 623 436 l 1
 638 330 l 1
 466 330 l 1
 490 157 l 1
 377 157 l 1
223 0 m 1
 209 101 l 1
 670 101 l 1
 684 0 l 1
 223 0 l 1
EndSplineSet
EndChar

StartChar: approxequal
Encoding: 8776 8776 338
Width: 696
Flags: MW
HStem: 88 103<528 599 528 601.5> 163 104<275 357.5> 312 103<543 567.5 496.5 570> 388 103<243.5 326>
VStem: 129 572<135 442>
LayerCount: 2
Fore
SplineSet
543 312 m 0x58
 440 310 377 388 275 388 c 0
 212 388 161 365 140 328 c 1
 129 442 l 1
 166 472 214 491 273 491 c 0x58
 388 491 451 415 542 415 c 0
 593 415 638 435 659 466 c 1
 670 358 l 1x68
 643 330 597 312 543 312 c 0x58
574 88 m 0x98
 471 88 408 163 307 163 c 0
 243 163 193 141 172 103 c 1
 160 218 l 1x58
 197 248 245 267 304 267 c 0
 419 267 483 191 573 191 c 0
 625 191 670 211 690 243 c 1
 701 135 l 1
 674 107 629 88 574 88 c 0x98
EndSplineSet
EndChar

StartChar: asciitilde
Encoding: 126 126 339
Width: 696
Flags: MW
HStem: 223 122<512 583.5 512 595> 310 122<261.5 343.5>
VStem: 105 609<293 338>
LayerCount: 2
Fore
SplineSet
561 223 m 0xa0
 459 223 394 310 293 310 c 0
 230 310 183 276 162 238 c 1
 105 338 l 1x60
 148 391 209 432 288 432 c 0
 403 432 467 345 557 345 c 0
 610 345 646 364 665 399 c 1
 714 293 l 1
 680 250 629 223 561 223 c 0xa0
EndSplineSet
EndChar

